<svg width="900" height="208" xmlns="http://www.w3.org/2000/svg" xmlns:xlink="http://www.w3.org/1999/xlink" version="1.1" baseProfile="full" viewBox="0 0 900 208">
<rect width="900" height="208" x="0" y="0" fill="#ffffff"></rect>
<path d="M135.5 65L135.5 128" fill="none" pointer-events="visible" stroke="#dbdee4" class="zr14-cls-28"></path>
<path d="M304.5 65L304.5 128" fill="none" pointer-events="visible" stroke="#dbdee4" class="zr14-cls-28"></path>
<path d="M472.5 65L472.5 128" fill="none" pointer-events="visible" stroke="#dbdee4" class="zr14-cls-28"></path>
<path d="M641.5 65L641.5 128" fill="none" pointer-events="visible" stroke="#dbdee4" class="zr14-cls-28"></path>
<path d="M810.5 65L810.5 128" fill="none" pointer-events="visible" stroke="#dbdee4" class="zr14-cls-28"></path>
<path d="M135.5 128L135.5 65" fill="none" pointer-events="visible" stroke="#999" stroke-linecap="round" class="zr14-cls-28"></path>
<text dominant-baseline="central" text-anchor="end" style="font-size:12px;font-family:sans-serif;" xml:space="preserve" transform="translate(131 112.25)" fill="#111">    es-toolkit.cloneDeep</text>
<text dominant-baseline="central" text-anchor="end" style="font-size:12px;font-family:sans-serif;" xml:space="preserve" transform="translate(131 80.75)" fill="#111">    lodash.cloneDeep</text>
<text dominant-baseline="central" text-anchor="middle" style="font-size:12px;font-family:sans-serif;" y="6" transform="translate(135 136)" fill="#111">0</text>
<text dominant-baseline="central" text-anchor="middle" style="font-size:12px;font-family:sans-serif;" y="6" transform="translate(303.75 136)" fill="#111">200.0k</text>
<text dominant-baseline="central" text-anchor="middle" style="font-size:12px;font-family:sans-serif;" y="6" transform="translate(472.5 136)" fill="#111">400.0k</text>
<text dominant-baseline="central" text-anchor="middle" style="font-size:12px;font-family:sans-serif;" y="6" transform="translate(641.25 136)" fill="#111">600.0k</text>
<text dominant-baseline="central" text-anchor="middle" style="font-size:12px;font-family:sans-serif;" y="6" transform="translate(810 136)" fill="#111">800.0k</text>
<path d="M135 101.4l633.4 0l0 21.7l-633.4 0Z" fill="#4F46E5" ecmeta_series_index="0" ecmeta_data_index="0" ecmeta_ssr_type="chart" class="zr14-cls-29"></path>
<path d="M135 69.9l246.8 0l0 21.7l-246.8 0Z" fill="#4F46E5" ecmeta_series_index="0" ecmeta_data_index="1" ecmeta_ssr_type="chart" class="zr14-cls-29"></path>
<path d="M-135.8 -5l271.5 0l0 28l-271.5 0Z" transform="translate(450 20)" fill="rgb(0,0,0)" fill-opacity="0" stroke="#3c3c41" stroke-width="0" class="zr14-cls-28"></path>
<text dominant-baseline="central" text-anchor="middle" style="font-size:18px;font-family:sans-serif;font-weight:bold;" xml:space="preserve" y="9" transform="translate(450 20)" fill="#3c3c41">buffer-zero-copy • small (ops/s)</text>
<style ><![CDATA[
.zr14-cls-28:hover {
pointer-events:none;
}
.zr14-cls-29:hover {
cursor:pointer;
fill:rgba(86,77,251,1);
}

]]>

</style>
</svg>