<svg width="900" height="348" xmlns="http://www.w3.org/2000/svg" xmlns:xlink="http://www.w3.org/1999/xlink" version="1.1" baseProfile="full" viewBox="0 0 900 348">
<rect width="900" height="348" x="0" y="0" fill="#ffffff"></rect>
<path d="M135.5 65L135.5 268" fill="none" pointer-events="visible" stroke="#dbdee4" class="zr13-cls-26"></path>
<path d="M247.5 65L247.5 268" fill="none" pointer-events="visible" stroke="#dbdee4" class="zr13-cls-26"></path>
<path d="M360.5 65L360.5 268" fill="none" pointer-events="visible" stroke="#dbdee4" class="zr13-cls-26"></path>
<path d="M472.5 65L472.5 268" fill="none" pointer-events="visible" stroke="#dbdee4" class="zr13-cls-26"></path>
<path d="M585.5 65L585.5 268" fill="none" pointer-events="visible" stroke="#dbdee4" class="zr13-cls-26"></path>
<path d="M697.5 65L697.5 268" fill="none" pointer-events="visible" stroke="#dbdee4" class="zr13-cls-26"></path>
<path d="M810.5 65L810.5 268" fill="none" pointer-events="visible" stroke="#dbdee4" class="zr13-cls-26"></path>
<path d="M135.5 268L135.5 65" fill="none" pointer-events="visible" stroke="#999" stroke-linecap="round" class="zr13-cls-26"></path>
<text dominant-baseline="central" text-anchor="end" style="font-size:12px;font-family:sans-serif;" xml:space="preserve" transform="translate(131 253.5)" fill="#111">    clone</text>
<text dominant-baseline="central" text-anchor="end" style="font-size:12px;font-family:sans-serif;" xml:space="preserve" transform="translate(131 224.5)" fill="#111">    clone(circular)</text>
<text dominant-baseline="central" text-anchor="end" style="font-size:12px;font-family:sans-serif;" xml:space="preserve" transform="translate(131 195.5)" fill="#111">    rfdc(circles)</text>
<text dominant-baseline="central" text-anchor="end" style="font-size:12px;font-family:sans-serif;" xml:space="preserve" transform="translate(131 166.5)" fill="#111">    klona</text>
<text dominant-baseline="central" text-anchor="end" style="font-size:12px;font-family:sans-serif;" xml:space="preserve" transform="translate(131 137.5)" fill="#111">    nano-copy</text>
<text dominant-baseline="central" text-anchor="end" style="font-size:12px;font-family:sans-serif;" xml:space="preserve" transform="translate(131 108.5)" fill="#111">    rfdc</text>
<text dominant-baseline="central" text-anchor="end" style="font-size:12px;font-family:sans-serif;" xml:space="preserve" transform="translate(131 79.5)" fill="#111">    deepcopy</text>
<text dominant-baseline="central" text-anchor="middle" style="font-size:12px;font-family:sans-serif;" y="6" transform="translate(135 276)" fill="#111">0</text>
<text dominant-baseline="central" text-anchor="middle" style="font-size:12px;font-family:sans-serif;" y="6" transform="translate(247.5 276)" fill="#111">10</text>
<text dominant-baseline="central" text-anchor="middle" style="font-size:12px;font-family:sans-serif;" y="6" transform="translate(360 276)" fill="#111">20</text>
<text dominant-baseline="central" text-anchor="middle" style="font-size:12px;font-family:sans-serif;" y="6" transform="translate(472.5 276)" fill="#111">30</text>
<text dominant-baseline="central" text-anchor="middle" style="font-size:12px;font-family:sans-serif;" y="6" transform="translate(585 276)" fill="#111">40</text>
<text dominant-baseline="central" text-anchor="middle" style="font-size:12px;font-family:sans-serif;" y="6" transform="translate(697.5 276)" fill="#111">50</text>
<text dominant-baseline="central" text-anchor="middle" style="font-size:12px;font-family:sans-serif;" y="6" transform="translate(810 276)" fill="#111">60</text>
<path d="M135 243.5l573.8 0l0 20l-573.7 0Z" fill="#4F46E5" ecmeta_series_index="0" ecmeta_data_index="0" ecmeta_ssr_type="chart" class="zr13-cls-27"></path>
<path d="M135 214.5l573.8 0l0 20l-573.7 0Z" fill="#4F46E5" ecmeta_series_index="0" ecmeta_data_index="1" ecmeta_ssr_type="chart" class="zr13-cls-27"></path>
<path d="M135 185.5l573.8 0l0 20l-573.7 0Z" fill="#4F46E5" ecmeta_series_index="0" ecmeta_data_index="2" ecmeta_ssr_type="chart" class="zr13-cls-27"></path>
<path d="M135 156.5l573.8 0l0 20l-573.7 0Z" fill="#4F46E5" ecmeta_series_index="0" ecmeta_data_index="3" ecmeta_ssr_type="chart" class="zr13-cls-27"></path>
<path d="M135 127.5l573.8 0l0 20l-573.7 0Z" fill="#4F46E5" ecmeta_series_index="0" ecmeta_data_index="4" ecmeta_ssr_type="chart" class="zr13-cls-27"></path>
<path d="M135 98.5l562.5 0l0 20l-562.5 0Z" fill="#4F46E5" ecmeta_series_index="0" ecmeta_data_index="5" ecmeta_ssr_type="chart" class="zr13-cls-27"></path>
<path d="M135 69.5l281.3 0l0 20l-281.2 0Z" fill="#4F46E5" ecmeta_series_index="0" ecmeta_data_index="6" ecmeta_ssr_type="chart" class="zr13-cls-27"></path>
<path d="M-92.3 -5l184.6 0l0 28l-184.6 0Z" transform="translate(450 20)" fill="rgb(0,0,0)" fill-opacity="0" stroke="#3c3c41" stroke-width="0" class="zr13-cls-26"></path>
<text dominant-baseline="central" text-anchor="middle" style="font-size:18px;font-family:sans-serif;font-weight:bold;" xml:space="preserve" y="9" transform="translate(450 20)" fill="#3c3c41">buffer • large (ops/s)</text>
<style ><![CDATA[
.zr13-cls-26:hover {
pointer-events:none;
}
.zr13-cls-27:hover {
cursor:pointer;
fill:rgba(86,77,251,1);
}

]]>

</style>
</svg>