<svg width="900" height="572" xmlns="http://www.w3.org/2000/svg" xmlns:xlink="http://www.w3.org/1999/xlink" version="1.1" baseProfile="full" viewBox="0 0 900 572">
<rect width="900" height="572" x="0" y="0" fill="#ffffff"></rect>
<path d="M156.5 65L156.5 492" fill="none" pointer-events="visible" stroke="#dbdee4" class="zr16-cls-32"></path>
<path d="M319.5 65L319.5 492" fill="none" pointer-events="visible" stroke="#dbdee4" class="zr16-cls-32"></path>
<path d="M483.5 65L483.5 492" fill="none" pointer-events="visible" stroke="#dbdee4" class="zr16-cls-32"></path>
<path d="M646.5 65L646.5 492" fill="none" pointer-events="visible" stroke="#dbdee4" class="zr16-cls-32"></path>
<path d="M810.5 65L810.5 492" fill="none" pointer-events="visible" stroke="#dbdee4" class="zr16-cls-32"></path>
<path d="M156.5 492L156.5 65" fill="none" pointer-events="visible" stroke="#999" stroke-linecap="round" class="zr16-cls-32"></path>
<text dominant-baseline="central" text-anchor="end" style="font-size:12px;font-family:sans-serif;" xml:space="preserve" transform="translate(151.92 477.7667)" fill="#111">    nanoclone</text>
<text dominant-baseline="central" text-anchor="end" style="font-size:12px;font-family:sans-serif;" xml:space="preserve" transform="translate(151.92 449.3)" fill="#111">    klona</text>
<text dominant-baseline="central" text-anchor="end" style="font-size:12px;font-family:sans-serif;" xml:space="preserve" transform="translate(151.92 420.8333)" fill="#111">    fast-copy</text>
<text dominant-baseline="central" text-anchor="end" style="font-size:12px;font-family:sans-serif;" xml:space="preserve" transform="translate(151.92 392.3667)" fill="#111">    es-toolkit.cloneDeep</text>
<text dominant-baseline="central" text-anchor="end" style="font-size:12px;font-family:sans-serif;" xml:space="preserve" transform="translate(151.92 363.9)" fill="#111">    just-clone</text>
<text dominant-baseline="central" text-anchor="end" style="font-size:12px;font-family:sans-serif;" xml:space="preserve" transform="translate(151.92 335.4333)" fill="#111">    clone</text>
<text dominant-baseline="central" text-anchor="end" style="font-size:12px;font-family:sans-serif;" xml:space="preserve" transform="translate(151.92 306.9667)" fill="#111">    clone(circular)</text>
<text dominant-baseline="central" text-anchor="end" style="font-size:12px;font-family:sans-serif;" xml:space="preserve" transform="translate(151.92 278.5)" fill="#111">    rfdc</text>
<text dominant-baseline="central" text-anchor="end" style="font-size:12px;font-family:sans-serif;" xml:space="preserve" transform="translate(151.92 250.0333)" fill="#111">    rfdc(circles)</text>
<text dominant-baseline="central" text-anchor="end" style="font-size:12px;font-family:sans-serif;" xml:space="preserve" transform="translate(151.92 221.5667)" fill="#111">    nano-copy</text>
<text dominant-baseline="central" text-anchor="end" style="font-size:12px;font-family:sans-serif;" xml:space="preserve" transform="translate(151.92 193.1)" fill="#111">    structuredClone</text>
<text dominant-baseline="central" text-anchor="end" style="font-size:12px;font-family:sans-serif;" xml:space="preserve" transform="translate(151.92 164.6333)" fill="#111">    @ungap/structured-clone</text>
<text dominant-baseline="central" text-anchor="end" style="font-size:12px;font-family:sans-serif;" xml:space="preserve" transform="translate(151.92 136.1667)" fill="#111">    deepcopy</text>
<text dominant-baseline="central" text-anchor="end" style="font-size:12px;font-family:sans-serif;" xml:space="preserve" transform="translate(151.92 107.7)" fill="#111">    lodash.cloneDeep</text>
<text dominant-baseline="central" text-anchor="end" style="font-size:12px;font-family:sans-serif;" xml:space="preserve" transform="translate(151.92 79.2333)" fill="#111">    core-js/structured-clone</text>
<text dominant-baseline="central" text-anchor="middle" style="font-size:12px;font-family:sans-serif;" y="6" transform="translate(155.92 500)" fill="#111">0</text>
<text dominant-baseline="central" text-anchor="middle" style="font-size:12px;font-family:sans-serif;" y="6" transform="translate(319.44 500)" fill="#111">100.0k</text>
<text dominant-baseline="central" text-anchor="middle" style="font-size:12px;font-family:sans-serif;" y="6" transform="translate(482.96 500)" fill="#111">200.0k</text>
<text dominant-baseline="central" text-anchor="middle" style="font-size:12px;font-family:sans-serif;" y="6" transform="translate(646.48 500)" fill="#111">300.0k</text>
<text dominant-baseline="central" text-anchor="middle" style="font-size:12px;font-family:sans-serif;" y="6" transform="translate(810 500)" fill="#111">400.0k</text>
<path d="M155.9 467.9l603.5 0l0 19.6l-603.5 0Z" fill="#4F46E5" ecmeta_series_index="0" ecmeta_data_index="0" ecmeta_ssr_type="chart" class="zr16-cls-33"></path>
<path d="M155.9 439.5l575.1 0l0 19.6l-575.1 0Z" fill="#4F46E5" ecmeta_series_index="0" ecmeta_data_index="1" ecmeta_ssr_type="chart" class="zr16-cls-33"></path>
<path d="M155.9 411l399.9 0l0 19.6l-399.9 0Z" fill="#4F46E5" ecmeta_series_index="0" ecmeta_data_index="2" ecmeta_ssr_type="chart" class="zr16-cls-33"></path>
<path d="M155.9 382.5l391.4 0l0 19.6l-391.4 0Z" fill="#4F46E5" ecmeta_series_index="0" ecmeta_data_index="3" ecmeta_ssr_type="chart" class="zr16-cls-33"></path>
<path d="M155.9 354.1l361 0l0 19.6l-361 0Z" fill="#4F46E5" ecmeta_series_index="0" ecmeta_data_index="4" ecmeta_ssr_type="chart" class="zr16-cls-33"></path>
<path d="M155.9 325.6l257 0l0 19.6l-257 0Z" fill="#4F46E5" ecmeta_series_index="0" ecmeta_data_index="5" ecmeta_ssr_type="chart" class="zr16-cls-33"></path>
<path d="M155.9 297.1l228.6 0l0 19.6l-228.6 0Z" fill="#4F46E5" ecmeta_series_index="0" ecmeta_data_index="6" ecmeta_ssr_type="chart" class="zr16-cls-33"></path>
<path d="M155.9 268.7l212.3 0l0 19.6l-212.3 0Z" fill="#4F46E5" ecmeta_series_index="0" ecmeta_data_index="7" ecmeta_ssr_type="chart" class="zr16-cls-33"></path>
<path d="M155.9 240.2l204.4 0l0 19.6l-204.4 0Z" fill="#4F46E5" ecmeta_series_index="0" ecmeta_data_index="8" ecmeta_ssr_type="chart" class="zr16-cls-33"></path>
<path d="M155.9 211.7l197.2 0l0 19.6l-197.2 0Z" fill="#4F46E5" ecmeta_series_index="0" ecmeta_data_index="9" ecmeta_ssr_type="chart" class="zr16-cls-33"></path>
<path d="M155.9 183.3l144.6 0l0 19.6l-144.6 0Z" fill="#4F46E5" ecmeta_series_index="0" ecmeta_data_index="10" ecmeta_ssr_type="chart" class="zr16-cls-33"></path>
<path d="M155.9 154.8l142.8 0l0 19.6l-142.8 0Z" fill="#4F46E5" ecmeta_series_index="0" ecmeta_data_index="11" ecmeta_ssr_type="chart" class="zr16-cls-33"></path>
<path d="M155.9 126.3l137.7 0l0 19.6l-137.7 0Z" fill="#4F46E5" ecmeta_series_index="0" ecmeta_data_index="12" ecmeta_ssr_type="chart" class="zr16-cls-33"></path>
<path d="M155.9 97.9l97.1 0l0 19.6l-97.1 0Z" fill="#4F46E5" ecmeta_series_index="0" ecmeta_data_index="13" ecmeta_ssr_type="chart" class="zr16-cls-33"></path>
<path d="M155.9 69.4l57.8 0l0 19.6l-57.8 0Z" fill="#4F46E5" ecmeta_series_index="0" ecmeta_data_index="14" ecmeta_ssr_type="chart" class="zr16-cls-33"></path>
<path d="M-102.7 -5l205.3 0l0 28l-205.3 0Z" transform="translate(450 20)" fill="rgb(0,0,0)" fill-opacity="0" stroke="#3c3c41" stroke-width="0" class="zr16-cls-32"></path>
<text dominant-baseline="central" text-anchor="middle" style="font-size:18px;font-family:sans-serif;font-weight:bold;" xml:space="preserve" y="9" transform="translate(450 20)" fill="#3c3c41">map-set • small (ops/s)</text>
<style ><![CDATA[
.zr16-cls-32:hover {
pointer-events:none;
}
.zr16-cls-33:hover {
cursor:pointer;
fill:rgba(86,77,251,1);
}

]]>

</style>
</svg>