<svg width="900" height="628" xmlns="http://www.w3.org/2000/svg" xmlns:xlink="http://www.w3.org/1999/xlink" version="1.1" baseProfile="full" viewBox="0 0 900 628">
<rect width="900" height="628" x="0" y="0" fill="#ffffff"></rect>
<path d="M156.5 65L156.5 548" fill="none" pointer-events="visible" stroke="#dbdee4" class="zr4-cls-8"></path>
<path d="M265.5 65L265.5 548" fill="none" pointer-events="visible" stroke="#dbdee4" class="zr4-cls-8"></path>
<path d="M374.5 65L374.5 548" fill="none" pointer-events="visible" stroke="#dbdee4" class="zr4-cls-8"></path>
<path d="M483.5 65L483.5 548" fill="none" pointer-events="visible" stroke="#dbdee4" class="zr4-cls-8"></path>
<path d="M592.5 65L592.5 548" fill="none" pointer-events="visible" stroke="#dbdee4" class="zr4-cls-8"></path>
<path d="M701.5 65L701.5 548" fill="none" pointer-events="visible" stroke="#dbdee4" class="zr4-cls-8"></path>
<path d="M810.5 65L810.5 548" fill="none" pointer-events="visible" stroke="#dbdee4" class="zr4-cls-8"></path>
<path d="M156.5 548L156.5 65" fill="none" pointer-events="visible" stroke="#999" stroke-linecap="round" class="zr4-cls-8"></path>
<text dominant-baseline="central" text-anchor="end" style="font-size:12px;font-family:sans-serif;" xml:space="preserve" transform="translate(151.92 533.7941)" fill="#111">    klona/lite</text>
<text dominant-baseline="central" text-anchor="end" style="font-size:12px;font-family:sans-serif;" xml:space="preserve" transform="translate(151.92 505.3824)" fill="#111">    klona</text>
<text dominant-baseline="central" text-anchor="end" style="font-size:12px;font-family:sans-serif;" xml:space="preserve" transform="translate(151.92 476.9706)" fill="#111">    rfdc(with RegExp)</text>
<text dominant-baseline="central" text-anchor="end" style="font-size:12px;font-family:sans-serif;" xml:space="preserve" transform="translate(151.92 448.5588)" fill="#111">    nanoclone</text>
<text dominant-baseline="central" text-anchor="end" style="font-size:12px;font-family:sans-serif;" xml:space="preserve" transform="translate(151.92 420.1471)" fill="#111">    just-clone</text>
<text dominant-baseline="central" text-anchor="end" style="font-size:12px;font-family:sans-serif;" xml:space="preserve" transform="translate(151.92 391.7353)" fill="#111">    nano-copy</text>
<text dominant-baseline="central" text-anchor="end" style="font-size:12px;font-family:sans-serif;" xml:space="preserve" transform="translate(151.92 363.3235)" fill="#111">    fast-copy</text>
<text dominant-baseline="central" text-anchor="end" style="font-size:12px;font-family:sans-serif;" xml:space="preserve" transform="translate(151.92 334.9118)" fill="#111">    clone-deep</text>
<text dominant-baseline="central" text-anchor="end" style="font-size:12px;font-family:sans-serif;" xml:space="preserve" transform="translate(151.92 306.5)" fill="#111">    es-toolkit.cloneDeep</text>
<text dominant-baseline="central" text-anchor="end" style="font-size:12px;font-family:sans-serif;" xml:space="preserve" transform="translate(151.92 278.0882)" fill="#111">    clone</text>
<text dominant-baseline="central" text-anchor="end" style="font-size:12px;font-family:sans-serif;" xml:space="preserve" transform="translate(151.92 249.6765)" fill="#111">    structuredClone</text>
<text dominant-baseline="central" text-anchor="end" style="font-size:12px;font-family:sans-serif;" xml:space="preserve" transform="translate(151.92 221.2647)" fill="#111">    @ungap/structured-clone</text>
<text dominant-baseline="central" text-anchor="end" style="font-size:12px;font-family:sans-serif;" xml:space="preserve" transform="translate(151.92 192.8529)" fill="#111">    clone(circular)</text>
<text dominant-baseline="central" text-anchor="end" style="font-size:12px;font-family:sans-serif;" xml:space="preserve" transform="translate(151.92 164.4412)" fill="#111">    ramda.clone</text>
<text dominant-baseline="central" text-anchor="end" style="font-size:12px;font-family:sans-serif;" xml:space="preserve" transform="translate(151.92 136.0294)" fill="#111">    deepcopy</text>
<text dominant-baseline="central" text-anchor="end" style="font-size:12px;font-family:sans-serif;" xml:space="preserve" transform="translate(151.92 107.6176)" fill="#111">    core-js/structured-clone</text>
<text dominant-baseline="central" text-anchor="end" style="font-size:12px;font-family:sans-serif;" xml:space="preserve" transform="translate(151.92 79.2059)" fill="#111">    lodash.cloneDeep</text>
<text dominant-baseline="central" text-anchor="middle" style="font-size:12px;font-family:sans-serif;" y="6" transform="translate(155.92 556)" fill="#111">0</text>
<text dominant-baseline="central" text-anchor="middle" style="font-size:12px;font-family:sans-serif;" y="6" transform="translate(264.9333 556)" fill="#111">50.0k</text>
<text dominant-baseline="central" text-anchor="middle" style="font-size:12px;font-family:sans-serif;" y="6" transform="translate(373.9467 556)" fill="#111">100.0k</text>
<text dominant-baseline="central" text-anchor="middle" style="font-size:12px;font-family:sans-serif;" y="6" transform="translate(482.96 556)" fill="#111">150.0k</text>
<text dominant-baseline="central" text-anchor="middle" style="font-size:12px;font-family:sans-serif;" y="6" transform="translate(591.9733 556)" fill="#111">200.0k</text>
<text dominant-baseline="central" text-anchor="middle" style="font-size:12px;font-family:sans-serif;" y="6" transform="translate(700.9867 556)" fill="#111">250.0k</text>
<text dominant-baseline="central" text-anchor="middle" style="font-size:12px;font-family:sans-serif;" y="6" transform="translate(810 556)" fill="#111">300.0k</text>
<path d="M155.9 524l646.7 0l0 19.6l-646.7 0Z" fill="#4F46E5" ecmeta_series_index="0" ecmeta_data_index="0" ecmeta_ssr_type="chart" class="zr4-cls-9"></path>
<path d="M155.9 495.6l637.9 0l0 19.6l-637.9 0Z" fill="#4F46E5" ecmeta_series_index="0" ecmeta_data_index="1" ecmeta_ssr_type="chart" class="zr4-cls-9"></path>
<path d="M155.9 467.2l559.6 0l0 19.6l-559.6 0Z" fill="#4F46E5" ecmeta_series_index="0" ecmeta_data_index="2" ecmeta_ssr_type="chart" class="zr4-cls-9"></path>
<path d="M155.9 438.8l374.2 0l0 19.6l-374.2 0Z" fill="#4F46E5" ecmeta_series_index="0" ecmeta_data_index="3" ecmeta_ssr_type="chart" class="zr4-cls-9"></path>
<path d="M155.9 410.3l344.8 0l0 19.6l-344.8 0Z" fill="#4F46E5" ecmeta_series_index="0" ecmeta_data_index="4" ecmeta_ssr_type="chart" class="zr4-cls-9"></path>
<path d="M155.9 381.9l317.5 0l0 19.6l-317.5 0Z" fill="#4F46E5" ecmeta_series_index="0" ecmeta_data_index="5" ecmeta_ssr_type="chart" class="zr4-cls-9"></path>
<path d="M155.9 353.5l291.9 0l0 19.6l-291.9 0Z" fill="#4F46E5" ecmeta_series_index="0" ecmeta_data_index="6" ecmeta_ssr_type="chart" class="zr4-cls-9"></path>
<path d="M155.9 325.1l285.1 0l0 19.6l-285.1 0Z" fill="#4F46E5" ecmeta_series_index="0" ecmeta_data_index="7" ecmeta_ssr_type="chart" class="zr4-cls-9"></path>
<path d="M155.9 296.7l275.2 0l0 19.6l-275.2 0Z" fill="#4F46E5" ecmeta_series_index="0" ecmeta_data_index="8" ecmeta_ssr_type="chart" class="zr4-cls-9"></path>
<path d="M155.9 268.3l175.5 0l0 19.6l-175.5 0Z" fill="#4F46E5" ecmeta_series_index="0" ecmeta_data_index="9" ecmeta_ssr_type="chart" class="zr4-cls-9"></path>
<path d="M155.9 239.9l168.2 0l0 19.6l-168.2 0Z" fill="#4F46E5" ecmeta_series_index="0" ecmeta_data_index="10" ecmeta_ssr_type="chart" class="zr4-cls-9"></path>
<path d="M155.9 211.5l155.8 0l0 19.6l-155.8 0Z" fill="#4F46E5" ecmeta_series_index="0" ecmeta_data_index="11" ecmeta_ssr_type="chart" class="zr4-cls-9"></path>
<path d="M155.9 183.1l151 0l0 19.6l-151 0Z" fill="#4F46E5" ecmeta_series_index="0" ecmeta_data_index="12" ecmeta_ssr_type="chart" class="zr4-cls-9"></path>
<path d="M155.9 154.6l128.7 0l0 19.6l-128.7 0Z" fill="#4F46E5" ecmeta_series_index="0" ecmeta_data_index="13" ecmeta_ssr_type="chart" class="zr4-cls-9"></path>
<path d="M155.9 126.2l109.8 0l0 19.6l-109.8 0Z" fill="#4F46E5" ecmeta_series_index="0" ecmeta_data_index="14" ecmeta_ssr_type="chart" class="zr4-cls-9"></path>
<path d="M155.9 97.8l88.4 0l0 19.6l-88.4 0Z" fill="#4F46E5" ecmeta_series_index="0" ecmeta_data_index="15" ecmeta_ssr_type="chart" class="zr4-cls-9"></path>
<path d="M155.9 69.4l74 0l0 19.6l-74 0Z" fill="#4F46E5" ecmeta_series_index="0" ecmeta_data_index="16" ecmeta_ssr_type="chart" class="zr4-cls-9"></path>
<path d="M-97.7 -5l195.4 0l0 28l-195.4 0Z" transform="translate(450 20)" fill="rgb(0,0,0)" fill-opacity="0" stroke="#3c3c41" stroke-width="0" class="zr4-cls-8"></path>
<text dominant-baseline="central" text-anchor="middle" style="font-size:18px;font-family:sans-serif;font-weight:bold;" xml:space="preserve" y="9" transform="translate(450 20)" fill="#3c3c41">regexp • small (ops/s)</text>
<style ><![CDATA[
.zr4-cls-8:hover {
pointer-events:none;
}
.zr4-cls-9:hover {
cursor:pointer;
fill:rgba(86,77,251,1);
}

]]>

</style>
</svg>