<svg width="900" height="656" xmlns="http://www.w3.org/2000/svg" xmlns:xlink="http://www.w3.org/1999/xlink" version="1.1" baseProfile="full" viewBox="0 0 900 656">
<rect width="900" height="656" x="0" y="0" fill="#ffffff"></rect>
<path d="M156.5 65L156.5 576" fill="none" pointer-events="visible" stroke="#dbdee4" class="zr4-cls-8"></path>
<path d="M249.5 65L249.5 576" fill="none" pointer-events="visible" stroke="#dbdee4" class="zr4-cls-8"></path>
<path d="M343.5 65L343.5 576" fill="none" pointer-events="visible" stroke="#dbdee4" class="zr4-cls-8"></path>
<path d="M436.5 65L436.5 576" fill="none" pointer-events="visible" stroke="#dbdee4" class="zr4-cls-8"></path>
<path d="M529.5 65L529.5 576" fill="none" pointer-events="visible" stroke="#dbdee4" class="zr4-cls-8"></path>
<path d="M623.5 65L623.5 576" fill="none" pointer-events="visible" stroke="#dbdee4" class="zr4-cls-8"></path>
<path d="M716.5 65L716.5 576" fill="none" pointer-events="visible" stroke="#dbdee4" class="zr4-cls-8"></path>
<path d="M810.5 65L810.5 576" fill="none" pointer-events="visible" stroke="#dbdee4" class="zr4-cls-8"></path>
<path d="M156.5 576L156.5 65" fill="none" pointer-events="visible" stroke="#999" stroke-linecap="round" class="zr4-cls-8"></path>
<text dominant-baseline="central" text-anchor="end" style="font-size:12px;font-family:sans-serif;" xml:space="preserve" transform="translate(151.92 561.8056)" fill="#111">    klona</text>
<text dominant-baseline="central" text-anchor="end" style="font-size:12px;font-family:sans-serif;" xml:space="preserve" transform="translate(151.92 533.4167)" fill="#111">    klona/lite</text>
<text dominant-baseline="central" text-anchor="end" style="font-size:12px;font-family:sans-serif;" xml:space="preserve" transform="translate(151.92 505.0278)" fill="#111">    rfdc(with RegExp)</text>
<text dominant-baseline="central" text-anchor="end" style="font-size:12px;font-family:sans-serif;" xml:space="preserve" transform="translate(151.92 476.6389)" fill="#111">    nanoclone</text>
<text dominant-baseline="central" text-anchor="end" style="font-size:12px;font-family:sans-serif;" xml:space="preserve" transform="translate(151.92 448.25)" fill="#111">    just-clone</text>
<text dominant-baseline="central" text-anchor="end" style="font-size:12px;font-family:sans-serif;" xml:space="preserve" transform="translate(151.92 419.8611)" fill="#111">    nano-copy</text>
<text dominant-baseline="central" text-anchor="end" style="font-size:12px;font-family:sans-serif;" xml:space="preserve" transform="translate(151.92 391.4722)" fill="#111">    fast-copy</text>
<text dominant-baseline="central" text-anchor="end" style="font-size:12px;font-family:sans-serif;" xml:space="preserve" transform="translate(151.92 363.0833)" fill="#111">    es-toolkit.cloneDeep</text>
<text dominant-baseline="central" text-anchor="end" style="font-size:12px;font-family:sans-serif;" xml:space="preserve" transform="translate(151.92 334.6944)" fill="#111">    clone-deep</text>
<text dominant-baseline="central" text-anchor="end" style="font-size:12px;font-family:sans-serif;" xml:space="preserve" transform="translate(151.92 306.3056)" fill="#111">    jsondiffpatch.clone</text>
<text dominant-baseline="central" text-anchor="end" style="font-size:12px;font-family:sans-serif;" xml:space="preserve" transform="translate(151.92 277.9167)" fill="#111">    clone</text>
<text dominant-baseline="central" text-anchor="end" style="font-size:12px;font-family:sans-serif;" xml:space="preserve" transform="translate(151.92 249.5278)" fill="#111">    structuredClone</text>
<text dominant-baseline="central" text-anchor="end" style="font-size:12px;font-family:sans-serif;" xml:space="preserve" transform="translate(151.92 221.1389)" fill="#111">    @ungap/structured-clone</text>
<text dominant-baseline="central" text-anchor="end" style="font-size:12px;font-family:sans-serif;" xml:space="preserve" transform="translate(151.92 192.75)" fill="#111">    clone(circular)</text>
<text dominant-baseline="central" text-anchor="end" style="font-size:12px;font-family:sans-serif;" xml:space="preserve" transform="translate(151.92 164.3611)" fill="#111">    ramda.clone</text>
<text dominant-baseline="central" text-anchor="end" style="font-size:12px;font-family:sans-serif;" xml:space="preserve" transform="translate(151.92 135.9722)" fill="#111">    deepcopy</text>
<text dominant-baseline="central" text-anchor="end" style="font-size:12px;font-family:sans-serif;" xml:space="preserve" transform="translate(151.92 107.5833)" fill="#111">    core-js/structured-clone</text>
<text dominant-baseline="central" text-anchor="end" style="font-size:12px;font-family:sans-serif;" xml:space="preserve" transform="translate(151.92 79.1944)" fill="#111">    lodash.cloneDeep</text>
<text dominant-baseline="central" text-anchor="middle" style="font-size:12px;font-family:sans-serif;" y="6" transform="translate(155.92 584)" fill="#111">0</text>
<text dominant-baseline="central" text-anchor="middle" style="font-size:12px;font-family:sans-serif;" y="6" transform="translate(249.36 584)" fill="#111">50.0k</text>
<text dominant-baseline="central" text-anchor="middle" style="font-size:12px;font-family:sans-serif;" y="6" transform="translate(342.8 584)" fill="#111">100.0k</text>
<text dominant-baseline="central" text-anchor="middle" style="font-size:12px;font-family:sans-serif;" y="6" transform="translate(436.24 584)" fill="#111">150.0k</text>
<text dominant-baseline="central" text-anchor="middle" style="font-size:12px;font-family:sans-serif;" y="6" transform="translate(529.68 584)" fill="#111">200.0k</text>
<text dominant-baseline="central" text-anchor="middle" style="font-size:12px;font-family:sans-serif;" y="6" transform="translate(623.12 584)" fill="#111">250.0k</text>
<text dominant-baseline="central" text-anchor="middle" style="font-size:12px;font-family:sans-serif;" y="6" transform="translate(716.56 584)" fill="#111">300.0k</text>
<text dominant-baseline="central" text-anchor="middle" style="font-size:12px;font-family:sans-serif;" y="6" transform="translate(810 584)" fill="#111">350.0k</text>
<path d="M155.9 552l581.4 0l0 19.6l-581.4 0Z" fill="#4F46E5" ecmeta_series_index="0" ecmeta_data_index="0" ecmeta_ssr_type="chart" class="zr4-cls-9"></path>
<path d="M155.9 523.6l561.3 0l0 19.6l-561.3 0Z" fill="#4F46E5" ecmeta_series_index="0" ecmeta_data_index="1" ecmeta_ssr_type="chart" class="zr4-cls-9"></path>
<path d="M155.9 495.2l481.3 0l0 19.6l-481.3 0Z" fill="#4F46E5" ecmeta_series_index="0" ecmeta_data_index="2" ecmeta_ssr_type="chart" class="zr4-cls-9"></path>
<path d="M155.9 466.8l334.2 0l0 19.6l-334.2 0Z" fill="#4F46E5" ecmeta_series_index="0" ecmeta_data_index="3" ecmeta_ssr_type="chart" class="zr4-cls-9"></path>
<path d="M155.9 438.5l307.8 0l0 19.6l-307.8 0Z" fill="#4F46E5" ecmeta_series_index="0" ecmeta_data_index="4" ecmeta_ssr_type="chart" class="zr4-cls-9"></path>
<path d="M155.9 410.1l274 0l0 19.6l-274 0Z" fill="#4F46E5" ecmeta_series_index="0" ecmeta_data_index="5" ecmeta_ssr_type="chart" class="zr4-cls-9"></path>
<path d="M155.9 381.7l247.2 0l0 19.6l-247.2 0Z" fill="#4F46E5" ecmeta_series_index="0" ecmeta_data_index="6" ecmeta_ssr_type="chart" class="zr4-cls-9"></path>
<path d="M155.9 353.3l246 0l0 19.6l-246 0Z" fill="#4F46E5" ecmeta_series_index="0" ecmeta_data_index="7" ecmeta_ssr_type="chart" class="zr4-cls-9"></path>
<path d="M155.9 324.9l244.5 0l0 19.6l-244.5 0Z" fill="#4F46E5" ecmeta_series_index="0" ecmeta_data_index="8" ecmeta_ssr_type="chart" class="zr4-cls-9"></path>
<path d="M155.9 296.5l159.1 0l0 19.6l-159.1 0Z" fill="#4F46E5" ecmeta_series_index="0" ecmeta_data_index="9" ecmeta_ssr_type="chart" class="zr4-cls-9"></path>
<path d="M155.9 268.1l145.7 0l0 19.6l-145.7 0Z" fill="#4F46E5" ecmeta_series_index="0" ecmeta_data_index="10" ecmeta_ssr_type="chart" class="zr4-cls-9"></path>
<path d="M155.9 239.7l132.3 0l0 19.6l-132.3 0Z" fill="#4F46E5" ecmeta_series_index="0" ecmeta_data_index="11" ecmeta_ssr_type="chart" class="zr4-cls-9"></path>
<path d="M155.9 211.3l128.6 0l0 19.6l-128.6 0Z" fill="#4F46E5" ecmeta_series_index="0" ecmeta_data_index="12" ecmeta_ssr_type="chart" class="zr4-cls-9"></path>
<path d="M155.9 183l127.7 0l0 19.6l-127.7 0Z" fill="#4F46E5" ecmeta_series_index="0" ecmeta_data_index="13" ecmeta_ssr_type="chart" class="zr4-cls-9"></path>
<path d="M155.9 154.6l110.4 0l0 19.6l-110.4 0Z" fill="#4F46E5" ecmeta_series_index="0" ecmeta_data_index="14" ecmeta_ssr_type="chart" class="zr4-cls-9"></path>
<path d="M155.9 126.2l94.2 0l0 19.6l-94.2 0Z" fill="#4F46E5" ecmeta_series_index="0" ecmeta_data_index="15" ecmeta_ssr_type="chart" class="zr4-cls-9"></path>
<path d="M155.9 97.8l75.8 0l0 19.6l-75.8 0Z" fill="#4F46E5" ecmeta_series_index="0" ecmeta_data_index="16" ecmeta_ssr_type="chart" class="zr4-cls-9"></path>
<path d="M155.9 69.4l63.1 0l0 19.6l-63.1 0Z" fill="#4F46E5" ecmeta_series_index="0" ecmeta_data_index="17" ecmeta_ssr_type="chart" class="zr4-cls-9"></path>
<path d="M-97.7 -5l195.4 0l0 28l-195.4 0Z" transform="translate(450 20)" fill="rgb(0,0,0)" fill-opacity="0" stroke="#3c3c41" stroke-width="0" class="zr4-cls-8"></path>
<text dominant-baseline="central" text-anchor="middle" style="font-size:18px;font-family:sans-serif;font-weight:bold;" xml:space="preserve" y="9" transform="translate(450 20)" fill="#3c3c41">regexp • small (ops/s)</text>
<style ><![CDATA[
.zr4-cls-8:hover {
pointer-events:none;
}
.zr4-cls-9:hover {
cursor:pointer;
fill:rgba(86,77,251,1);
}

]]>

</style>
</svg>