<svg width="900" height="376" xmlns="http://www.w3.org/2000/svg" xmlns:xlink="http://www.w3.org/1999/xlink" version="1.1" baseProfile="full" viewBox="0 0 900 376">
<rect width="900" height="376" x="0" y="0" fill="#ffffff"></rect>
<path d="M156.5 65L156.5 296" fill="none" pointer-events="visible" stroke="#dbdee4" class="zr10-cls-20"></path>
<path d="M265.5 65L265.5 296" fill="none" pointer-events="visible" stroke="#dbdee4" class="zr10-cls-20"></path>
<path d="M374.5 65L374.5 296" fill="none" pointer-events="visible" stroke="#dbdee4" class="zr10-cls-20"></path>
<path d="M483.5 65L483.5 296" fill="none" pointer-events="visible" stroke="#dbdee4" class="zr10-cls-20"></path>
<path d="M592.5 65L592.5 296" fill="none" pointer-events="visible" stroke="#dbdee4" class="zr10-cls-20"></path>
<path d="M701.5 65L701.5 296" fill="none" pointer-events="visible" stroke="#dbdee4" class="zr10-cls-20"></path>
<path d="M810.5 65L810.5 296" fill="none" pointer-events="visible" stroke="#dbdee4" class="zr10-cls-20"></path>
<path d="M156.5 296L156.5 65" fill="none" pointer-events="visible" stroke="#999" stroke-linecap="round" class="zr10-cls-20"></path>
<text dominant-baseline="central" text-anchor="end" style="font-size:12px;font-family:Microsoft YaHei;" xml:space="preserve" transform="translate(151.92 281.5625)" fill="#111">    rfdc(with ArrayBuffer)</text>
<text dominant-baseline="central" text-anchor="end" style="font-size:12px;font-family:Microsoft YaHei;" xml:space="preserve" transform="translate(151.92 252.6875)" fill="#111">    nano-copy</text>
<text dominant-baseline="central" text-anchor="end" style="font-size:12px;font-family:Microsoft YaHei;" xml:space="preserve" transform="translate(151.92 223.8125)" fill="#111">    klona</text>
<text dominant-baseline="central" text-anchor="end" style="font-size:12px;font-family:Microsoft YaHei;" xml:space="preserve" transform="translate(151.92 194.9375)" fill="#111">    structuredClone</text>
<text dominant-baseline="central" text-anchor="end" style="font-size:12px;font-family:Microsoft YaHei;" xml:space="preserve" transform="translate(151.92 166.0625)" fill="#111">    @ungap/structured-clone</text>
<text dominant-baseline="central" text-anchor="end" style="font-size:12px;font-family:Microsoft YaHei;" xml:space="preserve" transform="translate(151.92 137.1875)" fill="#111">    fast-copy</text>
<text dominant-baseline="central" text-anchor="end" style="font-size:12px;font-family:Microsoft YaHei;" xml:space="preserve" transform="translate(151.92 108.3125)" fill="#111">    core-js/structured-clone</text>
<text dominant-baseline="central" text-anchor="end" style="font-size:12px;font-family:Microsoft YaHei;" xml:space="preserve" transform="translate(151.92 79.4375)" fill="#111">    es-toolkit.cloneDeep</text>
<text dominant-baseline="central" text-anchor="middle" style="font-size:12px;font-family:Microsoft YaHei;" y="6" transform="translate(155.92 304)" fill="#111">0</text>
<text dominant-baseline="central" text-anchor="middle" style="font-size:12px;font-family:Microsoft YaHei;" y="6" transform="translate(264.9333 304)" fill="#111">10.0k</text>
<text dominant-baseline="central" text-anchor="middle" style="font-size:12px;font-family:Microsoft YaHei;" y="6" transform="translate(373.9467 304)" fill="#111">20.0k</text>
<text dominant-baseline="central" text-anchor="middle" style="font-size:12px;font-family:Microsoft YaHei;" y="6" transform="translate(482.96 304)" fill="#111">30.0k</text>
<text dominant-baseline="central" text-anchor="middle" style="font-size:12px;font-family:Microsoft YaHei;" y="6" transform="translate(591.9733 304)" fill="#111">40.0k</text>
<text dominant-baseline="central" text-anchor="middle" style="font-size:12px;font-family:Microsoft YaHei;" y="6" transform="translate(700.9867 304)" fill="#111">50.0k</text>
<text dominant-baseline="central" text-anchor="middle" style="font-size:12px;font-family:Microsoft YaHei;" y="6" transform="translate(810 304)" fill="#111">60.0k</text>
<path d="M155.9 271.6l548.6 0l0 19.9l-548.6 0Z" fill="#4F46E5" ecmeta_series_index="0" ecmeta_data_index="0" ecmeta_ssr_type="chart" class="zr10-cls-21"></path>
<path d="M155.9 242.7l524.7 0l0 19.9l-524.7 0Z" fill="#4F46E5" ecmeta_series_index="0" ecmeta_data_index="1" ecmeta_ssr_type="chart" class="zr10-cls-21"></path>
<path d="M155.9 213.9l509.5 0l0 19.9l-509.5 0Z" fill="#4F46E5" ecmeta_series_index="0" ecmeta_data_index="2" ecmeta_ssr_type="chart" class="zr10-cls-21"></path>
<path d="M155.9 185l441.1 0l0 19.9l-441.1 0Z" fill="#4F46E5" ecmeta_series_index="0" ecmeta_data_index="3" ecmeta_ssr_type="chart" class="zr10-cls-21"></path>
<path d="M155.9 156.1l440.4 0l0 19.9l-440.4 0Z" fill="#4F46E5" ecmeta_series_index="0" ecmeta_data_index="4" ecmeta_ssr_type="chart" class="zr10-cls-21"></path>
<path d="M155.9 127.2l431.4 0l0 19.9l-431.4 0Z" fill="#4F46E5" ecmeta_series_index="0" ecmeta_data_index="5" ecmeta_ssr_type="chart" class="zr10-cls-21"></path>
<path d="M155.9 98.4l367.7 0l0 19.9l-367.7 0Z" fill="#4F46E5" ecmeta_series_index="0" ecmeta_data_index="6" ecmeta_ssr_type="chart" class="zr10-cls-21"></path>
<path d="M155.9 69.5l311.5 0l0 19.9l-311.5 0Z" fill="#4F46E5" ecmeta_series_index="0" ecmeta_data_index="7" ecmeta_ssr_type="chart" class="zr10-cls-21"></path>
<path d="M-116.7 -5l233.4 0l0 28l-233.4 0Z" transform="translate(450 20)" fill="rgb(0,0,0)" fill-opacity="0" stroke="#3c3c41" stroke-width="0" class="zr10-cls-20"></path>
<text dominant-baseline="central" text-anchor="middle" style="font-size:18px;font-family:Microsoft YaHei;font-weight:bold;" xml:space="preserve" y="9" transform="translate(450 20)" fill="#3c3c41">array-buffer • small (ops/s)</text>
<style ><![CDATA[
.zr10-cls-20:hover {
pointer-events:none;
}
.zr10-cls-21:hover {
cursor:pointer;
fill:rgba(86,77,251,1);
}

]]>

</style>
</svg>