<svg width="900" height="656" xmlns="http://www.w3.org/2000/svg" xmlns:xlink="http://www.w3.org/1999/xlink" version="1.1" baseProfile="full" viewBox="0 0 900 656">
<rect width="900" height="656" x="0" y="0" fill="#ffffff"></rect>
<path d="M149.5 65L149.5 576" fill="none" pointer-events="visible" stroke="#dbdee4" class="zr7-cls-14"></path>
<path d="M259.5 65L259.5 576" fill="none" pointer-events="visible" stroke="#dbdee4" class="zr7-cls-14"></path>
<path d="M369.5 65L369.5 576" fill="none" pointer-events="visible" stroke="#dbdee4" class="zr7-cls-14"></path>
<path d="M479.5 65L479.5 576" fill="none" pointer-events="visible" stroke="#dbdee4" class="zr7-cls-14"></path>
<path d="M589.5 65L589.5 576" fill="none" pointer-events="visible" stroke="#dbdee4" class="zr7-cls-14"></path>
<path d="M700.5 65L700.5 576" fill="none" pointer-events="visible" stroke="#dbdee4" class="zr7-cls-14"></path>
<path d="M810.5 65L810.5 576" fill="none" pointer-events="visible" stroke="#dbdee4" class="zr7-cls-14"></path>
<path d="M149.5 576L149.5 65" fill="none" pointer-events="visible" stroke="#999" stroke-linecap="round" class="zr7-cls-14"></path>
<text dominant-baseline="central" text-anchor="end" style="font-size:12px;font-family:Microsoft YaHei;" xml:space="preserve" transform="translate(145.2 561.8056)" fill="#111">  nanoclone</text>
<text dominant-baseline="central" text-anchor="end" style="font-size:12px;font-family:Microsoft YaHei;" xml:space="preserve" transform="translate(145.2 533.4167)" fill="#111">  es-toolkit.cloneDeep</text>
<text dominant-baseline="central" text-anchor="end" style="font-size:12px;font-family:Microsoft YaHei;" xml:space="preserve" transform="translate(145.2 505.0278)" fill="#111">  nano-copy</text>
<text dominant-baseline="central" text-anchor="end" style="font-size:12px;font-family:Microsoft YaHei;" xml:space="preserve" transform="translate(145.2 476.6389)" fill="#111">  fast-copy</text>
<text dominant-baseline="central" text-anchor="end" style="font-size:12px;font-family:Microsoft YaHei;" xml:space="preserve" transform="translate(145.2 448.25)" fill="#111">  @ungap/structured-clone</text>
<text dominant-baseline="central" text-anchor="end" style="font-size:12px;font-family:Microsoft YaHei;" xml:space="preserve" transform="translate(145.2 419.8611)" fill="#111">  structuredClone</text>
<text dominant-baseline="central" text-anchor="end" style="font-size:12px;font-family:Microsoft YaHei;" xml:space="preserve" transform="translate(145.2 391.4722)" fill="#111">  deepcopy</text>
<text dominant-baseline="central" text-anchor="end" style="font-size:12px;font-family:Microsoft YaHei;" xml:space="preserve" transform="translate(145.2 363.0833)" fill="#111">  lodash.cloneDeep</text>
<text dominant-baseline="central" text-anchor="end" style="font-size:12px;font-family:Microsoft YaHei;" xml:space="preserve" transform="translate(145.2 334.6944)" fill="#111">  rfdc</text>
<text dominant-baseline="central" text-anchor="end" style="font-size:12px;font-family:Microsoft YaHei;" xml:space="preserve" transform="translate(145.2 306.3056)" fill="#111">  rfdc(circles)</text>
<text dominant-baseline="central" text-anchor="end" style="font-size:12px;font-family:Microsoft YaHei;" xml:space="preserve" transform="translate(145.2 277.9167)" fill="#111">  clone(circular)</text>
<text dominant-baseline="central" text-anchor="end" style="font-size:12px;font-family:Microsoft YaHei;" xml:space="preserve" transform="translate(145.2 249.5278)" fill="#111">  ramda.clone</text>
<text dominant-baseline="central" text-anchor="end" style="font-size:12px;font-family:Microsoft YaHei;" xml:space="preserve" transform="translate(145.2 221.1389)" fill="#111">  klona/lite</text>
<text dominant-baseline="central" text-anchor="end" style="font-size:12px;font-family:Microsoft YaHei;" xml:space="preserve" transform="translate(145.2 192.75)" fill="#111">  klona</text>
<text dominant-baseline="central" text-anchor="end" style="font-size:12px;font-family:Microsoft YaHei;" xml:space="preserve" transform="translate(145.2 164.3611)" fill="#111">  just-clone</text>
<text dominant-baseline="central" text-anchor="end" style="font-size:12px;font-family:Microsoft YaHei;" xml:space="preserve" transform="translate(145.2 135.9722)" fill="#111">  core-js/structured-clone</text>
<text dominant-baseline="central" text-anchor="end" style="font-size:12px;font-family:Microsoft YaHei;" xml:space="preserve" transform="translate(145.2 107.5833)" fill="#111">  clone-deep</text>
<text dominant-baseline="central" text-anchor="end" style="font-size:12px;font-family:Microsoft YaHei;" xml:space="preserve" transform="translate(145.2 79.1944)" fill="#111">  clone</text>
<text dominant-baseline="central" text-anchor="middle" style="font-size:12px;font-family:Microsoft YaHei;" y="6" transform="translate(149.2 584)" fill="#111">0</text>
<text dominant-baseline="central" text-anchor="middle" style="font-size:12px;font-family:Microsoft YaHei;" y="6" transform="translate(259.3333 584)" fill="#111">5.0k</text>
<text dominant-baseline="central" text-anchor="middle" style="font-size:12px;font-family:Microsoft YaHei;" y="6" transform="translate(369.4667 584)" fill="#111">10.0k</text>
<text dominant-baseline="central" text-anchor="middle" style="font-size:12px;font-family:Microsoft YaHei;" y="6" transform="translate(479.6 584)" fill="#111">15.0k</text>
<text dominant-baseline="central" text-anchor="middle" style="font-size:12px;font-family:Microsoft YaHei;" y="6" transform="translate(589.7333 584)" fill="#111">20.0k</text>
<text dominant-baseline="central" text-anchor="middle" style="font-size:12px;font-family:Microsoft YaHei;" y="6" transform="translate(699.8667 584)" fill="#111">25.0k</text>
<text dominant-baseline="central" text-anchor="middle" style="font-size:12px;font-family:Microsoft YaHei;" y="6" transform="translate(810 584)" fill="#111">30.0k</text>
<path d="M149.2 552l623.4 0l0 19.6l-623.4 0Z" fill="#4F46E5" ecmeta_series_index="0" ecmeta_data_index="0" ecmeta_ssr_type="chart" class="zr7-cls-15"></path>
<path d="M149.2 523.6l445.7 0l0 19.6l-445.7 0Z" fill="#4F46E5" ecmeta_series_index="0" ecmeta_data_index="1" ecmeta_ssr_type="chart" class="zr7-cls-15"></path>
<path d="M149.2 495.2l422 0l0 19.6l-422 0Z" fill="#4F46E5" ecmeta_series_index="0" ecmeta_data_index="2" ecmeta_ssr_type="chart" class="zr7-cls-15"></path>
<path d="M149.2 466.8l346.1 0l0 19.6l-346.1 0Z" fill="#4F46E5" ecmeta_series_index="0" ecmeta_data_index="3" ecmeta_ssr_type="chart" class="zr7-cls-15"></path>
<path d="M149.2 438.5l332.8 0l0 19.6l-332.8 0Z" fill="#4F46E5" ecmeta_series_index="0" ecmeta_data_index="4" ecmeta_ssr_type="chart" class="zr7-cls-15"></path>
<path d="M149.2 410.1l332.4 0l0 19.6l-332.4 0Z" fill="#4F46E5" ecmeta_series_index="0" ecmeta_data_index="5" ecmeta_ssr_type="chart" class="zr7-cls-15"></path>
<path d="M149.2 381.7l143.5 0l0 19.6l-143.5 0Z" fill="#4F46E5" ecmeta_series_index="0" ecmeta_data_index="6" ecmeta_ssr_type="chart" class="zr7-cls-15"></path>
<path d="M149.2 353.3l109.8 0l0 19.6l-109.8 0Z" fill="#4F46E5" ecmeta_series_index="0" ecmeta_data_index="7" ecmeta_ssr_type="chart" class="zr7-cls-15"></path>
<path d="M149.2 324.9l87.1 0l0 19.6l-87.1 0Z" fill="#4F46E5" ecmeta_series_index="0" ecmeta_data_index="8" ecmeta_ssr_type="chart" class="zr7-cls-15"></path>
<path d="M149.2 296.5l83.6 0l0 19.6l-83.6 0Z" fill="#4F46E5" ecmeta_series_index="0" ecmeta_data_index="9" ecmeta_ssr_type="chart" class="zr7-cls-15"></path>
<path d="M149.2 268.1l75.2 0l0 19.6l-75.2 0Z" fill="#4F46E5" ecmeta_series_index="0" ecmeta_data_index="10" ecmeta_ssr_type="chart" class="zr7-cls-15"></path>
<path d="M149.2 239.7l72.7 0l0 19.6l-72.7 0Z" fill="#4F46E5" ecmeta_series_index="0" ecmeta_data_index="11" ecmeta_ssr_type="chart" class="zr7-cls-15"></path>
<path d="M149.2 211.3l65.9 0l0 19.6l-65.9 0Z" fill="#4F46E5" ecmeta_series_index="0" ecmeta_data_index="12" ecmeta_ssr_type="chart" class="zr7-cls-15"></path>
<path d="M149.2 183l63.5 0l0 19.6l-63.5 0Z" fill="#4F46E5" ecmeta_series_index="0" ecmeta_data_index="13" ecmeta_ssr_type="chart" class="zr7-cls-15"></path>
<path d="M149.2 154.6l53.2 0l0 19.6l-53.2 0Z" fill="#4F46E5" ecmeta_series_index="0" ecmeta_data_index="14" ecmeta_ssr_type="chart" class="zr7-cls-15"></path>
<path d="M149.2 126.2l47.6 0l0 19.6l-47.6 0Z" fill="#4F46E5" ecmeta_series_index="0" ecmeta_data_index="15" ecmeta_ssr_type="chart" class="zr7-cls-15"></path>
<path d="M149.2 97.8l29.8 0l0 19.6l-29.8 0Z" fill="#4F46E5" ecmeta_series_index="0" ecmeta_data_index="16" ecmeta_ssr_type="chart" class="zr7-cls-15"></path>
<path d="M149.2 69.4l10.3 0l0 19.6l-10.3 0Z" fill="#4F46E5" ecmeta_series_index="0" ecmeta_data_index="17" ecmeta_ssr_type="chart" class="zr7-cls-15"></path>
<path d="M-86.8 -5l173.6 0l0 28l-173.6 0Z" transform="translate(450 20)" fill="rgb(0,0,0)" fill-opacity="0" stroke="#3c3c41" stroke-width="0" class="zr7-cls-14"></path>
<text dominant-baseline="central" text-anchor="middle" style="font-size:18px;font-family:Microsoft YaHei;font-weight:bold;" xml:space="preserve" y="9" transform="translate(450 20)" fill="#3c3c41">date • large (ops/s)</text>
<style ><![CDATA[
.zr7-cls-14:hover {
pointer-events:none;
}
.zr7-cls-15:hover {
cursor:pointer;
fill:rgba(86,77,251,1);
}

]]>

</style>
</svg>