<svg width="900" height="684" xmlns="http://www.w3.org/2000/svg" xmlns:xlink="http://www.w3.org/1999/xlink" version="1.1" baseProfile="full" viewBox="0 0 900 684">
<rect width="900" height="684" x="0" y="0" fill="#ffffff"></rect>
<path d="M156.5 65L156.5 604" fill="none" pointer-events="visible" stroke="#dbdee4" class="zr7-cls-14"></path>
<path d="M265.5 65L265.5 604" fill="none" pointer-events="visible" stroke="#dbdee4" class="zr7-cls-14"></path>
<path d="M374.5 65L374.5 604" fill="none" pointer-events="visible" stroke="#dbdee4" class="zr7-cls-14"></path>
<path d="M483.5 65L483.5 604" fill="none" pointer-events="visible" stroke="#dbdee4" class="zr7-cls-14"></path>
<path d="M592.5 65L592.5 604" fill="none" pointer-events="visible" stroke="#dbdee4" class="zr7-cls-14"></path>
<path d="M701.5 65L701.5 604" fill="none" pointer-events="visible" stroke="#dbdee4" class="zr7-cls-14"></path>
<path d="M810.5 65L810.5 604" fill="none" pointer-events="visible" stroke="#dbdee4" class="zr7-cls-14"></path>
<path d="M156.5 604L156.5 65" fill="none" pointer-events="visible" stroke="#999" stroke-linecap="round" class="zr7-cls-14"></path>
<text dominant-baseline="central" text-anchor="end" style="font-size:12px;font-family:Microsoft YaHei;" xml:space="preserve" transform="translate(151.92 589.8158)" fill="#111">    nanoclone</text>
<text dominant-baseline="central" text-anchor="end" style="font-size:12px;font-family:Microsoft YaHei;" xml:space="preserve" transform="translate(151.92 561.4474)" fill="#111">    es-toolkit.cloneDeep</text>
<text dominant-baseline="central" text-anchor="end" style="font-size:12px;font-family:Microsoft YaHei;" xml:space="preserve" transform="translate(151.92 533.0789)" fill="#111">    nano-copy</text>
<text dominant-baseline="central" text-anchor="end" style="font-size:12px;font-family:Microsoft YaHei;" xml:space="preserve" transform="translate(151.92 504.7105)" fill="#111">    fast-copy</text>
<text dominant-baseline="central" text-anchor="end" style="font-size:12px;font-family:Microsoft YaHei;" xml:space="preserve" transform="translate(151.92 476.3421)" fill="#111">    structuredClone</text>
<text dominant-baseline="central" text-anchor="end" style="font-size:12px;font-family:Microsoft YaHei;" xml:space="preserve" transform="translate(151.92 447.9737)" fill="#111">    @ungap/structured-clone</text>
<text dominant-baseline="central" text-anchor="end" style="font-size:12px;font-family:Microsoft YaHei;" xml:space="preserve" transform="translate(151.92 419.6053)" fill="#111">    deepcopy</text>
<text dominant-baseline="central" text-anchor="end" style="font-size:12px;font-family:Microsoft YaHei;" xml:space="preserve" transform="translate(151.92 391.2368)" fill="#111">    jsondiffpatch.clone</text>
<text dominant-baseline="central" text-anchor="end" style="font-size:12px;font-family:Microsoft YaHei;" xml:space="preserve" transform="translate(151.92 362.8684)" fill="#111">    lodash.cloneDeep</text>
<text dominant-baseline="central" text-anchor="end" style="font-size:12px;font-family:Microsoft YaHei;" xml:space="preserve" transform="translate(151.92 334.5)" fill="#111">    rfdc</text>
<text dominant-baseline="central" text-anchor="end" style="font-size:12px;font-family:Microsoft YaHei;" xml:space="preserve" transform="translate(151.92 306.1316)" fill="#111">    rfdc(circles)</text>
<text dominant-baseline="central" text-anchor="end" style="font-size:12px;font-family:Microsoft YaHei;" xml:space="preserve" transform="translate(151.92 277.7632)" fill="#111">    clone(circular)</text>
<text dominant-baseline="central" text-anchor="end" style="font-size:12px;font-family:Microsoft YaHei;" xml:space="preserve" transform="translate(151.92 249.3947)" fill="#111">    ramda.clone</text>
<text dominant-baseline="central" text-anchor="end" style="font-size:12px;font-family:Microsoft YaHei;" xml:space="preserve" transform="translate(151.92 221.0263)" fill="#111">    klona/lite</text>
<text dominant-baseline="central" text-anchor="end" style="font-size:12px;font-family:Microsoft YaHei;" xml:space="preserve" transform="translate(151.92 192.6579)" fill="#111">    klona</text>
<text dominant-baseline="central" text-anchor="end" style="font-size:12px;font-family:Microsoft YaHei;" xml:space="preserve" transform="translate(151.92 164.2895)" fill="#111">    just-clone</text>
<text dominant-baseline="central" text-anchor="end" style="font-size:12px;font-family:Microsoft YaHei;" xml:space="preserve" transform="translate(151.92 135.9211)" fill="#111">    core-js/structured-clone</text>
<text dominant-baseline="central" text-anchor="end" style="font-size:12px;font-family:Microsoft YaHei;" xml:space="preserve" transform="translate(151.92 107.5526)" fill="#111">    clone-deep</text>
<text dominant-baseline="central" text-anchor="end" style="font-size:12px;font-family:Microsoft YaHei;" xml:space="preserve" transform="translate(151.92 79.1842)" fill="#111">    clone</text>
<text dominant-baseline="central" text-anchor="middle" style="font-size:12px;font-family:Microsoft YaHei;" y="6" transform="translate(155.92 612)" fill="#111">0</text>
<text dominant-baseline="central" text-anchor="middle" style="font-size:12px;font-family:Microsoft YaHei;" y="6" transform="translate(264.9333 612)" fill="#111">5.0k</text>
<text dominant-baseline="central" text-anchor="middle" style="font-size:12px;font-family:Microsoft YaHei;" y="6" transform="translate(373.9467 612)" fill="#111">10.0k</text>
<text dominant-baseline="central" text-anchor="middle" style="font-size:12px;font-family:Microsoft YaHei;" y="6" transform="translate(482.96 612)" fill="#111">15.0k</text>
<text dominant-baseline="central" text-anchor="middle" style="font-size:12px;font-family:Microsoft YaHei;" y="6" transform="translate(591.9733 612)" fill="#111">20.0k</text>
<text dominant-baseline="central" text-anchor="middle" style="font-size:12px;font-family:Microsoft YaHei;" y="6" transform="translate(700.9867 612)" fill="#111">25.0k</text>
<text dominant-baseline="central" text-anchor="middle" style="font-size:12px;font-family:Microsoft YaHei;" y="6" transform="translate(810 612)" fill="#111">30.0k</text>
<path d="M155.9 580l594.7 0l0 19.6l-594.7 0Z" fill="#4F46E5" ecmeta_series_index="0" ecmeta_data_index="0" ecmeta_ssr_type="chart" class="zr7-cls-15"></path>
<path d="M155.9 551.7l428.1 0l0 19.6l-428.1 0Z" fill="#4F46E5" ecmeta_series_index="0" ecmeta_data_index="1" ecmeta_ssr_type="chart" class="zr7-cls-15"></path>
<path d="M155.9 523.3l418.2 0l0 19.6l-418.2 0Z" fill="#4F46E5" ecmeta_series_index="0" ecmeta_data_index="2" ecmeta_ssr_type="chart" class="zr7-cls-15"></path>
<path d="M155.9 494.9l337.3 0l0 19.6l-337.3 0Z" fill="#4F46E5" ecmeta_series_index="0" ecmeta_data_index="3" ecmeta_ssr_type="chart" class="zr7-cls-15"></path>
<path d="M155.9 466.6l317.9 0l0 19.6l-317.9 0Z" fill="#4F46E5" ecmeta_series_index="0" ecmeta_data_index="4" ecmeta_ssr_type="chart" class="zr7-cls-15"></path>
<path d="M155.9 438.2l316 0l0 19.6l-316 0Z" fill="#4F46E5" ecmeta_series_index="0" ecmeta_data_index="5" ecmeta_ssr_type="chart" class="zr7-cls-15"></path>
<path d="M155.9 409.8l138.1 0l0 19.6l-138.1 0Z" fill="#4F46E5" ecmeta_series_index="0" ecmeta_data_index="6" ecmeta_ssr_type="chart" class="zr7-cls-15"></path>
<path d="M155.9 381.4l128.1 0l0 19.6l-128.1 0Z" fill="#4F46E5" ecmeta_series_index="0" ecmeta_data_index="7" ecmeta_ssr_type="chart" class="zr7-cls-15"></path>
<path d="M155.9 353.1l100.6 0l0 19.6l-100.6 0Z" fill="#4F46E5" ecmeta_series_index="0" ecmeta_data_index="8" ecmeta_ssr_type="chart" class="zr7-cls-15"></path>
<path d="M155.9 324.7l86.6 0l0 19.6l-86.6 0Z" fill="#4F46E5" ecmeta_series_index="0" ecmeta_data_index="9" ecmeta_ssr_type="chart" class="zr7-cls-15"></path>
<path d="M155.9 296.3l77.5 0l0 19.6l-77.5 0Z" fill="#4F46E5" ecmeta_series_index="0" ecmeta_data_index="10" ecmeta_ssr_type="chart" class="zr7-cls-15"></path>
<path d="M155.9 268l71.5 0l0 19.6l-71.5 0Z" fill="#4F46E5" ecmeta_series_index="0" ecmeta_data_index="11" ecmeta_ssr_type="chart" class="zr7-cls-15"></path>
<path d="M155.9 239.6l67.7 0l0 19.6l-67.7 0Z" fill="#4F46E5" ecmeta_series_index="0" ecmeta_data_index="12" ecmeta_ssr_type="chart" class="zr7-cls-15"></path>
<path d="M155.9 211.2l62.1 0l0 19.6l-62.1 0Z" fill="#4F46E5" ecmeta_series_index="0" ecmeta_data_index="13" ecmeta_ssr_type="chart" class="zr7-cls-15"></path>
<path d="M155.9 182.9l59.9 0l0 19.6l-59.9 0Z" fill="#4F46E5" ecmeta_series_index="0" ecmeta_data_index="14" ecmeta_ssr_type="chart" class="zr7-cls-15"></path>
<path d="M155.9 154.5l49.6 0l0 19.6l-49.6 0Z" fill="#4F46E5" ecmeta_series_index="0" ecmeta_data_index="15" ecmeta_ssr_type="chart" class="zr7-cls-15"></path>
<path d="M155.9 126.1l45.2 0l0 19.6l-45.2 0Z" fill="#4F46E5" ecmeta_series_index="0" ecmeta_data_index="16" ecmeta_ssr_type="chart" class="zr7-cls-15"></path>
<path d="M155.9 97.8l28.1 0l0 19.6l-28.1 0Z" fill="#4F46E5" ecmeta_series_index="0" ecmeta_data_index="17" ecmeta_ssr_type="chart" class="zr7-cls-15"></path>
<path d="M155.9 69.4l9.9 0l0 19.6l-9.9 0Z" fill="#4F46E5" ecmeta_series_index="0" ecmeta_data_index="18" ecmeta_ssr_type="chart" class="zr7-cls-15"></path>
<path d="M-86.8 -5l173.6 0l0 28l-173.6 0Z" transform="translate(450 20)" fill="rgb(0,0,0)" fill-opacity="0" stroke="#3c3c41" stroke-width="0" class="zr7-cls-14"></path>
<text dominant-baseline="central" text-anchor="middle" style="font-size:18px;font-family:Microsoft YaHei;font-weight:bold;" xml:space="preserve" y="9" transform="translate(450 20)" fill="#3c3c41">date • large (ops/s)</text>
<style ><![CDATA[
.zr7-cls-14:hover {
pointer-events:none;
}
.zr7-cls-15:hover {
cursor:pointer;
fill:rgba(86,77,251,1);
}

]]>

</style>
</svg>