<svg width="900" height="488" xmlns="http://www.w3.org/2000/svg" xmlns:xlink="http://www.w3.org/1999/xlink" version="1.1" baseProfile="full" viewBox="0 0 900 488">
<rect width="900" height="488" x="0" y="0" fill="#ffffff"></rect>
<path d="M156.5 65L156.5 408" fill="none" pointer-events="visible" stroke="#dbdee4" class="zr3-cls-6"></path>
<path d="M286.5 65L286.5 408" fill="none" pointer-events="visible" stroke="#dbdee4" class="zr3-cls-6"></path>
<path d="M417.5 65L417.5 408" fill="none" pointer-events="visible" stroke="#dbdee4" class="zr3-cls-6"></path>
<path d="M548.5 65L548.5 408" fill="none" pointer-events="visible" stroke="#dbdee4" class="zr3-cls-6"></path>
<path d="M679.5 65L679.5 408" fill="none" pointer-events="visible" stroke="#dbdee4" class="zr3-cls-6"></path>
<path d="M810.5 65L810.5 408" fill="none" pointer-events="visible" stroke="#dbdee4" class="zr3-cls-6"></path>
<path d="M156.5 408L156.5 65" fill="none" pointer-events="visible" stroke="#999" stroke-linecap="round" class="zr3-cls-6"></path>
<text dominant-baseline="central" text-anchor="end" style="font-size:12px;font-family:Microsoft YaHei;" xml:space="preserve" transform="translate(151.92 393.7083)" fill="#111">    rfdc(circles)</text>
<text dominant-baseline="central" text-anchor="end" style="font-size:12px;font-family:Microsoft YaHei;" xml:space="preserve" transform="translate(151.92 365.125)" fill="#111">    nanoclone</text>
<text dominant-baseline="central" text-anchor="end" style="font-size:12px;font-family:Microsoft YaHei;" xml:space="preserve" transform="translate(151.92 336.5417)" fill="#111">    nano-copy</text>
<text dominant-baseline="central" text-anchor="end" style="font-size:12px;font-family:Microsoft YaHei;" xml:space="preserve" transform="translate(151.92 307.9583)" fill="#111">    fast-copy</text>
<text dominant-baseline="central" text-anchor="end" style="font-size:12px;font-family:Microsoft YaHei;" xml:space="preserve" transform="translate(151.92 279.375)" fill="#111">    es-toolkit.cloneDeep</text>
<text dominant-baseline="central" text-anchor="end" style="font-size:12px;font-family:Microsoft YaHei;" xml:space="preserve" transform="translate(151.92 250.7917)" fill="#111">    @ungap/structured-clone</text>
<text dominant-baseline="central" text-anchor="end" style="font-size:12px;font-family:Microsoft YaHei;" xml:space="preserve" transform="translate(151.92 222.2083)" fill="#111">    structuredClone</text>
<text dominant-baseline="central" text-anchor="end" style="font-size:12px;font-family:Microsoft YaHei;" xml:space="preserve" transform="translate(151.92 193.625)" fill="#111">    lodash.cloneDeep</text>
<text dominant-baseline="central" text-anchor="end" style="font-size:12px;font-family:Microsoft YaHei;" xml:space="preserve" transform="translate(151.92 165.0417)" fill="#111">    deepcopy</text>
<text dominant-baseline="central" text-anchor="end" style="font-size:12px;font-family:Microsoft YaHei;" xml:space="preserve" transform="translate(151.92 136.4583)" fill="#111">    core-js/structured-clone</text>
<text dominant-baseline="central" text-anchor="end" style="font-size:12px;font-family:Microsoft YaHei;" xml:space="preserve" transform="translate(151.92 107.875)" fill="#111">    clone(circular)</text>
<text dominant-baseline="central" text-anchor="end" style="font-size:12px;font-family:Microsoft YaHei;" xml:space="preserve" transform="translate(151.92 79.2917)" fill="#111">    ramda.clone</text>
<text dominant-baseline="central" text-anchor="middle" style="font-size:12px;font-family:Microsoft YaHei;" y="6" transform="translate(155.92 416)" fill="#111">0</text>
<text dominant-baseline="central" text-anchor="middle" style="font-size:12px;font-family:Microsoft YaHei;" y="6" transform="translate(264.9333 416)" fill="#111">500</text>
<text dominant-baseline="central" text-anchor="middle" style="font-size:12px;font-family:Microsoft YaHei;" y="6" transform="translate(373.9467 416)" fill="#111">1.0k</text>
<text dominant-baseline="central" text-anchor="middle" style="font-size:12px;font-family:Microsoft YaHei;" y="6" transform="translate(482.96 416)" fill="#111">1.5k</text>
<text dominant-baseline="central" text-anchor="middle" style="font-size:12px;font-family:Microsoft YaHei;" y="6" transform="translate(591.9733 416)" fill="#111">2.0k</text>
<text dominant-baseline="central" text-anchor="middle" style="font-size:12px;font-family:Microsoft YaHei;" y="6" transform="translate(700.9867 416)" fill="#111">2.5k</text>
<text dominant-baseline="central" text-anchor="middle" style="font-size:12px;font-family:Microsoft YaHei;" y="6" transform="translate(810 416)" fill="#111">3.0k</text>
<path d="M155.9 383.8l574.7 0l0 19.7l-574.7 0Z" fill="#4F46E5" ecmeta_series_index="0" ecmeta_data_index="0" ecmeta_ssr_type="chart" class="zr3-cls-7"></path>
<path d="M155.9 355.3l471.6 0l0 19.7l-471.6 0Z" fill="#4F46E5" ecmeta_series_index="0" ecmeta_data_index="1" ecmeta_ssr_type="chart" class="zr3-cls-7"></path>
<path d="M155.9 326.7l414.7 0l0 19.7l-414.7 0Z" fill="#4F46E5" ecmeta_series_index="0" ecmeta_data_index="2" ecmeta_ssr_type="chart" class="zr3-cls-7"></path>
<path d="M155.9 298.1l359.3 0l0 19.7l-359.3 0Z" fill="#4F46E5" ecmeta_series_index="0" ecmeta_data_index="3" ecmeta_ssr_type="chart" class="zr3-cls-7"></path>
<path d="M155.9 269.5l246.8 0l0 19.7l-246.8 0Z" fill="#4F46E5" ecmeta_series_index="0" ecmeta_data_index="4" ecmeta_ssr_type="chart" class="zr3-cls-7"></path>
<path d="M155.9 240.9l159.8 0l0 19.7l-159.8 0Z" fill="#4F46E5" ecmeta_series_index="0" ecmeta_data_index="5" ecmeta_ssr_type="chart" class="zr3-cls-7"></path>
<path d="M155.9 212.3l151.1 0l0 19.7l-151.1 0Z" fill="#4F46E5" ecmeta_series_index="0" ecmeta_data_index="6" ecmeta_ssr_type="chart" class="zr3-cls-7"></path>
<path d="M155.9 183.8l133 0l0 19.7l-133 0Z" fill="#4F46E5" ecmeta_series_index="0" ecmeta_data_index="7" ecmeta_ssr_type="chart" class="zr3-cls-7"></path>
<path d="M155.9 155.2l78.3 0l0 19.7l-78.3 0Z" fill="#4F46E5" ecmeta_series_index="0" ecmeta_data_index="8" ecmeta_ssr_type="chart" class="zr3-cls-7"></path>
<path d="M155.9 126.6l57.1 0l0 19.7l-57.1 0Z" fill="#4F46E5" ecmeta_series_index="0" ecmeta_data_index="9" ecmeta_ssr_type="chart" class="zr3-cls-7"></path>
<path d="M155.9 98l40.1 0l0 19.7l-40.1 0Z" fill="#4F46E5" ecmeta_series_index="0" ecmeta_data_index="10" ecmeta_ssr_type="chart" class="zr3-cls-7"></path>
<path d="M155.9 69.4l15.5 0l0 19.7l-15.5 0Z" fill="#4F46E5" ecmeta_series_index="0" ecmeta_data_index="11" ecmeta_ssr_type="chart" class="zr3-cls-7"></path>
<path d="M-117.7 -5l235.4 0l0 28l-235.4 0Z" transform="translate(450 20)" fill="rgb(0,0,0)" fill-opacity="0" stroke="#3c3c41" stroke-width="0" class="zr3-cls-6"></path>
<text dominant-baseline="central" text-anchor="middle" style="font-size:18px;font-family:Microsoft YaHei;font-weight:bold;" xml:space="preserve" y="9" transform="translate(450 20)" fill="#3c3c41">json-circular • large (ops/s)</text>
<style ><![CDATA[
.zr3-cls-6:hover {
pointer-events:none;
}
.zr3-cls-7:hover {
cursor:pointer;
fill:rgba(86,77,251,1);
}

]]>

</style>
</svg>