<svg width="900" height="628" xmlns="http://www.w3.org/2000/svg" xmlns:xlink="http://www.w3.org/1999/xlink" version="1.1" baseProfile="full" viewBox="0 0 900 628">
<rect width="900" height="628" x="0" y="0" fill="#ffffff"></rect>
<path d="M149.5 65L149.5 548" fill="none" pointer-events="visible" stroke="#dbdee4" class="zr4-cls-8"></path>
<path d="M281.5 65L281.5 548" fill="none" pointer-events="visible" stroke="#dbdee4" class="zr4-cls-8"></path>
<path d="M413.5 65L413.5 548" fill="none" pointer-events="visible" stroke="#dbdee4" class="zr4-cls-8"></path>
<path d="M545.5 65L545.5 548" fill="none" pointer-events="visible" stroke="#dbdee4" class="zr4-cls-8"></path>
<path d="M678.5 65L678.5 548" fill="none" pointer-events="visible" stroke="#dbdee4" class="zr4-cls-8"></path>
<path d="M810.5 65L810.5 548" fill="none" pointer-events="visible" stroke="#dbdee4" class="zr4-cls-8"></path>
<path d="M149.5 548L149.5 65" fill="none" pointer-events="visible" stroke="#999" stroke-linecap="round" class="zr4-cls-8"></path>
<text dominant-baseline="central" text-anchor="end" style="font-size:12px;font-family:Microsoft YaHei;" xml:space="preserve" transform="translate(145.2 533.7941)" fill="#111">  klona/lite</text>
<text dominant-baseline="central" text-anchor="end" style="font-size:12px;font-family:Microsoft YaHei;" xml:space="preserve" transform="translate(145.2 505.3824)" fill="#111">  klona</text>
<text dominant-baseline="central" text-anchor="end" style="font-size:12px;font-family:Microsoft YaHei;" xml:space="preserve" transform="translate(145.2 476.9706)" fill="#111">  rfdc(with RegExp)</text>
<text dominant-baseline="central" text-anchor="end" style="font-size:12px;font-family:Microsoft YaHei;" xml:space="preserve" transform="translate(145.2 448.5588)" fill="#111">  nanoclone</text>
<text dominant-baseline="central" text-anchor="end" style="font-size:12px;font-family:Microsoft YaHei;" xml:space="preserve" transform="translate(145.2 420.1471)" fill="#111">  nano-copy</text>
<text dominant-baseline="central" text-anchor="end" style="font-size:12px;font-family:Microsoft YaHei;" xml:space="preserve" transform="translate(145.2 391.7353)" fill="#111">  fast-copy</text>
<text dominant-baseline="central" text-anchor="end" style="font-size:12px;font-family:Microsoft YaHei;" xml:space="preserve" transform="translate(145.2 363.3235)" fill="#111">  es-toolkit.cloneDeep</text>
<text dominant-baseline="central" text-anchor="end" style="font-size:12px;font-family:Microsoft YaHei;" xml:space="preserve" transform="translate(145.2 334.9118)" fill="#111">  clone-deep</text>
<text dominant-baseline="central" text-anchor="end" style="font-size:12px;font-family:Microsoft YaHei;" xml:space="preserve" transform="translate(145.2 306.5)" fill="#111">  just-clone</text>
<text dominant-baseline="central" text-anchor="end" style="font-size:12px;font-family:Microsoft YaHei;" xml:space="preserve" transform="translate(145.2 278.0882)" fill="#111">  @ungap/structured-clone</text>
<text dominant-baseline="central" text-anchor="end" style="font-size:12px;font-family:Microsoft YaHei;" xml:space="preserve" transform="translate(145.2 249.6765)" fill="#111">  structuredClone</text>
<text dominant-baseline="central" text-anchor="end" style="font-size:12px;font-family:Microsoft YaHei;" xml:space="preserve" transform="translate(145.2 221.2647)" fill="#111">  deepcopy</text>
<text dominant-baseline="central" text-anchor="end" style="font-size:12px;font-family:Microsoft YaHei;" xml:space="preserve" transform="translate(145.2 192.8529)" fill="#111">  clone</text>
<text dominant-baseline="central" text-anchor="end" style="font-size:12px;font-family:Microsoft YaHei;" xml:space="preserve" transform="translate(145.2 164.4412)" fill="#111">  core-js/structured-clone</text>
<text dominant-baseline="central" text-anchor="end" style="font-size:12px;font-family:Microsoft YaHei;" xml:space="preserve" transform="translate(145.2 136.0294)" fill="#111">  clone(circular)</text>
<text dominant-baseline="central" text-anchor="end" style="font-size:12px;font-family:Microsoft YaHei;" xml:space="preserve" transform="translate(145.2 107.6176)" fill="#111">  ramda.clone</text>
<text dominant-baseline="central" text-anchor="end" style="font-size:12px;font-family:Microsoft YaHei;" xml:space="preserve" transform="translate(145.2 79.2059)" fill="#111">  lodash.cloneDeep</text>
<text dominant-baseline="central" text-anchor="middle" style="font-size:12px;font-family:Microsoft YaHei;" y="6" transform="translate(149.2 556)" fill="#111">0</text>
<text dominant-baseline="central" text-anchor="middle" style="font-size:12px;font-family:Microsoft YaHei;" y="6" transform="translate(281.36 556)" fill="#111">100.0k</text>
<text dominant-baseline="central" text-anchor="middle" style="font-size:12px;font-family:Microsoft YaHei;" y="6" transform="translate(413.52 556)" fill="#111">200.0k</text>
<text dominant-baseline="central" text-anchor="middle" style="font-size:12px;font-family:Microsoft YaHei;" y="6" transform="translate(545.68 556)" fill="#111">300.0k</text>
<text dominant-baseline="central" text-anchor="middle" style="font-size:12px;font-family:Microsoft YaHei;" y="6" transform="translate(677.84 556)" fill="#111">400.0k</text>
<text dominant-baseline="central" text-anchor="middle" style="font-size:12px;font-family:Microsoft YaHei;" y="6" transform="translate(810 556)" fill="#111">500.0k</text>
<path d="M149.2 524l563.5 0l0 19.6l-563.5 0Z" fill="#4F46E5" ecmeta_series_index="0" ecmeta_data_index="0" ecmeta_ssr_type="chart" class="zr4-cls-9"></path>
<path d="M149.2 495.6l535.9 0l0 19.6l-535.9 0Z" fill="#4F46E5" ecmeta_series_index="0" ecmeta_data_index="1" ecmeta_ssr_type="chart" class="zr4-cls-9"></path>
<path d="M149.2 467.2l447 0l0 19.6l-447 0Z" fill="#4F46E5" ecmeta_series_index="0" ecmeta_data_index="2" ecmeta_ssr_type="chart" class="zr4-cls-9"></path>
<path d="M149.2 438.8l314.8 0l0 19.6l-314.8 0Z" fill="#4F46E5" ecmeta_series_index="0" ecmeta_data_index="3" ecmeta_ssr_type="chart" class="zr4-cls-9"></path>
<path d="M149.2 410.3l247.1 0l0 19.6l-247.1 0Z" fill="#4F46E5" ecmeta_series_index="0" ecmeta_data_index="4" ecmeta_ssr_type="chart" class="zr4-cls-9"></path>
<path d="M149.2 381.9l223.3 0l0 19.6l-223.3 0Z" fill="#4F46E5" ecmeta_series_index="0" ecmeta_data_index="5" ecmeta_ssr_type="chart" class="zr4-cls-9"></path>
<path d="M149.2 353.5l200.7 0l0 19.6l-200.7 0Z" fill="#4F46E5" ecmeta_series_index="0" ecmeta_data_index="6" ecmeta_ssr_type="chart" class="zr4-cls-9"></path>
<path d="M149.2 325.1l195.2 0l0 19.6l-195.2 0Z" fill="#4F46E5" ecmeta_series_index="0" ecmeta_data_index="7" ecmeta_ssr_type="chart" class="zr4-cls-9"></path>
<path d="M149.2 296.7l136.9 0l0 19.6l-136.9 0Z" fill="#4F46E5" ecmeta_series_index="0" ecmeta_data_index="8" ecmeta_ssr_type="chart" class="zr4-cls-9"></path>
<path d="M149.2 268.3l130.9 0l0 19.6l-130.9 0Z" fill="#4F46E5" ecmeta_series_index="0" ecmeta_data_index="9" ecmeta_ssr_type="chart" class="zr4-cls-9"></path>
<path d="M149.2 239.9l129.6 0l0 19.6l-129.6 0Z" fill="#4F46E5" ecmeta_series_index="0" ecmeta_data_index="10" ecmeta_ssr_type="chart" class="zr4-cls-9"></path>
<path d="M149.2 211.5l79.4 0l0 19.6l-79.4 0Z" fill="#4F46E5" ecmeta_series_index="0" ecmeta_data_index="11" ecmeta_ssr_type="chart" class="zr4-cls-9"></path>
<path d="M149.2 183.1l74.9 0l0 19.6l-74.9 0Z" fill="#4F46E5" ecmeta_series_index="0" ecmeta_data_index="12" ecmeta_ssr_type="chart" class="zr4-cls-9"></path>
<path d="M149.2 154.6l70.4 0l0 19.6l-70.4 0Z" fill="#4F46E5" ecmeta_series_index="0" ecmeta_data_index="13" ecmeta_ssr_type="chart" class="zr4-cls-9"></path>
<path d="M149.2 126.2l64.2 0l0 19.6l-64.2 0Z" fill="#4F46E5" ecmeta_series_index="0" ecmeta_data_index="14" ecmeta_ssr_type="chart" class="zr4-cls-9"></path>
<path d="M149.2 97.8l55.9 0l0 19.6l-55.9 0Z" fill="#4F46E5" ecmeta_series_index="0" ecmeta_data_index="15" ecmeta_ssr_type="chart" class="zr4-cls-9"></path>
<path d="M149.2 69.4l55.2 0l0 19.6l-55.2 0Z" fill="#4F46E5" ecmeta_series_index="0" ecmeta_data_index="16" ecmeta_ssr_type="chart" class="zr4-cls-9"></path>
<path d="M-97.7 -5l195.4 0l0 28l-195.4 0Z" transform="translate(450 20)" fill="rgb(0,0,0)" fill-opacity="0" stroke="#3c3c41" stroke-width="0" class="zr4-cls-8"></path>
<text dominant-baseline="central" text-anchor="middle" style="font-size:18px;font-family:Microsoft YaHei;font-weight:bold;" xml:space="preserve" y="9" transform="translate(450 20)" fill="#3c3c41">regexp • small (ops/s)</text>
<style ><![CDATA[
.zr4-cls-8:hover {
pointer-events:none;
}
.zr4-cls-9:hover {
cursor:pointer;
fill:rgba(86,77,251,1);
}

]]>

</style>
</svg>