<svg width="900" height="432" xmlns="http://www.w3.org/2000/svg" xmlns:xlink="http://www.w3.org/1999/xlink" version="1.1" baseProfile="full" viewBox="0 0 900 432">
<rect width="900" height="432" x="0" y="0" fill="#ffffff"></rect>
<path d="M160.5 65L160.5 352" fill="none" pointer-events="visible" stroke="#dbdee4" class="zr9-cls-18"></path>
<path d="M290.5 65L290.5 352" fill="none" pointer-events="visible" stroke="#dbdee4" class="zr9-cls-18"></path>
<path d="M420.5 65L420.5 352" fill="none" pointer-events="visible" stroke="#dbdee4" class="zr9-cls-18"></path>
<path d="M550.5 65L550.5 352" fill="none" pointer-events="visible" stroke="#dbdee4" class="zr9-cls-18"></path>
<path d="M680.5 65L680.5 352" fill="none" pointer-events="visible" stroke="#dbdee4" class="zr9-cls-18"></path>
<path d="M810.5 65L810.5 352" fill="none" pointer-events="visible" stroke="#dbdee4" class="zr9-cls-18"></path>
<path d="M160.5 352L160.5 65" fill="none" pointer-events="visible" stroke="#999" stroke-linecap="round" class="zr9-cls-18"></path>
<text dominant-baseline="central" text-anchor="end" style="font-size:12px;font-family:Microsoft YaHei;" xml:space="preserve" transform="translate(156.6 337.65)" fill="#111">    rfdc(with Custom Classes)</text>
<text dominant-baseline="central" text-anchor="end" style="font-size:12px;font-family:Microsoft YaHei;" xml:space="preserve" transform="translate(156.6 308.95)" fill="#111">    klona/lite</text>
<text dominant-baseline="central" text-anchor="end" style="font-size:12px;font-family:Microsoft YaHei;" xml:space="preserve" transform="translate(156.6 280.25)" fill="#111">    klona</text>
<text dominant-baseline="central" text-anchor="end" style="font-size:12px;font-family:Microsoft YaHei;" xml:space="preserve" transform="translate(156.6 251.55)" fill="#111">    nano-copy</text>
<text dominant-baseline="central" text-anchor="end" style="font-size:12px;font-family:Microsoft YaHei;" xml:space="preserve" transform="translate(156.6 222.85)" fill="#111">    es-toolkit.cloneDeep</text>
<text dominant-baseline="central" text-anchor="end" style="font-size:12px;font-family:Microsoft YaHei;" xml:space="preserve" transform="translate(156.6 194.15)" fill="#111">    fast-copy</text>
<text dominant-baseline="central" text-anchor="end" style="font-size:12px;font-family:Microsoft YaHei;" xml:space="preserve" transform="translate(156.6 165.45)" fill="#111">    clone</text>
<text dominant-baseline="central" text-anchor="end" style="font-size:12px;font-family:Microsoft YaHei;" xml:space="preserve" transform="translate(156.6 136.75)" fill="#111">    lodash.cloneDeep</text>
<text dominant-baseline="central" text-anchor="end" style="font-size:12px;font-family:Microsoft YaHei;" xml:space="preserve" transform="translate(156.6 108.05)" fill="#111">    clone(circular)</text>
<text dominant-baseline="central" text-anchor="end" style="font-size:12px;font-family:Microsoft YaHei;" xml:space="preserve" transform="translate(156.6 79.35)" fill="#111">    ramda.clone</text>
<text dominant-baseline="central" text-anchor="middle" style="font-size:12px;font-family:Microsoft YaHei;" y="6" transform="translate(160.6 360)" fill="#111">0</text>
<text dominant-baseline="central" text-anchor="middle" style="font-size:12px;font-family:Microsoft YaHei;" y="6" transform="translate(290.48 360)" fill="#111">2.0k</text>
<text dominant-baseline="central" text-anchor="middle" style="font-size:12px;font-family:Microsoft YaHei;" y="6" transform="translate(420.36 360)" fill="#111">4.0k</text>
<text dominant-baseline="central" text-anchor="middle" style="font-size:12px;font-family:Microsoft YaHei;" y="6" transform="translate(550.24 360)" fill="#111">6.0k</text>
<text dominant-baseline="central" text-anchor="middle" style="font-size:12px;font-family:Microsoft YaHei;" y="6" transform="translate(680.12 360)" fill="#111">8.0k</text>
<text dominant-baseline="central" text-anchor="middle" style="font-size:12px;font-family:Microsoft YaHei;" y="6" transform="translate(810 360)" fill="#111">10.0k</text>
<path d="M160.6 327.7l615.6 0l0 19.8l-615.6 0Z" fill="#4F46E5" ecmeta_series_index="0" ecmeta_data_index="0" ecmeta_ssr_type="chart" class="zr9-cls-19"></path>
<path d="M160.6 299l381.6 0l0 19.8l-381.6 0Z" fill="#4F46E5" ecmeta_series_index="0" ecmeta_data_index="1" ecmeta_ssr_type="chart" class="zr9-cls-19"></path>
<path d="M160.6 270.3l375.6 0l0 19.8l-375.6 0Z" fill="#4F46E5" ecmeta_series_index="0" ecmeta_data_index="2" ecmeta_ssr_type="chart" class="zr9-cls-19"></path>
<path d="M160.6 241.6l311.8 0l0 19.8l-311.8 0Z" fill="#4F46E5" ecmeta_series_index="0" ecmeta_data_index="3" ecmeta_ssr_type="chart" class="zr9-cls-19"></path>
<path d="M160.6 212.9l195.6 0l0 19.8l-195.6 0Z" fill="#4F46E5" ecmeta_series_index="0" ecmeta_data_index="4" ecmeta_ssr_type="chart" class="zr9-cls-19"></path>
<path d="M160.6 184.2l180.1 0l0 19.8l-180.1 0Z" fill="#4F46E5" ecmeta_series_index="0" ecmeta_data_index="5" ecmeta_ssr_type="chart" class="zr9-cls-19"></path>
<path d="M160.6 155.5l108.4 0l0 19.8l-108.4 0Z" fill="#4F46E5" ecmeta_series_index="0" ecmeta_data_index="6" ecmeta_ssr_type="chart" class="zr9-cls-19"></path>
<path d="M160.6 126.8l103.4 0l0 19.8l-103.4 0Z" fill="#4F46E5" ecmeta_series_index="0" ecmeta_data_index="7" ecmeta_ssr_type="chart" class="zr9-cls-19"></path>
<path d="M160.6 98.1l63.3 0l0 19.8l-63.3 0Z" fill="#4F46E5" ecmeta_series_index="0" ecmeta_data_index="8" ecmeta_ssr_type="chart" class="zr9-cls-19"></path>
<path d="M160.6 69.4l37.5 0l0 19.8l-37.5 0Z" fill="#4F46E5" ecmeta_series_index="0" ecmeta_data_index="9" ecmeta_ssr_type="chart" class="zr9-cls-19"></path>
<path d="M-121.7 -5l243.5 0l0 28l-243.5 0Z" transform="translate(450 20)" fill="rgb(0,0,0)" fill-opacity="0" stroke="#3c3c41" stroke-width="0" class="zr9-cls-18"></path>
<text dominant-baseline="central" text-anchor="middle" style="font-size:18px;font-family:Microsoft YaHei;font-weight:bold;" xml:space="preserve" y="9" transform="translate(450 20)" fill="#3c3c41">custom-class • large (ops/s)</text>
<style ><![CDATA[
.zr9-cls-18:hover {
pointer-events:none;
}
.zr9-cls-19:hover {
cursor:pointer;
fill:rgba(86,77,251,1);
}

]]>

</style>
</svg>