<svg width="900" height="432" xmlns="http://www.w3.org/2000/svg" xmlns:xlink="http://www.w3.org/1999/xlink" version="1.1" baseProfile="full" viewBox="0 0 900 432">
<rect width="900" height="432" x="0" y="0" fill="#ffffff"></rect>
<path d="M160.5 65L160.5 352" fill="none" pointer-events="visible" stroke="#dbdee4" class="zr8-cls-16"></path>
<path d="M253.5 65L253.5 352" fill="none" pointer-events="visible" stroke="#dbdee4" class="zr8-cls-16"></path>
<path d="M346.5 65L346.5 352" fill="none" pointer-events="visible" stroke="#dbdee4" class="zr8-cls-16"></path>
<path d="M439.5 65L439.5 352" fill="none" pointer-events="visible" stroke="#dbdee4" class="zr8-cls-16"></path>
<path d="M531.5 65L531.5 352" fill="none" pointer-events="visible" stroke="#dbdee4" class="zr8-cls-16"></path>
<path d="M624.5 65L624.5 352" fill="none" pointer-events="visible" stroke="#dbdee4" class="zr8-cls-16"></path>
<path d="M717.5 65L717.5 352" fill="none" pointer-events="visible" stroke="#dbdee4" class="zr8-cls-16"></path>
<path d="M810.5 65L810.5 352" fill="none" pointer-events="visible" stroke="#dbdee4" class="zr8-cls-16"></path>
<path d="M160.5 352L160.5 65" fill="none" pointer-events="visible" stroke="#999" stroke-linecap="round" class="zr8-cls-16"></path>
<text dominant-baseline="central" text-anchor="end" style="font-size:12px;font-family:Microsoft YaHei;" xml:space="preserve" transform="translate(156.6 337.65)" fill="#111">    rfdc(with Custom Classes)</text>
<text dominant-baseline="central" text-anchor="end" style="font-size:12px;font-family:Microsoft YaHei;" xml:space="preserve" transform="translate(156.6 308.95)" fill="#111">    klona</text>
<text dominant-baseline="central" text-anchor="end" style="font-size:12px;font-family:Microsoft YaHei;" xml:space="preserve" transform="translate(156.6 280.25)" fill="#111">    klona/lite</text>
<text dominant-baseline="central" text-anchor="end" style="font-size:12px;font-family:Microsoft YaHei;" xml:space="preserve" transform="translate(156.6 251.55)" fill="#111">    nano-copy</text>
<text dominant-baseline="central" text-anchor="end" style="font-size:12px;font-family:Microsoft YaHei;" xml:space="preserve" transform="translate(156.6 222.85)" fill="#111">    fast-copy</text>
<text dominant-baseline="central" text-anchor="end" style="font-size:12px;font-family:Microsoft YaHei;" xml:space="preserve" transform="translate(156.6 194.15)" fill="#111">    es-toolkit.cloneDeep</text>
<text dominant-baseline="central" text-anchor="end" style="font-size:12px;font-family:Microsoft YaHei;" xml:space="preserve" transform="translate(156.6 165.45)" fill="#111">    lodash.cloneDeep</text>
<text dominant-baseline="central" text-anchor="end" style="font-size:12px;font-family:Microsoft YaHei;" xml:space="preserve" transform="translate(156.6 136.75)" fill="#111">    clone</text>
<text dominant-baseline="central" text-anchor="end" style="font-size:12px;font-family:Microsoft YaHei;" xml:space="preserve" transform="translate(156.6 108.05)" fill="#111">    clone(circular)</text>
<text dominant-baseline="central" text-anchor="end" style="font-size:12px;font-family:Microsoft YaHei;" xml:space="preserve" transform="translate(156.6 79.35)" fill="#111">    ramda.clone</text>
<text dominant-baseline="central" text-anchor="middle" style="font-size:12px;font-family:Microsoft YaHei;" y="6" transform="translate(160.6 360)" fill="#111">0</text>
<text dominant-baseline="central" text-anchor="middle" style="font-size:12px;font-family:Microsoft YaHei;" y="6" transform="translate(253.3714 360)" fill="#111">500.0k</text>
<text dominant-baseline="central" text-anchor="middle" style="font-size:12px;font-family:Microsoft YaHei;" y="6" transform="translate(346.1429 360)" fill="#111">1.0M</text>
<text dominant-baseline="central" text-anchor="middle" style="font-size:12px;font-family:Microsoft YaHei;" y="6" transform="translate(438.9143 360)" fill="#111">1.5M</text>
<text dominant-baseline="central" text-anchor="middle" style="font-size:12px;font-family:Microsoft YaHei;" y="6" transform="translate(531.6857 360)" fill="#111">2.0M</text>
<text dominant-baseline="central" text-anchor="middle" style="font-size:12px;font-family:Microsoft YaHei;" y="6" transform="translate(624.4571 360)" fill="#111">2.5M</text>
<text dominant-baseline="central" text-anchor="middle" style="font-size:12px;font-family:Microsoft YaHei;" y="6" transform="translate(717.2286 360)" fill="#111">3.0M</text>
<text dominant-baseline="central" text-anchor="middle" style="font-size:12px;font-family:Microsoft YaHei;" y="6" transform="translate(810 360)" fill="#111">3.5M</text>
<path d="M160.6 327.7l634.5 0l0 19.8l-634.5 0Z" fill="#4F46E5" ecmeta_series_index="0" ecmeta_data_index="0" ecmeta_ssr_type="chart" class="zr8-cls-17"></path>
<path d="M160.6 299l353.9 0l0 19.8l-353.9 0Z" fill="#4F46E5" ecmeta_series_index="0" ecmeta_data_index="1" ecmeta_ssr_type="chart" class="zr8-cls-17"></path>
<path d="M160.6 270.3l344 0l0 19.8l-344 0Z" fill="#4F46E5" ecmeta_series_index="0" ecmeta_data_index="2" ecmeta_ssr_type="chart" class="zr8-cls-17"></path>
<path d="M160.6 241.6l282.9 0l0 19.8l-282.9 0Z" fill="#4F46E5" ecmeta_series_index="0" ecmeta_data_index="3" ecmeta_ssr_type="chart" class="zr8-cls-17"></path>
<path d="M160.6 212.9l210.6 0l0 19.8l-210.6 0Z" fill="#4F46E5" ecmeta_series_index="0" ecmeta_data_index="4" ecmeta_ssr_type="chart" class="zr8-cls-17"></path>
<path d="M160.6 184.2l201.2 0l0 19.8l-201.2 0Z" fill="#4F46E5" ecmeta_series_index="0" ecmeta_data_index="5" ecmeta_ssr_type="chart" class="zr8-cls-17"></path>
<path d="M160.6 155.5l125.7 0l0 19.8l-125.7 0Z" fill="#4F46E5" ecmeta_series_index="0" ecmeta_data_index="6" ecmeta_ssr_type="chart" class="zr8-cls-17"></path>
<path d="M160.6 126.8l68.2 0l0 19.8l-68.2 0Z" fill="#4F46E5" ecmeta_series_index="0" ecmeta_data_index="7" ecmeta_ssr_type="chart" class="zr8-cls-17"></path>
<path d="M160.6 98.1l63.1 0l0 19.8l-63.1 0Z" fill="#4F46E5" ecmeta_series_index="0" ecmeta_data_index="8" ecmeta_ssr_type="chart" class="zr8-cls-17"></path>
<path d="M160.6 69.4l40.9 0l0 19.8l-40.9 0Z" fill="#4F46E5" ecmeta_series_index="0" ecmeta_data_index="9" ecmeta_ssr_type="chart" class="zr8-cls-17"></path>
<path d="M-122.6 -5l245.3 0l0 28l-245.3 0Z" transform="translate(450 20)" fill="rgb(0,0,0)" fill-opacity="0" stroke="#3c3c41" stroke-width="0" class="zr8-cls-16"></path>
<text dominant-baseline="central" text-anchor="middle" style="font-size:18px;font-family:Microsoft YaHei;font-weight:bold;" xml:space="preserve" y="9" transform="translate(450 20)" fill="#3c3c41">custom-class • small (ops/s)</text>
<style ><![CDATA[
.zr8-cls-16:hover {
pointer-events:none;
}
.zr8-cls-17:hover {
cursor:pointer;
fill:rgba(86,77,251,1);
}

]]>

</style>
</svg>