<svg width="900" height="656" xmlns="http://www.w3.org/2000/svg" xmlns:xlink="http://www.w3.org/1999/xlink" version="1.1" baseProfile="full" viewBox="0 0 900 656">
<rect width="900" height="656" x="0" y="0" fill="#ffffff"></rect>
<path d="M156.5 65L156.5 576" fill="none" pointer-events="visible" stroke="#dbdee4" class="zr6-cls-12"></path>
<path d="M249.5 65L249.5 576" fill="none" pointer-events="visible" stroke="#dbdee4" class="zr6-cls-12"></path>
<path d="M343.5 65L343.5 576" fill="none" pointer-events="visible" stroke="#dbdee4" class="zr6-cls-12"></path>
<path d="M436.5 65L436.5 576" fill="none" pointer-events="visible" stroke="#dbdee4" class="zr6-cls-12"></path>
<path d="M529.5 65L529.5 576" fill="none" pointer-events="visible" stroke="#dbdee4" class="zr6-cls-12"></path>
<path d="M623.5 65L623.5 576" fill="none" pointer-events="visible" stroke="#dbdee4" class="zr6-cls-12"></path>
<path d="M716.5 65L716.5 576" fill="none" pointer-events="visible" stroke="#dbdee4" class="zr6-cls-12"></path>
<path d="M810.5 65L810.5 576" fill="none" pointer-events="visible" stroke="#dbdee4" class="zr6-cls-12"></path>
<path d="M156.5 576L156.5 65" fill="none" pointer-events="visible" stroke="#999" stroke-linecap="round" class="zr6-cls-12"></path>
<text dominant-baseline="central" text-anchor="end" style="font-size:12px;font-family:Microsoft YaHei;" xml:space="preserve" transform="translate(151.92 561.8056)" fill="#111">    rfdc</text>
<text dominant-baseline="central" text-anchor="end" style="font-size:12px;font-family:Microsoft YaHei;" xml:space="preserve" transform="translate(151.92 533.4167)" fill="#111">    rfdc(circles)</text>
<text dominant-baseline="central" text-anchor="end" style="font-size:12px;font-family:Microsoft YaHei;" xml:space="preserve" transform="translate(151.92 505.0278)" fill="#111">    klona/lite</text>
<text dominant-baseline="central" text-anchor="end" style="font-size:12px;font-family:Microsoft YaHei;" xml:space="preserve" transform="translate(151.92 476.6389)" fill="#111">    klona</text>
<text dominant-baseline="central" text-anchor="end" style="font-size:12px;font-family:Microsoft YaHei;" xml:space="preserve" transform="translate(151.92 448.25)" fill="#111">    just-clone</text>
<text dominant-baseline="central" text-anchor="end" style="font-size:12px;font-family:Microsoft YaHei;" xml:space="preserve" transform="translate(151.92 419.8611)" fill="#111">    nanoclone</text>
<text dominant-baseline="central" text-anchor="end" style="font-size:12px;font-family:Microsoft YaHei;" xml:space="preserve" transform="translate(151.92 391.4722)" fill="#111">    nano-copy</text>
<text dominant-baseline="central" text-anchor="end" style="font-size:12px;font-family:Microsoft YaHei;" xml:space="preserve" transform="translate(151.92 363.0833)" fill="#111">    fast-copy</text>
<text dominant-baseline="central" text-anchor="end" style="font-size:12px;font-family:Microsoft YaHei;" xml:space="preserve" transform="translate(151.92 334.6944)" fill="#111">    es-toolkit.cloneDeep</text>
<text dominant-baseline="central" text-anchor="end" style="font-size:12px;font-family:Microsoft YaHei;" xml:space="preserve" transform="translate(151.92 306.3056)" fill="#111">    clone-deep</text>
<text dominant-baseline="central" text-anchor="end" style="font-size:12px;font-family:Microsoft YaHei;" xml:space="preserve" transform="translate(151.92 277.9167)" fill="#111">    @ungap/structured-clone</text>
<text dominant-baseline="central" text-anchor="end" style="font-size:12px;font-family:Microsoft YaHei;" xml:space="preserve" transform="translate(151.92 249.5278)" fill="#111">    structuredClone</text>
<text dominant-baseline="central" text-anchor="end" style="font-size:12px;font-family:Microsoft YaHei;" xml:space="preserve" transform="translate(151.92 221.1389)" fill="#111">    lodash.cloneDeep</text>
<text dominant-baseline="central" text-anchor="end" style="font-size:12px;font-family:Microsoft YaHei;" xml:space="preserve" transform="translate(151.92 192.75)" fill="#111">    deepcopy</text>
<text dominant-baseline="central" text-anchor="end" style="font-size:12px;font-family:Microsoft YaHei;" xml:space="preserve" transform="translate(151.92 164.3611)" fill="#111">    clone</text>
<text dominant-baseline="central" text-anchor="end" style="font-size:12px;font-family:Microsoft YaHei;" xml:space="preserve" transform="translate(151.92 135.9722)" fill="#111">    clone(circular)</text>
<text dominant-baseline="central" text-anchor="end" style="font-size:12px;font-family:Microsoft YaHei;" xml:space="preserve" transform="translate(151.92 107.5833)" fill="#111">    ramda.clone</text>
<text dominant-baseline="central" text-anchor="end" style="font-size:12px;font-family:Microsoft YaHei;" xml:space="preserve" transform="translate(151.92 79.1944)" fill="#111">    core-js/structured-clone</text>
<text dominant-baseline="central" text-anchor="middle" style="font-size:12px;font-family:Microsoft YaHei;" y="6" transform="translate(155.92 584)" fill="#111">0</text>
<text dominant-baseline="central" text-anchor="middle" style="font-size:12px;font-family:Microsoft YaHei;" y="6" transform="translate(249.36 584)" fill="#111">30.0k</text>
<text dominant-baseline="central" text-anchor="middle" style="font-size:12px;font-family:Microsoft YaHei;" y="6" transform="translate(342.8 584)" fill="#111">60.0k</text>
<text dominant-baseline="central" text-anchor="middle" style="font-size:12px;font-family:Microsoft YaHei;" y="6" transform="translate(436.24 584)" fill="#111">90.0k</text>
<text dominant-baseline="central" text-anchor="middle" style="font-size:12px;font-family:Microsoft YaHei;" y="6" transform="translate(529.68 584)" fill="#111">120.0k</text>
<text dominant-baseline="central" text-anchor="middle" style="font-size:12px;font-family:Microsoft YaHei;" y="6" transform="translate(623.12 584)" fill="#111">150.0k</text>
<text dominant-baseline="central" text-anchor="middle" style="font-size:12px;font-family:Microsoft YaHei;" y="6" transform="translate(716.56 584)" fill="#111">180.0k</text>
<text dominant-baseline="central" text-anchor="middle" style="font-size:12px;font-family:Microsoft YaHei;" y="6" transform="translate(810 584)" fill="#111">210.0k</text>
<path d="M155.9 552l586.9 0l0 19.6l-586.9 0Z" fill="#4F46E5" ecmeta_series_index="0" ecmeta_data_index="0" ecmeta_ssr_type="chart" class="zr6-cls-13"></path>
<path d="M155.9 523.6l550.1 0l0 19.6l-550.1 0Z" fill="#4F46E5" ecmeta_series_index="0" ecmeta_data_index="1" ecmeta_ssr_type="chart" class="zr6-cls-13"></path>
<path d="M155.9 495.2l422.6 0l0 19.6l-422.6 0Z" fill="#4F46E5" ecmeta_series_index="0" ecmeta_data_index="2" ecmeta_ssr_type="chart" class="zr6-cls-13"></path>
<path d="M155.9 466.8l408.6 0l0 19.6l-408.6 0Z" fill="#4F46E5" ecmeta_series_index="0" ecmeta_data_index="3" ecmeta_ssr_type="chart" class="zr6-cls-13"></path>
<path d="M155.9 438.5l394.6 0l0 19.6l-394.6 0Z" fill="#4F46E5" ecmeta_series_index="0" ecmeta_data_index="4" ecmeta_ssr_type="chart" class="zr6-cls-13"></path>
<path d="M155.9 410.1l393.1 0l0 19.6l-393.1 0Z" fill="#4F46E5" ecmeta_series_index="0" ecmeta_data_index="5" ecmeta_ssr_type="chart" class="zr6-cls-13"></path>
<path d="M155.9 381.7l320.4 0l0 19.6l-320.4 0Z" fill="#4F46E5" ecmeta_series_index="0" ecmeta_data_index="6" ecmeta_ssr_type="chart" class="zr6-cls-13"></path>
<path d="M155.9 353.3l232.2 0l0 19.6l-232.2 0Z" fill="#4F46E5" ecmeta_series_index="0" ecmeta_data_index="7" ecmeta_ssr_type="chart" class="zr6-cls-13"></path>
<path d="M155.9 324.9l231.7 0l0 19.6l-231.7 0Z" fill="#4F46E5" ecmeta_series_index="0" ecmeta_data_index="8" ecmeta_ssr_type="chart" class="zr6-cls-13"></path>
<path d="M155.9 296.5l216.7 0l0 19.6l-216.7 0Z" fill="#4F46E5" ecmeta_series_index="0" ecmeta_data_index="9" ecmeta_ssr_type="chart" class="zr6-cls-13"></path>
<path d="M155.9 268.1l147.2 0l0 19.6l-147.2 0Z" fill="#4F46E5" ecmeta_series_index="0" ecmeta_data_index="10" ecmeta_ssr_type="chart" class="zr6-cls-13"></path>
<path d="M155.9 239.7l147.2 0l0 19.6l-147.2 0Z" fill="#4F46E5" ecmeta_series_index="0" ecmeta_data_index="11" ecmeta_ssr_type="chart" class="zr6-cls-13"></path>
<path d="M155.9 211.3l94 0l0 19.6l-94 0Z" fill="#4F46E5" ecmeta_series_index="0" ecmeta_data_index="12" ecmeta_ssr_type="chart" class="zr6-cls-13"></path>
<path d="M155.9 183l86.6 0l0 19.6l-86.6 0Z" fill="#4F46E5" ecmeta_series_index="0" ecmeta_data_index="13" ecmeta_ssr_type="chart" class="zr6-cls-13"></path>
<path d="M155.9 154.6l79.3 0l0 19.6l-79.3 0Z" fill="#4F46E5" ecmeta_series_index="0" ecmeta_data_index="14" ecmeta_ssr_type="chart" class="zr6-cls-13"></path>
<path d="M155.9 126.2l66.5 0l0 19.6l-66.5 0Z" fill="#4F46E5" ecmeta_series_index="0" ecmeta_data_index="15" ecmeta_ssr_type="chart" class="zr6-cls-13"></path>
<path d="M155.9 97.8l56.8 0l0 19.6l-56.8 0Z" fill="#4F46E5" ecmeta_series_index="0" ecmeta_data_index="16" ecmeta_ssr_type="chart" class="zr6-cls-13"></path>
<path d="M155.9 69.4l40.8 0l0 19.6l-40.8 0Z" fill="#4F46E5" ecmeta_series_index="0" ecmeta_data_index="17" ecmeta_ssr_type="chart" class="zr6-cls-13"></path>
<path d="M-87.7 -5l175.4 0l0 28l-175.4 0Z" transform="translate(450 20)" fill="rgb(0,0,0)" fill-opacity="0" stroke="#3c3c41" stroke-width="0" class="zr6-cls-12"></path>
<text dominant-baseline="central" text-anchor="middle" style="font-size:18px;font-family:Microsoft YaHei;font-weight:bold;" xml:space="preserve" y="9" transform="translate(450 20)" fill="#3c3c41">date • small (ops/s)</text>
<style ><![CDATA[
.zr6-cls-12:hover {
pointer-events:none;
}
.zr6-cls-13:hover {
cursor:pointer;
fill:rgba(86,77,251,1);
}

]]>

</style>
</svg>