<svg width="900" height="376" xmlns="http://www.w3.org/2000/svg" xmlns:xlink="http://www.w3.org/1999/xlink" version="1.1" baseProfile="full" viewBox="0 0 900 376">
<rect width="900" height="376" x="0" y="0" fill="#ffffff"></rect>
<path d="M149.5 65L149.5 296" fill="none" pointer-events="visible" stroke="#dbdee4" class="zr11-cls-22"></path>
<path d="M259.5 65L259.5 296" fill="none" pointer-events="visible" stroke="#dbdee4" class="zr11-cls-22"></path>
<path d="M369.5 65L369.5 296" fill="none" pointer-events="visible" stroke="#dbdee4" class="zr11-cls-22"></path>
<path d="M479.5 65L479.5 296" fill="none" pointer-events="visible" stroke="#dbdee4" class="zr11-cls-22"></path>
<path d="M589.5 65L589.5 296" fill="none" pointer-events="visible" stroke="#dbdee4" class="zr11-cls-22"></path>
<path d="M700.5 65L700.5 296" fill="none" pointer-events="visible" stroke="#dbdee4" class="zr11-cls-22"></path>
<path d="M810.5 65L810.5 296" fill="none" pointer-events="visible" stroke="#dbdee4" class="zr11-cls-22"></path>
<path d="M149.5 296L149.5 65" fill="none" pointer-events="visible" stroke="#999" stroke-linecap="round" class="zr11-cls-22"></path>
<text dominant-baseline="central" text-anchor="end" style="font-size:12px;font-family:Microsoft YaHei;" xml:space="preserve" transform="translate(145.2 281.5625)" fill="#111">  core-js/structured-clone</text>
<text dominant-baseline="central" text-anchor="end" style="font-size:12px;font-family:Microsoft YaHei;" xml:space="preserve" transform="translate(145.2 252.6875)" fill="#111">  fast-copy</text>
<text dominant-baseline="central" text-anchor="end" style="font-size:12px;font-family:Microsoft YaHei;" xml:space="preserve" transform="translate(145.2 223.8125)" fill="#111">  klona</text>
<text dominant-baseline="central" text-anchor="end" style="font-size:12px;font-family:Microsoft YaHei;" xml:space="preserve" transform="translate(145.2 194.9375)" fill="#111">  nano-copy</text>
<text dominant-baseline="central" text-anchor="end" style="font-size:12px;font-family:Microsoft YaHei;" xml:space="preserve" transform="translate(145.2 166.0625)" fill="#111">  rfdc(with ArrayBuffer)</text>
<text dominant-baseline="central" text-anchor="end" style="font-size:12px;font-family:Microsoft YaHei;" xml:space="preserve" transform="translate(145.2 137.1875)" fill="#111">  es-toolkit.cloneDeep</text>
<text dominant-baseline="central" text-anchor="end" style="font-size:12px;font-family:Microsoft YaHei;" xml:space="preserve" transform="translate(145.2 108.3125)" fill="#111">  structuredClone</text>
<text dominant-baseline="central" text-anchor="end" style="font-size:12px;font-family:Microsoft YaHei;" xml:space="preserve" transform="translate(145.2 79.4375)" fill="#111">  @ungap/structured-clone</text>
<text dominant-baseline="central" text-anchor="middle" style="font-size:12px;font-family:Microsoft YaHei;" y="6" transform="translate(149.2 304)" fill="#111">0</text>
<text dominant-baseline="central" text-anchor="middle" style="font-size:12px;font-family:Microsoft YaHei;" y="6" transform="translate(259.3333 304)" fill="#111">5</text>
<text dominant-baseline="central" text-anchor="middle" style="font-size:12px;font-family:Microsoft YaHei;" y="6" transform="translate(369.4667 304)" fill="#111">10</text>
<text dominant-baseline="central" text-anchor="middle" style="font-size:12px;font-family:Microsoft YaHei;" y="6" transform="translate(479.6 304)" fill="#111">15</text>
<text dominant-baseline="central" text-anchor="middle" style="font-size:12px;font-family:Microsoft YaHei;" y="6" transform="translate(589.7333 304)" fill="#111">20</text>
<text dominant-baseline="central" text-anchor="middle" style="font-size:12px;font-family:Microsoft YaHei;" y="6" transform="translate(699.8667 304)" fill="#111">25</text>
<text dominant-baseline="central" text-anchor="middle" style="font-size:12px;font-family:Microsoft YaHei;" y="6" transform="translate(810 304)" fill="#111">30</text>
<path d="M149.2 271.6l660.8 0l0 19.9l-660.8 0Z" fill="#4F46E5" ecmeta_series_index="0" ecmeta_data_index="0" ecmeta_ssr_type="chart" class="zr11-cls-23"></path>
<path d="M149.2 242.7l638.8 0l0 19.9l-638.8 0Z" fill="#4F46E5" ecmeta_series_index="0" ecmeta_data_index="1" ecmeta_ssr_type="chart" class="zr11-cls-23"></path>
<path d="M149.2 213.9l638.8 0l0 19.9l-638.8 0Z" fill="#4F46E5" ecmeta_series_index="0" ecmeta_data_index="2" ecmeta_ssr_type="chart" class="zr11-cls-23"></path>
<path d="M149.2 185l638.8 0l0 19.9l-638.8 0Z" fill="#4F46E5" ecmeta_series_index="0" ecmeta_data_index="3" ecmeta_ssr_type="chart" class="zr11-cls-23"></path>
<path d="M149.2 156.1l638.8 0l0 19.9l-638.8 0Z" fill="#4F46E5" ecmeta_series_index="0" ecmeta_data_index="4" ecmeta_ssr_type="chart" class="zr11-cls-23"></path>
<path d="M149.2 127.2l440.5 0l0 19.9l-440.5 0Z" fill="#4F46E5" ecmeta_series_index="0" ecmeta_data_index="5" ecmeta_ssr_type="chart" class="zr11-cls-23"></path>
<path d="M149.2 98.4l154.2 0l0 19.9l-154.2 0Z" fill="#4F46E5" ecmeta_series_index="0" ecmeta_data_index="6" ecmeta_ssr_type="chart" class="zr11-cls-23"></path>
<path d="M149.2 69.5l154.2 0l0 19.9l-154.2 0Z" fill="#4F46E5" ecmeta_series_index="0" ecmeta_data_index="7" ecmeta_ssr_type="chart" class="zr11-cls-23"></path>
<path d="M-115.8 -5l231.6 0l0 28l-231.6 0Z" transform="translate(450 20)" fill="rgb(0,0,0)" fill-opacity="0" stroke="#3c3c41" stroke-width="0" class="zr11-cls-22"></path>
<text dominant-baseline="central" text-anchor="middle" style="font-size:18px;font-family:Microsoft YaHei;font-weight:bold;" xml:space="preserve" y="9" transform="translate(450 20)" fill="#3c3c41">array-buffer • large (ops/s)</text>
<style ><![CDATA[
.zr11-cls-22:hover {
pointer-events:none;
}
.zr11-cls-23:hover {
cursor:pointer;
fill:rgba(86,77,251,1);
}

]]>

</style>
</svg>