<svg width="900" height="376" xmlns="http://www.w3.org/2000/svg" xmlns:xlink="http://www.w3.org/1999/xlink" version="1.1" baseProfile="full" viewBox="0 0 900 376">
<rect width="900" height="376" x="0" y="0" fill="#ffffff"></rect>
<path d="M156.5 65L156.5 296" fill="none" pointer-events="visible" stroke="#dbdee4" class="zr11-cls-22"></path>
<path d="M249.5 65L249.5 296" fill="none" pointer-events="visible" stroke="#dbdee4" class="zr11-cls-22"></path>
<path d="M343.5 65L343.5 296" fill="none" pointer-events="visible" stroke="#dbdee4" class="zr11-cls-22"></path>
<path d="M436.5 65L436.5 296" fill="none" pointer-events="visible" stroke="#dbdee4" class="zr11-cls-22"></path>
<path d="M529.5 65L529.5 296" fill="none" pointer-events="visible" stroke="#dbdee4" class="zr11-cls-22"></path>
<path d="M623.5 65L623.5 296" fill="none" pointer-events="visible" stroke="#dbdee4" class="zr11-cls-22"></path>
<path d="M716.5 65L716.5 296" fill="none" pointer-events="visible" stroke="#dbdee4" class="zr11-cls-22"></path>
<path d="M810.5 65L810.5 296" fill="none" pointer-events="visible" stroke="#dbdee4" class="zr11-cls-22"></path>
<path d="M156.5 296L156.5 65" fill="none" pointer-events="visible" stroke="#999" stroke-linecap="round" class="zr11-cls-22"></path>
<text dominant-baseline="central" text-anchor="end" style="font-size:12px;font-family:Microsoft YaHei;" xml:space="preserve" transform="translate(151.92 281.5625)" fill="#111">    nano-copy</text>
<text dominant-baseline="central" text-anchor="end" style="font-size:12px;font-family:Microsoft YaHei;" xml:space="preserve" transform="translate(151.92 252.6875)" fill="#111">    fast-copy</text>
<text dominant-baseline="central" text-anchor="end" style="font-size:12px;font-family:Microsoft YaHei;" xml:space="preserve" transform="translate(151.92 223.8125)" fill="#111">    klona</text>
<text dominant-baseline="central" text-anchor="end" style="font-size:12px;font-family:Microsoft YaHei;" xml:space="preserve" transform="translate(151.92 194.9375)" fill="#111">    rfdc(with ArrayBuffer)</text>
<text dominant-baseline="central" text-anchor="end" style="font-size:12px;font-family:Microsoft YaHei;" xml:space="preserve" transform="translate(151.92 166.0625)" fill="#111">    core-js/structured-clone</text>
<text dominant-baseline="central" text-anchor="end" style="font-size:12px;font-family:Microsoft YaHei;" xml:space="preserve" transform="translate(151.92 137.1875)" fill="#111">    es-toolkit.cloneDeep</text>
<text dominant-baseline="central" text-anchor="end" style="font-size:12px;font-family:Microsoft YaHei;" xml:space="preserve" transform="translate(151.92 108.3125)" fill="#111">    structuredClone</text>
<text dominant-baseline="central" text-anchor="end" style="font-size:12px;font-family:Microsoft YaHei;" xml:space="preserve" transform="translate(151.92 79.4375)" fill="#111">    @ungap/structured-clone</text>
<text dominant-baseline="central" text-anchor="middle" style="font-size:12px;font-family:Microsoft YaHei;" y="6" transform="translate(155.92 304)" fill="#111">0</text>
<text dominant-baseline="central" text-anchor="middle" style="font-size:12px;font-family:Microsoft YaHei;" y="6" transform="translate(249.36 304)" fill="#111">5</text>
<text dominant-baseline="central" text-anchor="middle" style="font-size:12px;font-family:Microsoft YaHei;" y="6" transform="translate(342.8 304)" fill="#111">10</text>
<text dominant-baseline="central" text-anchor="middle" style="font-size:12px;font-family:Microsoft YaHei;" y="6" transform="translate(436.24 304)" fill="#111">15</text>
<text dominant-baseline="central" text-anchor="middle" style="font-size:12px;font-family:Microsoft YaHei;" y="6" transform="translate(529.68 304)" fill="#111">20</text>
<text dominant-baseline="central" text-anchor="middle" style="font-size:12px;font-family:Microsoft YaHei;" y="6" transform="translate(623.12 304)" fill="#111">25</text>
<text dominant-baseline="central" text-anchor="middle" style="font-size:12px;font-family:Microsoft YaHei;" y="6" transform="translate(716.56 304)" fill="#111">30</text>
<text dominant-baseline="central" text-anchor="middle" style="font-size:12px;font-family:Microsoft YaHei;" y="6" transform="translate(810 304)" fill="#111">35</text>
<path d="M155.9 271.6l598 0l0 19.9l-598 0Z" fill="#4F46E5" ecmeta_series_index="0" ecmeta_data_index="0" ecmeta_ssr_type="chart" class="zr11-cls-23"></path>
<path d="M155.9 242.7l579.3 0l0 19.9l-579.3 0Z" fill="#4F46E5" ecmeta_series_index="0" ecmeta_data_index="1" ecmeta_ssr_type="chart" class="zr11-cls-23"></path>
<path d="M155.9 213.9l579.3 0l0 19.9l-579.3 0Z" fill="#4F46E5" ecmeta_series_index="0" ecmeta_data_index="2" ecmeta_ssr_type="chart" class="zr11-cls-23"></path>
<path d="M155.9 185l579.3 0l0 19.9l-579.3 0Z" fill="#4F46E5" ecmeta_series_index="0" ecmeta_data_index="3" ecmeta_ssr_type="chart" class="zr11-cls-23"></path>
<path d="M155.9 156.1l579.3 0l0 19.9l-579.3 0Z" fill="#4F46E5" ecmeta_series_index="0" ecmeta_data_index="4" ecmeta_ssr_type="chart" class="zr11-cls-23"></path>
<path d="M155.9 127.2l373.8 0l0 19.9l-373.8 0Z" fill="#4F46E5" ecmeta_series_index="0" ecmeta_data_index="5" ecmeta_ssr_type="chart" class="zr11-cls-23"></path>
<path d="M155.9 98.4l130.8 0l0 19.9l-130.8 0Z" fill="#4F46E5" ecmeta_series_index="0" ecmeta_data_index="6" ecmeta_ssr_type="chart" class="zr11-cls-23"></path>
<path d="M155.9 69.5l130.8 0l0 19.9l-130.8 0Z" fill="#4F46E5" ecmeta_series_index="0" ecmeta_data_index="7" ecmeta_ssr_type="chart" class="zr11-cls-23"></path>
<path d="M-115.8 -5l231.6 0l0 28l-231.6 0Z" transform="translate(450 20)" fill="rgb(0,0,0)" fill-opacity="0" stroke="#3c3c41" stroke-width="0" class="zr11-cls-22"></path>
<text dominant-baseline="central" text-anchor="middle" style="font-size:18px;font-family:Microsoft YaHei;font-weight:bold;" xml:space="preserve" y="9" transform="translate(450 20)" fill="#3c3c41">array-buffer • large (ops/s)</text>
<style ><![CDATA[
.zr11-cls-22:hover {
pointer-events:none;
}
.zr11-cls-23:hover {
cursor:pointer;
fill:rgba(86,77,251,1);
}

]]>

</style>
</svg>