<svg width="900" height="348" xmlns="http://www.w3.org/2000/svg" xmlns:xlink="http://www.w3.org/1999/xlink" version="1.1" baseProfile="full" viewBox="0 0 900 348">
<rect width="900" height="348" x="0" y="0" fill="#ffffff"></rect>
<path d="M135.5 65L135.5 268" fill="none" pointer-events="visible" stroke="#dbdee4" class="zr13-cls-26"></path>
<path d="M231.5 65L231.5 268" fill="none" pointer-events="visible" stroke="#dbdee4" class="zr13-cls-26"></path>
<path d="M328.5 65L328.5 268" fill="none" pointer-events="visible" stroke="#dbdee4" class="zr13-cls-26"></path>
<path d="M424.5 65L424.5 268" fill="none" pointer-events="visible" stroke="#dbdee4" class="zr13-cls-26"></path>
<path d="M520.5 65L520.5 268" fill="none" pointer-events="visible" stroke="#dbdee4" class="zr13-cls-26"></path>
<path d="M617.5 65L617.5 268" fill="none" pointer-events="visible" stroke="#dbdee4" class="zr13-cls-26"></path>
<path d="M713.5 65L713.5 268" fill="none" pointer-events="visible" stroke="#dbdee4" class="zr13-cls-26"></path>
<path d="M810.5 65L810.5 268" fill="none" pointer-events="visible" stroke="#dbdee4" class="zr13-cls-26"></path>
<path d="M135.5 268L135.5 65" fill="none" pointer-events="visible" stroke="#999" stroke-linecap="round" class="zr13-cls-26"></path>
<text dominant-baseline="central" text-anchor="end" style="font-size:12px;font-family:Microsoft YaHei;" xml:space="preserve" transform="translate(131 253.5)" fill="#111">    rfdc</text>
<text dominant-baseline="central" text-anchor="end" style="font-size:12px;font-family:Microsoft YaHei;" xml:space="preserve" transform="translate(131 224.5)" fill="#111">    rfdc(circles)</text>
<text dominant-baseline="central" text-anchor="end" style="font-size:12px;font-family:Microsoft YaHei;" xml:space="preserve" transform="translate(131 195.5)" fill="#111">    klona</text>
<text dominant-baseline="central" text-anchor="end" style="font-size:12px;font-family:Microsoft YaHei;" xml:space="preserve" transform="translate(131 166.5)" fill="#111">    nano-copy</text>
<text dominant-baseline="central" text-anchor="end" style="font-size:12px;font-family:Microsoft YaHei;" xml:space="preserve" transform="translate(131 137.5)" fill="#111">    clone</text>
<text dominant-baseline="central" text-anchor="end" style="font-size:12px;font-family:Microsoft YaHei;" xml:space="preserve" transform="translate(131 108.5)" fill="#111">    clone(circular)</text>
<text dominant-baseline="central" text-anchor="end" style="font-size:12px;font-family:Microsoft YaHei;" xml:space="preserve" transform="translate(131 79.5)" fill="#111">    deepcopy</text>
<text dominant-baseline="central" text-anchor="middle" style="font-size:12px;font-family:Microsoft YaHei;" y="6" transform="translate(135 276)" fill="#111">0</text>
<text dominant-baseline="central" text-anchor="middle" style="font-size:12px;font-family:Microsoft YaHei;" y="6" transform="translate(231.4286 276)" fill="#111">5</text>
<text dominant-baseline="central" text-anchor="middle" style="font-size:12px;font-family:Microsoft YaHei;" y="6" transform="translate(327.8571 276)" fill="#111">10</text>
<text dominant-baseline="central" text-anchor="middle" style="font-size:12px;font-family:Microsoft YaHei;" y="6" transform="translate(424.2857 276)" fill="#111">15</text>
<text dominant-baseline="central" text-anchor="middle" style="font-size:12px;font-family:Microsoft YaHei;" y="6" transform="translate(520.7143 276)" fill="#111">20</text>
<text dominant-baseline="central" text-anchor="middle" style="font-size:12px;font-family:Microsoft YaHei;" y="6" transform="translate(617.1429 276)" fill="#111">25</text>
<text dominant-baseline="central" text-anchor="middle" style="font-size:12px;font-family:Microsoft YaHei;" y="6" transform="translate(713.5714 276)" fill="#111">30</text>
<text dominant-baseline="central" text-anchor="middle" style="font-size:12px;font-family:Microsoft YaHei;" y="6" transform="translate(810 276)" fill="#111">35</text>
<path d="M135 243.5l655.7 0l0 20l-655.7 0Z" fill="#4F46E5" ecmeta_series_index="0" ecmeta_data_index="0" ecmeta_ssr_type="chart" class="zr13-cls-27"></path>
<path d="M135 214.5l655.7 0l0 20l-655.7 0Z" fill="#4F46E5" ecmeta_series_index="0" ecmeta_data_index="1" ecmeta_ssr_type="chart" class="zr13-cls-27"></path>
<path d="M135 185.5l655.7 0l0 20l-655.7 0Z" fill="#4F46E5" ecmeta_series_index="0" ecmeta_data_index="2" ecmeta_ssr_type="chart" class="zr13-cls-27"></path>
<path d="M135 156.5l655.7 0l0 20l-655.7 0Z" fill="#4F46E5" ecmeta_series_index="0" ecmeta_data_index="3" ecmeta_ssr_type="chart" class="zr13-cls-27"></path>
<path d="M135 127.5l636.4 0l0 20l-636.4 0Z" fill="#4F46E5" ecmeta_series_index="0" ecmeta_data_index="4" ecmeta_ssr_type="chart" class="zr13-cls-27"></path>
<path d="M135 98.5l636.4 0l0 20l-636.4 0Z" fill="#4F46E5" ecmeta_series_index="0" ecmeta_data_index="5" ecmeta_ssr_type="chart" class="zr13-cls-27"></path>
<path d="M135 69.5l327.9 0l0 20l-327.9 0Z" fill="#4F46E5" ecmeta_series_index="0" ecmeta_data_index="6" ecmeta_ssr_type="chart" class="zr13-cls-27"></path>
<path d="M-92.3 -5l184.6 0l0 28l-184.6 0Z" transform="translate(450 20)" fill="rgb(0,0,0)" fill-opacity="0" stroke="#3c3c41" stroke-width="0" class="zr13-cls-26"></path>
<text dominant-baseline="central" text-anchor="middle" style="font-size:18px;font-family:Microsoft YaHei;font-weight:bold;" xml:space="preserve" y="9" transform="translate(450 20)" fill="#3c3c41">buffer • large (ops/s)</text>
<style ><![CDATA[
.zr13-cls-26:hover {
pointer-events:none;
}
.zr13-cls-27:hover {
cursor:pointer;
fill:rgba(86,77,251,1);
}

]]>

</style>
</svg>