<svg width="900" height="208" xmlns="http://www.w3.org/2000/svg" xmlns:xlink="http://www.w3.org/1999/xlink" version="1.1" baseProfile="full" viewBox="0 0 900 208">
<rect width="900" height="208" x="0" y="0" fill="#ffffff"></rect>
<path d="M135.5 65L135.5 128" fill="none" pointer-events="visible" stroke="#dbdee4" class="zr15-cls-30"></path>
<path d="M231.5 65L231.5 128" fill="none" pointer-events="visible" stroke="#dbdee4" class="zr15-cls-30"></path>
<path d="M328.5 65L328.5 128" fill="none" pointer-events="visible" stroke="#dbdee4" class="zr15-cls-30"></path>
<path d="M424.5 65L424.5 128" fill="none" pointer-events="visible" stroke="#dbdee4" class="zr15-cls-30"></path>
<path d="M520.5 65L520.5 128" fill="none" pointer-events="visible" stroke="#dbdee4" class="zr15-cls-30"></path>
<path d="M617.5 65L617.5 128" fill="none" pointer-events="visible" stroke="#dbdee4" class="zr15-cls-30"></path>
<path d="M713.5 65L713.5 128" fill="none" pointer-events="visible" stroke="#dbdee4" class="zr15-cls-30"></path>
<path d="M810.5 65L810.5 128" fill="none" pointer-events="visible" stroke="#dbdee4" class="zr15-cls-30"></path>
<path d="M135.5 128L135.5 65" fill="none" pointer-events="visible" stroke="#999" stroke-linecap="round" class="zr15-cls-30"></path>
<text dominant-baseline="central" text-anchor="end" style="font-size:12px;font-family:Microsoft YaHei;" xml:space="preserve" transform="translate(131 112.25)" fill="#111">    es-toolkit.cloneDeep</text>
<text dominant-baseline="central" text-anchor="end" style="font-size:12px;font-family:Microsoft YaHei;" xml:space="preserve" transform="translate(131 80.75)" fill="#111">    lodash.cloneDeep</text>
<text dominant-baseline="central" text-anchor="middle" style="font-size:12px;font-family:Microsoft YaHei;" y="6" transform="translate(135 136)" fill="#111">0</text>
<text dominant-baseline="central" text-anchor="middle" style="font-size:12px;font-family:Microsoft YaHei;" y="6" transform="translate(231.4286 136)" fill="#111">100.0k</text>
<text dominant-baseline="central" text-anchor="middle" style="font-size:12px;font-family:Microsoft YaHei;" y="6" transform="translate(327.8571 136)" fill="#111">200.0k</text>
<text dominant-baseline="central" text-anchor="middle" style="font-size:12px;font-family:Microsoft YaHei;" y="6" transform="translate(424.2857 136)" fill="#111">300.0k</text>
<text dominant-baseline="central" text-anchor="middle" style="font-size:12px;font-family:Microsoft YaHei;" y="6" transform="translate(520.7143 136)" fill="#111">400.0k</text>
<text dominant-baseline="central" text-anchor="middle" style="font-size:12px;font-family:Microsoft YaHei;" y="6" transform="translate(617.1429 136)" fill="#111">500.0k</text>
<text dominant-baseline="central" text-anchor="middle" style="font-size:12px;font-family:Microsoft YaHei;" y="6" transform="translate(713.5714 136)" fill="#111">600.0k</text>
<text dominant-baseline="central" text-anchor="middle" style="font-size:12px;font-family:Microsoft YaHei;" y="6" transform="translate(810 136)" fill="#111">700.0k</text>
<path d="M135 101.4l609.8 0l0 21.7l-609.8 0Z" fill="#4F46E5" ecmeta_series_index="0" ecmeta_data_index="0" ecmeta_ssr_type="chart" class="zr15-cls-31"></path>
<path d="M135 69.9l479.5 0l0 21.7l-479.5 0Z" fill="#4F46E5" ecmeta_series_index="0" ecmeta_data_index="1" ecmeta_ssr_type="chart" class="zr15-cls-31"></path>
<path d="M-134.9 -5l269.7 0l0 28l-269.7 0Z" transform="translate(450 20)" fill="rgb(0,0,0)" fill-opacity="0" stroke="#3c3c41" stroke-width="0" class="zr15-cls-30"></path>
<text dominant-baseline="central" text-anchor="middle" style="font-size:18px;font-family:Microsoft YaHei;font-weight:bold;" xml:space="preserve" y="9" transform="translate(450 20)" fill="#3c3c41">buffer-zero-copy • large (ops/s)</text>
<style ><![CDATA[
.zr15-cls-30:hover {
pointer-events:none;
}
.zr15-cls-31:hover {
cursor:pointer;
fill:rgba(86,77,251,1);
}

]]>

</style>
</svg>