<svg width="900" height="432" xmlns="http://www.w3.org/2000/svg" xmlns:xlink="http://www.w3.org/1999/xlink" version="1.1" baseProfile="full" viewBox="0 0 900 432">
<rect width="900" height="432" x="0" y="0" fill="#ffffff"></rect>
<path d="M154.5 65L154.5 352" fill="none" pointer-events="visible" stroke="#dbdee4" class="zr8-cls-16"></path>
<path d="M247.5 65L247.5 352" fill="none" pointer-events="visible" stroke="#dbdee4" class="zr8-cls-16"></path>
<path d="M341.5 65L341.5 352" fill="none" pointer-events="visible" stroke="#dbdee4" class="zr8-cls-16"></path>
<path d="M435.5 65L435.5 352" fill="none" pointer-events="visible" stroke="#dbdee4" class="zr8-cls-16"></path>
<path d="M529.5 65L529.5 352" fill="none" pointer-events="visible" stroke="#dbdee4" class="zr8-cls-16"></path>
<path d="M622.5 65L622.5 352" fill="none" pointer-events="visible" stroke="#dbdee4" class="zr8-cls-16"></path>
<path d="M716.5 65L716.5 352" fill="none" pointer-events="visible" stroke="#dbdee4" class="zr8-cls-16"></path>
<path d="M810.5 65L810.5 352" fill="none" pointer-events="visible" stroke="#dbdee4" class="zr8-cls-16"></path>
<path d="M154.5 352L154.5 65" fill="none" pointer-events="visible" stroke="#999" stroke-linecap="round" class="zr8-cls-16"></path>
<text dominant-baseline="central" text-anchor="end" style="font-size:12px;font-family:Microsoft YaHei;" xml:space="preserve" transform="translate(149.88 337.65)" fill="#111">  klona/lite</text>
<text dominant-baseline="central" text-anchor="end" style="font-size:12px;font-family:Microsoft YaHei;" xml:space="preserve" transform="translate(149.88 308.95)" fill="#111">  klona</text>
<text dominant-baseline="central" text-anchor="end" style="font-size:12px;font-family:Microsoft YaHei;" xml:space="preserve" transform="translate(149.88 280.25)" fill="#111">  nano-copy</text>
<text dominant-baseline="central" text-anchor="end" style="font-size:12px;font-family:Microsoft YaHei;" xml:space="preserve" transform="translate(149.88 251.55)" fill="#111">  rfdc(with Custom Classes)</text>
<text dominant-baseline="central" text-anchor="end" style="font-size:12px;font-family:Microsoft YaHei;" xml:space="preserve" transform="translate(149.88 222.85)" fill="#111">  fast-copy</text>
<text dominant-baseline="central" text-anchor="end" style="font-size:12px;font-family:Microsoft YaHei;" xml:space="preserve" transform="translate(149.88 194.15)" fill="#111">  es-toolkit.cloneDeep</text>
<text dominant-baseline="central" text-anchor="end" style="font-size:12px;font-family:Microsoft YaHei;" xml:space="preserve" transform="translate(149.88 165.45)" fill="#111">  clone</text>
<text dominant-baseline="central" text-anchor="end" style="font-size:12px;font-family:Microsoft YaHei;" xml:space="preserve" transform="translate(149.88 136.75)" fill="#111">  lodash.cloneDeep</text>
<text dominant-baseline="central" text-anchor="end" style="font-size:12px;font-family:Microsoft YaHei;" xml:space="preserve" transform="translate(149.88 108.05)" fill="#111">  clone(circular)</text>
<text dominant-baseline="central" text-anchor="end" style="font-size:12px;font-family:Microsoft YaHei;" xml:space="preserve" transform="translate(149.88 79.35)" fill="#111">  ramda.clone</text>
<text dominant-baseline="central" text-anchor="middle" style="font-size:12px;font-family:Microsoft YaHei;" y="6" transform="translate(153.88 360)" fill="#111">0</text>
<text dominant-baseline="central" text-anchor="middle" style="font-size:12px;font-family:Microsoft YaHei;" y="6" transform="translate(247.6114 360)" fill="#111">300.0k</text>
<text dominant-baseline="central" text-anchor="middle" style="font-size:12px;font-family:Microsoft YaHei;" y="6" transform="translate(341.3429 360)" fill="#111">600.0k</text>
<text dominant-baseline="central" text-anchor="middle" style="font-size:12px;font-family:Microsoft YaHei;" y="6" transform="translate(435.0743 360)" fill="#111">900.0k</text>
<text dominant-baseline="central" text-anchor="middle" style="font-size:12px;font-family:Microsoft YaHei;" y="6" transform="translate(528.8057 360)" fill="#111">1.2M</text>
<text dominant-baseline="central" text-anchor="middle" style="font-size:12px;font-family:Microsoft YaHei;" y="6" transform="translate(622.5371 360)" fill="#111">1.5M</text>
<text dominant-baseline="central" text-anchor="middle" style="font-size:12px;font-family:Microsoft YaHei;" y="6" transform="translate(716.2686 360)" fill="#111">1.8M</text>
<text dominant-baseline="central" text-anchor="middle" style="font-size:12px;font-family:Microsoft YaHei;" y="6" transform="translate(810 360)" fill="#111">2.1M</text>
<path d="M153.9 327.7l619.9 0l0 19.8l-619.9 0Z" fill="#4F46E5" ecmeta_series_index="0" ecmeta_data_index="0" ecmeta_ssr_type="chart" class="zr8-cls-17"></path>
<path d="M153.9 299l617.5 0l0 19.8l-617.5 0Z" fill="#4F46E5" ecmeta_series_index="0" ecmeta_data_index="1" ecmeta_ssr_type="chart" class="zr8-cls-17"></path>
<path d="M153.9 270.3l574.1 0l0 19.8l-574.1 0Z" fill="#4F46E5" ecmeta_series_index="0" ecmeta_data_index="2" ecmeta_ssr_type="chart" class="zr8-cls-17"></path>
<path d="M153.9 241.6l435.8 0l0 19.8l-435.8 0Z" fill="#4F46E5" ecmeta_series_index="0" ecmeta_data_index="3" ecmeta_ssr_type="chart" class="zr8-cls-17"></path>
<path d="M153.9 212.9l429.7 0l0 19.8l-429.7 0Z" fill="#4F46E5" ecmeta_series_index="0" ecmeta_data_index="4" ecmeta_ssr_type="chart" class="zr8-cls-17"></path>
<path d="M153.9 184.2l258.3 0l0 19.8l-258.3 0Z" fill="#4F46E5" ecmeta_series_index="0" ecmeta_data_index="5" ecmeta_ssr_type="chart" class="zr8-cls-17"></path>
<path d="M153.9 155.5l207.2 0l0 19.8l-207.2 0Z" fill="#4F46E5" ecmeta_series_index="0" ecmeta_data_index="6" ecmeta_ssr_type="chart" class="zr8-cls-17"></path>
<path d="M153.9 126.8l196.6 0l0 19.8l-196.6 0Z" fill="#4F46E5" ecmeta_series_index="0" ecmeta_data_index="7" ecmeta_ssr_type="chart" class="zr8-cls-17"></path>
<path d="M153.9 98.1l193.9 0l0 19.8l-193.9 0Z" fill="#4F46E5" ecmeta_series_index="0" ecmeta_data_index="8" ecmeta_ssr_type="chart" class="zr8-cls-17"></path>
<path d="M153.9 69.4l66.5 0l0 19.8l-66.5 0Z" fill="#4F46E5" ecmeta_series_index="0" ecmeta_data_index="9" ecmeta_ssr_type="chart" class="zr8-cls-17"></path>
<path d="M-122.6 -5l245.3 0l0 28l-245.3 0Z" transform="translate(450 20)" fill="rgb(0,0,0)" fill-opacity="0" stroke="#3c3c41" stroke-width="0" class="zr8-cls-16"></path>
<text dominant-baseline="central" text-anchor="middle" style="font-size:18px;font-family:Microsoft YaHei;font-weight:bold;" xml:space="preserve" y="9" transform="translate(450 20)" fill="#3c3c41">custom-class • small (ops/s)</text>
<style ><![CDATA[
.zr8-cls-16:hover {
pointer-events:none;
}
.zr8-cls-17:hover {
cursor:pointer;
fill:rgba(86,77,251,1);
}

]]>

</style>
</svg>