<svg width="900" height="684" xmlns="http://www.w3.org/2000/svg" xmlns:xlink="http://www.w3.org/1999/xlink" version="1.1" baseProfile="full" viewBox="0 0 900 684">
<rect width="900" height="684" x="0" y="0" fill="#ffffff"></rect>
<path d="M156.5 65L156.5 604" fill="none" pointer-events="visible" stroke="#dbdee4" class="zr6-cls-12"></path>
<path d="M265.5 65L265.5 604" fill="none" pointer-events="visible" stroke="#dbdee4" class="zr6-cls-12"></path>
<path d="M374.5 65L374.5 604" fill="none" pointer-events="visible" stroke="#dbdee4" class="zr6-cls-12"></path>
<path d="M483.5 65L483.5 604" fill="none" pointer-events="visible" stroke="#dbdee4" class="zr6-cls-12"></path>
<path d="M592.5 65L592.5 604" fill="none" pointer-events="visible" stroke="#dbdee4" class="zr6-cls-12"></path>
<path d="M701.5 65L701.5 604" fill="none" pointer-events="visible" stroke="#dbdee4" class="zr6-cls-12"></path>
<path d="M810.5 65L810.5 604" fill="none" pointer-events="visible" stroke="#dbdee4" class="zr6-cls-12"></path>
<path d="M156.5 604L156.5 65" fill="none" pointer-events="visible" stroke="#999" stroke-linecap="round" class="zr6-cls-12"></path>
<text dominant-baseline="central" text-anchor="end" style="font-size:12px;font-family:Microsoft YaHei;" xml:space="preserve" transform="translate(151.92 589.8158)" fill="#111">    fast-copy</text>
<text dominant-baseline="central" text-anchor="end" style="font-size:12px;font-family:Microsoft YaHei;" xml:space="preserve" transform="translate(151.92 561.4474)" fill="#111">    clone-deep</text>
<text dominant-baseline="central" text-anchor="end" style="font-size:12px;font-family:Microsoft YaHei;" xml:space="preserve" transform="translate(151.92 533.0789)" fill="#111">    jsondiffpatch.clone</text>
<text dominant-baseline="central" text-anchor="end" style="font-size:12px;font-family:Microsoft YaHei;" xml:space="preserve" transform="translate(151.92 504.7105)" fill="#111">    nanoclone</text>
<text dominant-baseline="central" text-anchor="end" style="font-size:12px;font-family:Microsoft YaHei;" xml:space="preserve" transform="translate(151.92 476.3421)" fill="#111">    clone</text>
<text dominant-baseline="central" text-anchor="end" style="font-size:12px;font-family:Microsoft YaHei;" xml:space="preserve" transform="translate(151.92 447.9737)" fill="#111">    rfdc</text>
<text dominant-baseline="central" text-anchor="end" style="font-size:12px;font-family:Microsoft YaHei;" xml:space="preserve" transform="translate(151.92 419.6053)" fill="#111">    rfdc(circles)</text>
<text dominant-baseline="central" text-anchor="end" style="font-size:12px;font-family:Microsoft YaHei;" xml:space="preserve" transform="translate(151.92 391.2368)" fill="#111">    klona/lite</text>
<text dominant-baseline="central" text-anchor="end" style="font-size:12px;font-family:Microsoft YaHei;" xml:space="preserve" transform="translate(151.92 362.8684)" fill="#111">    klona</text>
<text dominant-baseline="central" text-anchor="end" style="font-size:12px;font-family:Microsoft YaHei;" xml:space="preserve" transform="translate(151.92 334.5)" fill="#111">    es-toolkit.cloneDeep</text>
<text dominant-baseline="central" text-anchor="end" style="font-size:12px;font-family:Microsoft YaHei;" xml:space="preserve" transform="translate(151.92 306.1316)" fill="#111">    nano-copy</text>
<text dominant-baseline="central" text-anchor="end" style="font-size:12px;font-family:Microsoft YaHei;" xml:space="preserve" transform="translate(151.92 277.7632)" fill="#111">    clone(circular)</text>
<text dominant-baseline="central" text-anchor="end" style="font-size:12px;font-family:Microsoft YaHei;" xml:space="preserve" transform="translate(151.92 249.3947)" fill="#111">    just-clone</text>
<text dominant-baseline="central" text-anchor="end" style="font-size:12px;font-family:Microsoft YaHei;" xml:space="preserve" transform="translate(151.92 221.0263)" fill="#111">    structuredClone</text>
<text dominant-baseline="central" text-anchor="end" style="font-size:12px;font-family:Microsoft YaHei;" xml:space="preserve" transform="translate(151.92 192.6579)" fill="#111">    @ungap/structured-clone</text>
<text dominant-baseline="central" text-anchor="end" style="font-size:12px;font-family:Microsoft YaHei;" xml:space="preserve" transform="translate(151.92 164.2895)" fill="#111">    lodash.cloneDeep</text>
<text dominant-baseline="central" text-anchor="end" style="font-size:12px;font-family:Microsoft YaHei;" xml:space="preserve" transform="translate(151.92 135.9211)" fill="#111">    ramda.clone</text>
<text dominant-baseline="central" text-anchor="end" style="font-size:12px;font-family:Microsoft YaHei;" xml:space="preserve" transform="translate(151.92 107.5526)" fill="#111">    core-js/structured-clone</text>
<text dominant-baseline="central" text-anchor="end" style="font-size:12px;font-family:Microsoft YaHei;" xml:space="preserve" transform="translate(151.92 79.1842)" fill="#111">    deepcopy</text>
<text dominant-baseline="central" text-anchor="middle" style="font-size:12px;font-family:Microsoft YaHei;" y="6" transform="translate(155.92 612)" fill="#111">0</text>
<text dominant-baseline="central" text-anchor="middle" style="font-size:12px;font-family:Microsoft YaHei;" y="6" transform="translate(264.9333 612)" fill="#111">20.0k</text>
<text dominant-baseline="central" text-anchor="middle" style="font-size:12px;font-family:Microsoft YaHei;" y="6" transform="translate(373.9467 612)" fill="#111">40.0k</text>
<text dominant-baseline="central" text-anchor="middle" style="font-size:12px;font-family:Microsoft YaHei;" y="6" transform="translate(482.96 612)" fill="#111">60.0k</text>
<text dominant-baseline="central" text-anchor="middle" style="font-size:12px;font-family:Microsoft YaHei;" y="6" transform="translate(591.9733 612)" fill="#111">80.0k</text>
<text dominant-baseline="central" text-anchor="middle" style="font-size:12px;font-family:Microsoft YaHei;" y="6" transform="translate(700.9867 612)" fill="#111">100.0k</text>
<text dominant-baseline="central" text-anchor="middle" style="font-size:12px;font-family:Microsoft YaHei;" y="6" transform="translate(810 612)" fill="#111">120.0k</text>
<path d="M155.9 580l556.8 0l0 19.6l-556.8 0Z" fill="#4F46E5" ecmeta_series_index="0" ecmeta_data_index="0" ecmeta_ssr_type="chart" class="zr6-cls-13"></path>
<path d="M155.9 551.7l465.6 0l0 19.6l-465.6 0Z" fill="#4F46E5" ecmeta_series_index="0" ecmeta_data_index="1" ecmeta_ssr_type="chart" class="zr6-cls-13"></path>
<path d="M155.9 523.3l459 0l0 19.6l-459 0Z" fill="#4F46E5" ecmeta_series_index="0" ecmeta_data_index="2" ecmeta_ssr_type="chart" class="zr6-cls-13"></path>
<path d="M155.9 494.9l454.6 0l0 19.6l-454.6 0Z" fill="#4F46E5" ecmeta_series_index="0" ecmeta_data_index="3" ecmeta_ssr_type="chart" class="zr6-cls-13"></path>
<path d="M155.9 466.6l413.4 0l0 19.6l-413.4 0Z" fill="#4F46E5" ecmeta_series_index="0" ecmeta_data_index="4" ecmeta_ssr_type="chart" class="zr6-cls-13"></path>
<path d="M155.9 438.2l377.9 0l0 19.6l-377.9 0Z" fill="#4F46E5" ecmeta_series_index="0" ecmeta_data_index="5" ecmeta_ssr_type="chart" class="zr6-cls-13"></path>
<path d="M155.9 409.8l367.4 0l0 19.6l-367.4 0Z" fill="#4F46E5" ecmeta_series_index="0" ecmeta_data_index="6" ecmeta_ssr_type="chart" class="zr6-cls-13"></path>
<path d="M155.9 381.4l343.6 0l0 19.6l-343.6 0Z" fill="#4F46E5" ecmeta_series_index="0" ecmeta_data_index="7" ecmeta_ssr_type="chart" class="zr6-cls-13"></path>
<path d="M155.9 353.1l334.9 0l0 19.6l-334.9 0Z" fill="#4F46E5" ecmeta_series_index="0" ecmeta_data_index="8" ecmeta_ssr_type="chart" class="zr6-cls-13"></path>
<path d="M155.9 324.7l326.9 0l0 19.6l-326.9 0Z" fill="#4F46E5" ecmeta_series_index="0" ecmeta_data_index="9" ecmeta_ssr_type="chart" class="zr6-cls-13"></path>
<path d="M155.9 296.3l312.4 0l0 19.6l-312.4 0Z" fill="#4F46E5" ecmeta_series_index="0" ecmeta_data_index="10" ecmeta_ssr_type="chart" class="zr6-cls-13"></path>
<path d="M155.9 268l304.8 0l0 19.6l-304.8 0Z" fill="#4F46E5" ecmeta_series_index="0" ecmeta_data_index="11" ecmeta_ssr_type="chart" class="zr6-cls-13"></path>
<path d="M155.9 239.6l246.9 0l0 19.6l-246.9 0Z" fill="#4F46E5" ecmeta_series_index="0" ecmeta_data_index="12" ecmeta_ssr_type="chart" class="zr6-cls-13"></path>
<path d="M155.9 211.2l238.4 0l0 19.6l-238.4 0Z" fill="#4F46E5" ecmeta_series_index="0" ecmeta_data_index="13" ecmeta_ssr_type="chart" class="zr6-cls-13"></path>
<path d="M155.9 182.9l230.2 0l0 19.6l-230.2 0Z" fill="#4F46E5" ecmeta_series_index="0" ecmeta_data_index="14" ecmeta_ssr_type="chart" class="zr6-cls-13"></path>
<path d="M155.9 154.5l116 0l0 19.6l-116 0Z" fill="#4F46E5" ecmeta_series_index="0" ecmeta_data_index="15" ecmeta_ssr_type="chart" class="zr6-cls-13"></path>
<path d="M155.9 126.1l86.2 0l0 19.6l-86.2 0Z" fill="#4F46E5" ecmeta_series_index="0" ecmeta_data_index="16" ecmeta_ssr_type="chart" class="zr6-cls-13"></path>
<path d="M155.9 97.8l76 0l0 19.6l-76 0Z" fill="#4F46E5" ecmeta_series_index="0" ecmeta_data_index="17" ecmeta_ssr_type="chart" class="zr6-cls-13"></path>
<path d="M155.9 69.4l74.9 0l0 19.6l-74.9 0Z" fill="#4F46E5" ecmeta_series_index="0" ecmeta_data_index="18" ecmeta_ssr_type="chart" class="zr6-cls-13"></path>
<path d="M-87.7 -5l175.4 0l0 28l-175.4 0Z" transform="translate(450 20)" fill="rgb(0,0,0)" fill-opacity="0" stroke="#3c3c41" stroke-width="0" class="zr6-cls-12"></path>
<text dominant-baseline="central" text-anchor="middle" style="font-size:18px;font-family:Microsoft YaHei;font-weight:bold;" xml:space="preserve" y="9" transform="translate(450 20)" fill="#3c3c41">date • small (ops/s)</text>
<style ><![CDATA[
.zr6-cls-12:hover {
pointer-events:none;
}
.zr6-cls-13:hover {
cursor:pointer;
fill:rgba(86,77,251,1);
}

]]>

</style>
</svg>