<svg width="900" height="488" xmlns="http://www.w3.org/2000/svg" xmlns:xlink="http://www.w3.org/1999/xlink" version="1.1" baseProfile="full" viewBox="0 0 900 488">
<rect width="900" height="488" x="0" y="0" fill="#ffffff"></rect>
<path d="M156.5 65L156.5 408" fill="none" pointer-events="visible" stroke="#dbdee4" class="zr2-cls-4"></path>
<path d="M249.5 65L249.5 408" fill="none" pointer-events="visible" stroke="#dbdee4" class="zr2-cls-4"></path>
<path d="M343.5 65L343.5 408" fill="none" pointer-events="visible" stroke="#dbdee4" class="zr2-cls-4"></path>
<path d="M436.5 65L436.5 408" fill="none" pointer-events="visible" stroke="#dbdee4" class="zr2-cls-4"></path>
<path d="M529.5 65L529.5 408" fill="none" pointer-events="visible" stroke="#dbdee4" class="zr2-cls-4"></path>
<path d="M623.5 65L623.5 408" fill="none" pointer-events="visible" stroke="#dbdee4" class="zr2-cls-4"></path>
<path d="M716.5 65L716.5 408" fill="none" pointer-events="visible" stroke="#dbdee4" class="zr2-cls-4"></path>
<path d="M810.5 65L810.5 408" fill="none" pointer-events="visible" stroke="#dbdee4" class="zr2-cls-4"></path>
<path d="M156.5 408L156.5 65" fill="none" pointer-events="visible" stroke="#999" stroke-linecap="round" class="zr2-cls-4"></path>
<text dominant-baseline="central" text-anchor="end" style="font-size:12px;font-family:Microsoft YaHei;" xml:space="preserve" transform="translate(151.92 393.7083)" fill="#111">    fast-copy</text>
<text dominant-baseline="central" text-anchor="end" style="font-size:12px;font-family:Microsoft YaHei;" xml:space="preserve" transform="translate(151.92 365.125)" fill="#111">    rfdc(circles)</text>
<text dominant-baseline="central" text-anchor="end" style="font-size:12px;font-family:Microsoft YaHei;" xml:space="preserve" transform="translate(151.92 336.5417)" fill="#111">    nanoclone</text>
<text dominant-baseline="central" text-anchor="end" style="font-size:12px;font-family:Microsoft YaHei;" xml:space="preserve" transform="translate(151.92 307.9583)" fill="#111">    nano-copy</text>
<text dominant-baseline="central" text-anchor="end" style="font-size:12px;font-family:Microsoft YaHei;" xml:space="preserve" transform="translate(151.92 279.375)" fill="#111">    es-toolkit.cloneDeep</text>
<text dominant-baseline="central" text-anchor="end" style="font-size:12px;font-family:Microsoft YaHei;" xml:space="preserve" transform="translate(151.92 250.7917)" fill="#111">    lodash.cloneDeep</text>
<text dominant-baseline="central" text-anchor="end" style="font-size:12px;font-family:Microsoft YaHei;" xml:space="preserve" transform="translate(151.92 222.2083)" fill="#111">    clone(circular)</text>
<text dominant-baseline="central" text-anchor="end" style="font-size:12px;font-family:Microsoft YaHei;" xml:space="preserve" transform="translate(151.92 193.625)" fill="#111">    deepcopy</text>
<text dominant-baseline="central" text-anchor="end" style="font-size:12px;font-family:Microsoft YaHei;" xml:space="preserve" transform="translate(151.92 165.0417)" fill="#111">    @ungap/structured-clone</text>
<text dominant-baseline="central" text-anchor="end" style="font-size:12px;font-family:Microsoft YaHei;" xml:space="preserve" transform="translate(151.92 136.4583)" fill="#111">    structuredClone</text>
<text dominant-baseline="central" text-anchor="end" style="font-size:12px;font-family:Microsoft YaHei;" xml:space="preserve" transform="translate(151.92 107.875)" fill="#111">    core-js/structured-clone</text>
<text dominant-baseline="central" text-anchor="end" style="font-size:12px;font-family:Microsoft YaHei;" xml:space="preserve" transform="translate(151.92 79.2917)" fill="#111">    ramda.clone</text>
<text dominant-baseline="central" text-anchor="middle" style="font-size:12px;font-family:Microsoft YaHei;" y="6" transform="translate(155.92 416)" fill="#111">0</text>
<text dominant-baseline="central" text-anchor="middle" style="font-size:12px;font-family:Microsoft YaHei;" y="6" transform="translate(249.36 416)" fill="#111">500.0k</text>
<text dominant-baseline="central" text-anchor="middle" style="font-size:12px;font-family:Microsoft YaHei;" y="6" transform="translate(342.8 416)" fill="#111">1.0M</text>
<text dominant-baseline="central" text-anchor="middle" style="font-size:12px;font-family:Microsoft YaHei;" y="6" transform="translate(436.24 416)" fill="#111">1.5M</text>
<text dominant-baseline="central" text-anchor="middle" style="font-size:12px;font-family:Microsoft YaHei;" y="6" transform="translate(529.68 416)" fill="#111">2.0M</text>
<text dominant-baseline="central" text-anchor="middle" style="font-size:12px;font-family:Microsoft YaHei;" y="6" transform="translate(623.12 416)" fill="#111">2.5M</text>
<text dominant-baseline="central" text-anchor="middle" style="font-size:12px;font-family:Microsoft YaHei;" y="6" transform="translate(716.56 416)" fill="#111">3.0M</text>
<text dominant-baseline="central" text-anchor="middle" style="font-size:12px;font-family:Microsoft YaHei;" y="6" transform="translate(810 416)" fill="#111">3.5M</text>
<path d="M155.9 383.8l623.2 0l0 19.7l-623.2 0Z" fill="#4F46E5" ecmeta_series_index="0" ecmeta_data_index="0" ecmeta_ssr_type="chart" class="zr2-cls-5"></path>
<path d="M155.9 355.3l570.7 0l0 19.7l-570.7 0Z" fill="#4F46E5" ecmeta_series_index="0" ecmeta_data_index="1" ecmeta_ssr_type="chart" class="zr2-cls-5"></path>
<path d="M155.9 326.7l549.5 0l0 19.7l-549.5 0Z" fill="#4F46E5" ecmeta_series_index="0" ecmeta_data_index="2" ecmeta_ssr_type="chart" class="zr2-cls-5"></path>
<path d="M155.9 298.1l516.1 0l0 19.7l-516.1 0Z" fill="#4F46E5" ecmeta_series_index="0" ecmeta_data_index="3" ecmeta_ssr_type="chart" class="zr2-cls-5"></path>
<path d="M155.9 269.5l288 0l0 19.7l-288 0Z" fill="#4F46E5" ecmeta_series_index="0" ecmeta_data_index="4" ecmeta_ssr_type="chart" class="zr2-cls-5"></path>
<path d="M155.9 240.9l169.7 0l0 19.7l-169.7 0Z" fill="#4F46E5" ecmeta_series_index="0" ecmeta_data_index="5" ecmeta_ssr_type="chart" class="zr2-cls-5"></path>
<path d="M155.9 212.3l158.2 0l0 19.7l-158.2 0Z" fill="#4F46E5" ecmeta_series_index="0" ecmeta_data_index="6" ecmeta_ssr_type="chart" class="zr2-cls-5"></path>
<path d="M155.9 183.8l73.2 0l0 19.7l-73.2 0Z" fill="#4F46E5" ecmeta_series_index="0" ecmeta_data_index="7" ecmeta_ssr_type="chart" class="zr2-cls-5"></path>
<path d="M155.9 155.2l71.3 0l0 19.7l-71.3 0Z" fill="#4F46E5" ecmeta_series_index="0" ecmeta_data_index="8" ecmeta_ssr_type="chart" class="zr2-cls-5"></path>
<path d="M155.9 126.6l68.5 0l0 19.7l-68.5 0Z" fill="#4F46E5" ecmeta_series_index="0" ecmeta_data_index="9" ecmeta_ssr_type="chart" class="zr2-cls-5"></path>
<path d="M155.9 98l60.7 0l0 19.7l-60.7 0Z" fill="#4F46E5" ecmeta_series_index="0" ecmeta_data_index="10" ecmeta_ssr_type="chart" class="zr2-cls-5"></path>
<path d="M155.9 69.4l50 0l0 19.7l-50 0Z" fill="#4F46E5" ecmeta_series_index="0" ecmeta_data_index="11" ecmeta_ssr_type="chart" class="zr2-cls-5"></path>
<path d="M-118.6 -5l237.2 0l0 28l-237.2 0Z" transform="translate(450 20)" fill="rgb(0,0,0)" fill-opacity="0" stroke="#3c3c41" stroke-width="0" class="zr2-cls-4"></path>
<text dominant-baseline="central" text-anchor="middle" style="font-size:18px;font-family:Microsoft YaHei;font-weight:bold;" xml:space="preserve" y="9" transform="translate(450 20)" fill="#3c3c41">json-circular • small (ops/s)</text>
<style ><![CDATA[
.zr2-cls-4:hover {
pointer-events:none;
}
.zr2-cls-5:hover {
cursor:pointer;
fill:rgba(86,77,251,1);
}

]]>

</style>
</svg>