<svg width="900" height="796" xmlns="http://www.w3.org/2000/svg" xmlns:xlink="http://www.w3.org/1999/xlink" version="1.1" baseProfile="full" viewBox="0 0 900 796">
<rect width="900" height="796" x="0" y="0" fill="#ffffff"></rect>
<path d="M149.5 65L149.5 716" fill="none" pointer-events="visible" stroke="#dbdee4" class="zr1-cls-2"></path>
<path d="M281.5 65L281.5 716" fill="none" pointer-events="visible" stroke="#dbdee4" class="zr1-cls-2"></path>
<path d="M413.5 65L413.5 716" fill="none" pointer-events="visible" stroke="#dbdee4" class="zr1-cls-2"></path>
<path d="M545.5 65L545.5 716" fill="none" pointer-events="visible" stroke="#dbdee4" class="zr1-cls-2"></path>
<path d="M678.5 65L678.5 716" fill="none" pointer-events="visible" stroke="#dbdee4" class="zr1-cls-2"></path>
<path d="M810.5 65L810.5 716" fill="none" pointer-events="visible" stroke="#dbdee4" class="zr1-cls-2"></path>
<path d="M149.5 716L149.5 65" fill="none" pointer-events="visible" stroke="#999" stroke-linecap="round" class="zr1-cls-2"></path>
<text dominant-baseline="central" text-anchor="end" style="font-size:12px;font-family:Microsoft YaHei;" xml:space="preserve" transform="translate(145.2 701.8478)" fill="#111">  nanoclone</text>
<text dominant-baseline="central" text-anchor="end" style="font-size:12px;font-family:Microsoft YaHei;" xml:space="preserve" transform="translate(145.2 673.5435)" fill="#111">  nano-copy</text>
<text dominant-baseline="central" text-anchor="end" style="font-size:12px;font-family:Microsoft YaHei;" xml:space="preserve" transform="translate(145.2 645.2391)" fill="#111">  fast-copy</text>
<text dominant-baseline="central" text-anchor="end" style="font-size:12px;font-family:Microsoft YaHei;" xml:space="preserve" transform="translate(145.2 616.9348)" fill="#111">  structuredClone</text>
<text dominant-baseline="central" text-anchor="end" style="font-size:12px;font-family:Microsoft YaHei;" xml:space="preserve" transform="translate(145.2 588.6304)" fill="#111">  es-toolkit.cloneDeep</text>
<text dominant-baseline="central" text-anchor="end" style="font-size:12px;font-family:Microsoft YaHei;" xml:space="preserve" transform="translate(145.2 560.3261)" fill="#111">  @ungap/structured-clone</text>
<text dominant-baseline="central" text-anchor="end" style="font-size:12px;font-family:Microsoft YaHei;" xml:space="preserve" transform="translate(145.2 532.0217)" fill="#111">  lodash.cloneDeep</text>
<text dominant-baseline="central" text-anchor="end" style="font-size:12px;font-family:Microsoft YaHei;" xml:space="preserve" transform="translate(145.2 503.7174)" fill="#111">  clone(circular)</text>
<text dominant-baseline="central" text-anchor="end" style="font-size:12px;font-family:Microsoft YaHei;" xml:space="preserve" transform="translate(145.2 475.413)" fill="#111">  core-js/structured-clone</text>
<text dominant-baseline="central" text-anchor="end" style="font-size:12px;font-family:Microsoft YaHei;" xml:space="preserve" transform="translate(145.2 447.1087)" fill="#111">  fastest-json-copy</text>
<text dominant-baseline="central" text-anchor="end" style="font-size:12px;font-family:Microsoft YaHei;" xml:space="preserve" transform="translate(145.2 418.8043)" fill="#111">  klona/json</text>
<text dominant-baseline="central" text-anchor="end" style="font-size:12px;font-family:Microsoft YaHei;" xml:space="preserve" transform="translate(145.2 390.5)" fill="#111">  klona</text>
<text dominant-baseline="central" text-anchor="end" style="font-size:12px;font-family:Microsoft YaHei;" xml:space="preserve" transform="translate(145.2 362.1957)" fill="#111">  klona/lite</text>
<text dominant-baseline="central" text-anchor="end" style="font-size:12px;font-family:Microsoft YaHei;" xml:space="preserve" transform="translate(145.2 333.8913)" fill="#111">  deepcopy</text>
<text dominant-baseline="central" text-anchor="end" style="font-size:12px;font-family:Microsoft YaHei;" xml:space="preserve" transform="translate(145.2 305.587)" fill="#111">  clone-deep</text>
<text dominant-baseline="central" text-anchor="end" style="font-size:12px;font-family:Microsoft YaHei;" xml:space="preserve" transform="translate(145.2 277.2826)" fill="#111">  JSON.stringify/parse</text>
<text dominant-baseline="central" text-anchor="end" style="font-size:12px;font-family:Microsoft YaHei;" xml:space="preserve" transform="translate(145.2 248.9783)" fill="#111">  ramda.clone</text>
<text dominant-baseline="central" text-anchor="end" style="font-size:12px;font-family:Microsoft YaHei;" xml:space="preserve" transform="translate(145.2 220.6739)" fill="#111">  rfdc</text>
<text dominant-baseline="central" text-anchor="end" style="font-size:12px;font-family:Microsoft YaHei;" xml:space="preserve" transform="translate(145.2 192.3696)" fill="#111">  rfdc(circles)</text>
<text dominant-baseline="central" text-anchor="end" style="font-size:12px;font-family:Microsoft YaHei;" xml:space="preserve" transform="translate(145.2 164.0652)" fill="#111">  plain-object-clone</text>
<text dominant-baseline="central" text-anchor="end" style="font-size:12px;font-family:Microsoft YaHei;" xml:space="preserve" transform="translate(145.2 135.7609)" fill="#111">  copy-anything</text>
<text dominant-baseline="central" text-anchor="end" style="font-size:12px;font-family:Microsoft YaHei;" xml:space="preserve" transform="translate(145.2 107.4565)" fill="#111">  just-clone</text>
<text dominant-baseline="central" text-anchor="end" style="font-size:12px;font-family:Microsoft YaHei;" xml:space="preserve" transform="translate(145.2 79.1522)" fill="#111">  clone</text>
<text dominant-baseline="central" text-anchor="middle" style="font-size:12px;font-family:Microsoft YaHei;" y="6" transform="translate(149.2 724)" fill="#111">0</text>
<text dominant-baseline="central" text-anchor="middle" style="font-size:12px;font-family:Microsoft YaHei;" y="6" transform="translate(281.36 724)" fill="#111">2.0k</text>
<text dominant-baseline="central" text-anchor="middle" style="font-size:12px;font-family:Microsoft YaHei;" y="6" transform="translate(413.52 724)" fill="#111">4.0k</text>
<text dominant-baseline="central" text-anchor="middle" style="font-size:12px;font-family:Microsoft YaHei;" y="6" transform="translate(545.68 724)" fill="#111">6.0k</text>
<text dominant-baseline="central" text-anchor="middle" style="font-size:12px;font-family:Microsoft YaHei;" y="6" transform="translate(677.84 724)" fill="#111">8.0k</text>
<text dominant-baseline="central" text-anchor="middle" style="font-size:12px;font-family:Microsoft YaHei;" y="6" transform="translate(810 724)" fill="#111">10.0k</text>
<path d="M149.2 692.1l570.6 0l0 19.5l-570.6 0Z" fill="#4F46E5" ecmeta_series_index="0" ecmeta_data_index="0" ecmeta_ssr_type="chart" class="zr1-cls-3"></path>
<path d="M149.2 663.8l344.1 0l0 19.5l-344.1 0Z" fill="#4F46E5" ecmeta_series_index="0" ecmeta_data_index="1" ecmeta_ssr_type="chart" class="zr1-cls-3"></path>
<path d="M149.2 635.5l278.6 0l0 19.5l-278.6 0Z" fill="#4F46E5" ecmeta_series_index="0" ecmeta_data_index="2" ecmeta_ssr_type="chart" class="zr1-cls-3"></path>
<path d="M149.2 607.2l196.9 0l0 19.5l-196.9 0Z" fill="#4F46E5" ecmeta_series_index="0" ecmeta_data_index="3" ecmeta_ssr_type="chart" class="zr1-cls-3"></path>
<path d="M149.2 578.9l194.1 0l0 19.5l-194.1 0Z" fill="#4F46E5" ecmeta_series_index="0" ecmeta_data_index="4" ecmeta_ssr_type="chart" class="zr1-cls-3"></path>
<path d="M149.2 550.6l193.1 0l0 19.5l-193.1 0Z" fill="#4F46E5" ecmeta_series_index="0" ecmeta_data_index="5" ecmeta_ssr_type="chart" class="zr1-cls-3"></path>
<path d="M149.2 522.3l133.2 0l0 19.5l-133.2 0Z" fill="#4F46E5" ecmeta_series_index="0" ecmeta_data_index="6" ecmeta_ssr_type="chart" class="zr1-cls-3"></path>
<path d="M149.2 494l131 0l0 19.5l-131 0Z" fill="#4F46E5" ecmeta_series_index="0" ecmeta_data_index="7" ecmeta_ssr_type="chart" class="zr1-cls-3"></path>
<path d="M149.2 465.6l106.1 0l0 19.5l-106.1 0Z" fill="#4F46E5" ecmeta_series_index="0" ecmeta_data_index="8" ecmeta_ssr_type="chart" class="zr1-cls-3"></path>
<path d="M149.2 437.3l93.8 0l0 19.5l-93.8 0Z" fill="#4F46E5" ecmeta_series_index="0" ecmeta_data_index="9" ecmeta_ssr_type="chart" class="zr1-cls-3"></path>
<path d="M149.2 409l80.9 0l0 19.5l-80.9 0Z" fill="#4F46E5" ecmeta_series_index="0" ecmeta_data_index="10" ecmeta_ssr_type="chart" class="zr1-cls-3"></path>
<path d="M149.2 380.7l74.9 0l0 19.5l-74.9 0Z" fill="#4F46E5" ecmeta_series_index="0" ecmeta_data_index="11" ecmeta_ssr_type="chart" class="zr1-cls-3"></path>
<path d="M149.2 352.4l73.7 0l0 19.5l-73.7 0Z" fill="#4F46E5" ecmeta_series_index="0" ecmeta_data_index="12" ecmeta_ssr_type="chart" class="zr1-cls-3"></path>
<path d="M149.2 324.1l73.5 0l0 19.5l-73.5 0Z" fill="#4F46E5" ecmeta_series_index="0" ecmeta_data_index="13" ecmeta_ssr_type="chart" class="zr1-cls-3"></path>
<path d="M149.2 295.8l51.9 0l0 19.5l-51.9 0Z" fill="#4F46E5" ecmeta_series_index="0" ecmeta_data_index="14" ecmeta_ssr_type="chart" class="zr1-cls-3"></path>
<path d="M149.2 267.5l51.1 0l0 19.5l-51.1 0Z" fill="#4F46E5" ecmeta_series_index="0" ecmeta_data_index="15" ecmeta_ssr_type="chart" class="zr1-cls-3"></path>
<path d="M149.2 239.2l43.4 0l0 19.5l-43.4 0Z" fill="#4F46E5" ecmeta_series_index="0" ecmeta_data_index="16" ecmeta_ssr_type="chart" class="zr1-cls-3"></path>
<path d="M149.2 210.9l41.4 0l0 19.5l-41.4 0Z" fill="#4F46E5" ecmeta_series_index="0" ecmeta_data_index="17" ecmeta_ssr_type="chart" class="zr1-cls-3"></path>
<path d="M149.2 182.6l41 0l0 19.5l-41 0Z" fill="#4F46E5" ecmeta_series_index="0" ecmeta_data_index="18" ecmeta_ssr_type="chart" class="zr1-cls-3"></path>
<path d="M149.2 154.3l33.5 0l0 19.5l-33.5 0Z" fill="#4F46E5" ecmeta_series_index="0" ecmeta_data_index="19" ecmeta_ssr_type="chart" class="zr1-cls-3"></path>
<path d="M149.2 126l28.2 0l0 19.5l-28.2 0Z" fill="#4F46E5" ecmeta_series_index="0" ecmeta_data_index="20" ecmeta_ssr_type="chart" class="zr1-cls-3"></path>
<path d="M149.2 97.7l26.4 0l0 19.5l-26.4 0Z" fill="#4F46E5" ecmeta_series_index="0" ecmeta_data_index="21" ecmeta_ssr_type="chart" class="zr1-cls-3"></path>
<path d="M149.2 69.4l21.1 0l0 19.5l-21.1 0Z" fill="#4F46E5" ecmeta_series_index="0" ecmeta_data_index="22" ecmeta_ssr_type="chart" class="zr1-cls-3"></path>
<path d="M-85.7 -5l171.5 0l0 28l-171.5 0Z" transform="translate(450 20)" fill="rgb(0,0,0)" fill-opacity="0" stroke="#3c3c41" stroke-width="0" class="zr1-cls-2"></path>
<text dominant-baseline="central" text-anchor="middle" style="font-size:18px;font-family:Microsoft YaHei;font-weight:bold;" xml:space="preserve" y="9" transform="translate(450 20)" fill="#3c3c41">json • large (ops/s)</text>
<style ><![CDATA[
.zr1-cls-2:hover {
pointer-events:none;
}
.zr1-cls-3:hover {
cursor:pointer;
fill:rgba(86,77,251,1);
}

]]>

</style>
</svg>