<svg width="900" height="572" xmlns="http://www.w3.org/2000/svg" xmlns:xlink="http://www.w3.org/1999/xlink" version="1.1" baseProfile="full" viewBox="0 0 900 572">
<rect width="900" height="572" x="0" y="0" fill="#ffffff"></rect>
<path d="M149.5 65L149.5 492" fill="none" pointer-events="visible" stroke="#dbdee4" class="zr17-cls-34"></path>
<path d="M259.5 65L259.5 492" fill="none" pointer-events="visible" stroke="#dbdee4" class="zr17-cls-34"></path>
<path d="M369.5 65L369.5 492" fill="none" pointer-events="visible" stroke="#dbdee4" class="zr17-cls-34"></path>
<path d="M479.5 65L479.5 492" fill="none" pointer-events="visible" stroke="#dbdee4" class="zr17-cls-34"></path>
<path d="M589.5 65L589.5 492" fill="none" pointer-events="visible" stroke="#dbdee4" class="zr17-cls-34"></path>
<path d="M700.5 65L700.5 492" fill="none" pointer-events="visible" stroke="#dbdee4" class="zr17-cls-34"></path>
<path d="M810.5 65L810.5 492" fill="none" pointer-events="visible" stroke="#dbdee4" class="zr17-cls-34"></path>
<path d="M149.5 492L149.5 65" fill="none" pointer-events="visible" stroke="#999" stroke-linecap="round" class="zr17-cls-34"></path>
<text dominant-baseline="central" text-anchor="end" style="font-size:12px;font-family:Microsoft YaHei;" xml:space="preserve" transform="translate(145.2 477.7667)" fill="#111">  fast-copy</text>
<text dominant-baseline="central" text-anchor="end" style="font-size:12px;font-family:Microsoft YaHei;" xml:space="preserve" transform="translate(145.2 449.3)" fill="#111">  clone</text>
<text dominant-baseline="central" text-anchor="end" style="font-size:12px;font-family:Microsoft YaHei;" xml:space="preserve" transform="translate(145.2 420.8333)" fill="#111">  clone(circular)</text>
<text dominant-baseline="central" text-anchor="end" style="font-size:12px;font-family:Microsoft YaHei;" xml:space="preserve" transform="translate(145.2 392.3667)" fill="#111">  klona</text>
<text dominant-baseline="central" text-anchor="end" style="font-size:12px;font-family:Microsoft YaHei;" xml:space="preserve" transform="translate(145.2 363.9)" fill="#111">  nanoclone</text>
<text dominant-baseline="central" text-anchor="end" style="font-size:12px;font-family:Microsoft YaHei;" xml:space="preserve" transform="translate(145.2 335.4333)" fill="#111">  es-toolkit.cloneDeep</text>
<text dominant-baseline="central" text-anchor="end" style="font-size:12px;font-family:Microsoft YaHei;" xml:space="preserve" transform="translate(145.2 306.9667)" fill="#111">  nano-copy</text>
<text dominant-baseline="central" text-anchor="end" style="font-size:12px;font-family:Microsoft YaHei;" xml:space="preserve" transform="translate(145.2 278.5)" fill="#111">  @ungap/structured-clone</text>
<text dominant-baseline="central" text-anchor="end" style="font-size:12px;font-family:Microsoft YaHei;" xml:space="preserve" transform="translate(145.2 250.0333)" fill="#111">  structuredClone</text>
<text dominant-baseline="central" text-anchor="end" style="font-size:12px;font-family:Microsoft YaHei;" xml:space="preserve" transform="translate(145.2 221.5667)" fill="#111">  just-clone</text>
<text dominant-baseline="central" text-anchor="end" style="font-size:12px;font-family:Microsoft YaHei;" xml:space="preserve" transform="translate(145.2 193.1)" fill="#111">  rfdc(circles)</text>
<text dominant-baseline="central" text-anchor="end" style="font-size:12px;font-family:Microsoft YaHei;" xml:space="preserve" transform="translate(145.2 164.6333)" fill="#111">  lodash.cloneDeep</text>
<text dominant-baseline="central" text-anchor="end" style="font-size:12px;font-family:Microsoft YaHei;" xml:space="preserve" transform="translate(145.2 136.1667)" fill="#111">  rfdc</text>
<text dominant-baseline="central" text-anchor="end" style="font-size:12px;font-family:Microsoft YaHei;" xml:space="preserve" transform="translate(145.2 107.7)" fill="#111">  deepcopy</text>
<text dominant-baseline="central" text-anchor="end" style="font-size:12px;font-family:Microsoft YaHei;" xml:space="preserve" transform="translate(145.2 79.2333)" fill="#111">  core-js/structured-clone</text>
<text dominant-baseline="central" text-anchor="middle" style="font-size:12px;font-family:Microsoft YaHei;" y="6" transform="translate(149.2 500)" fill="#111">0</text>
<text dominant-baseline="central" text-anchor="middle" style="font-size:12px;font-family:Microsoft YaHei;" y="6" transform="translate(259.3333 500)" fill="#111">5.0k</text>
<text dominant-baseline="central" text-anchor="middle" style="font-size:12px;font-family:Microsoft YaHei;" y="6" transform="translate(369.4667 500)" fill="#111">10.0k</text>
<text dominant-baseline="central" text-anchor="middle" style="font-size:12px;font-family:Microsoft YaHei;" y="6" transform="translate(479.6 500)" fill="#111">15.0k</text>
<text dominant-baseline="central" text-anchor="middle" style="font-size:12px;font-family:Microsoft YaHei;" y="6" transform="translate(589.7333 500)" fill="#111">20.0k</text>
<text dominant-baseline="central" text-anchor="middle" style="font-size:12px;font-family:Microsoft YaHei;" y="6" transform="translate(699.8667 500)" fill="#111">25.0k</text>
<text dominant-baseline="central" text-anchor="middle" style="font-size:12px;font-family:Microsoft YaHei;" y="6" transform="translate(810 500)" fill="#111">30.0k</text>
<path d="M149.2 467.9l621.2 0l0 19.6l-621.2 0Z" fill="#4F46E5" ecmeta_series_index="0" ecmeta_data_index="0" ecmeta_ssr_type="chart" class="zr17-cls-35"></path>
<path d="M149.2 439.5l619.5 0l0 19.6l-619.5 0Z" fill="#4F46E5" ecmeta_series_index="0" ecmeta_data_index="1" ecmeta_ssr_type="chart" class="zr17-cls-35"></path>
<path d="M149.2 411l459.4 0l0 19.6l-459.4 0Z" fill="#4F46E5" ecmeta_series_index="0" ecmeta_data_index="2" ecmeta_ssr_type="chart" class="zr17-cls-35"></path>
<path d="M149.2 382.5l454.3 0l0 19.6l-454.3 0Z" fill="#4F46E5" ecmeta_series_index="0" ecmeta_data_index="3" ecmeta_ssr_type="chart" class="zr17-cls-35"></path>
<path d="M149.2 354.1l361.8 0l0 19.6l-361.8 0Z" fill="#4F46E5" ecmeta_series_index="0" ecmeta_data_index="4" ecmeta_ssr_type="chart" class="zr17-cls-35"></path>
<path d="M149.2 325.6l280.4 0l0 19.6l-280.4 0Z" fill="#4F46E5" ecmeta_series_index="0" ecmeta_data_index="5" ecmeta_ssr_type="chart" class="zr17-cls-35"></path>
<path d="M149.2 297.1l200.6 0l0 19.6l-200.6 0Z" fill="#4F46E5" ecmeta_series_index="0" ecmeta_data_index="6" ecmeta_ssr_type="chart" class="zr17-cls-35"></path>
<path d="M149.2 268.7l165.9 0l0 19.6l-165.9 0Z" fill="#4F46E5" ecmeta_series_index="0" ecmeta_data_index="7" ecmeta_ssr_type="chart" class="zr17-cls-35"></path>
<path d="M149.2 240.2l164.3 0l0 19.6l-164.3 0Z" fill="#4F46E5" ecmeta_series_index="0" ecmeta_data_index="8" ecmeta_ssr_type="chart" class="zr17-cls-35"></path>
<path d="M149.2 211.7l138.6 0l0 19.6l-138.6 0Z" fill="#4F46E5" ecmeta_series_index="0" ecmeta_data_index="9" ecmeta_ssr_type="chart" class="zr17-cls-35"></path>
<path d="M149.2 183.3l123.3 0l0 19.6l-123.3 0Z" fill="#4F46E5" ecmeta_series_index="0" ecmeta_data_index="10" ecmeta_ssr_type="chart" class="zr17-cls-35"></path>
<path d="M149.2 154.8l117.1 0l0 19.6l-117.1 0Z" fill="#4F46E5" ecmeta_series_index="0" ecmeta_data_index="11" ecmeta_ssr_type="chart" class="zr17-cls-35"></path>
<path d="M149.2 126.3l108.7 0l0 19.6l-108.7 0Z" fill="#4F46E5" ecmeta_series_index="0" ecmeta_data_index="12" ecmeta_ssr_type="chart" class="zr17-cls-35"></path>
<path d="M149.2 97.9l92.5 0l0 19.6l-92.5 0Z" fill="#4F46E5" ecmeta_series_index="0" ecmeta_data_index="13" ecmeta_ssr_type="chart" class="zr17-cls-35"></path>
<path d="M149.2 69.4l72.3 0l0 19.6l-72.3 0Z" fill="#4F46E5" ecmeta_series_index="0" ecmeta_data_index="14" ecmeta_ssr_type="chart" class="zr17-cls-35"></path>
<path d="M-101.8 -5l203.5 0l0 28l-203.5 0Z" transform="translate(450 20)" fill="rgb(0,0,0)" fill-opacity="0" stroke="#3c3c41" stroke-width="0" class="zr17-cls-34"></path>
<text dominant-baseline="central" text-anchor="middle" style="font-size:18px;font-family:Microsoft YaHei;font-weight:bold;" xml:space="preserve" y="9" transform="translate(450 20)" fill="#3c3c41">map-set • large (ops/s)</text>
<style ><![CDATA[
.zr17-cls-34:hover {
pointer-events:none;
}
.zr17-cls-35:hover {
cursor:pointer;
fill:rgba(86,77,251,1);
}

]]>

</style>
</svg>