<svg width="900" height="572" xmlns="http://www.w3.org/2000/svg" xmlns:xlink="http://www.w3.org/1999/xlink" version="1.1" baseProfile="full" viewBox="0 0 900 572">
<rect width="900" height="572" x="0" y="0" fill="#ffffff"></rect>
<path d="M156.5 65L156.5 492" fill="none" pointer-events="visible" stroke="#dbdee4" class="zr17-cls-34"></path>
<path d="M265.5 65L265.5 492" fill="none" pointer-events="visible" stroke="#dbdee4" class="zr17-cls-34"></path>
<path d="M374.5 65L374.5 492" fill="none" pointer-events="visible" stroke="#dbdee4" class="zr17-cls-34"></path>
<path d="M483.5 65L483.5 492" fill="none" pointer-events="visible" stroke="#dbdee4" class="zr17-cls-34"></path>
<path d="M592.5 65L592.5 492" fill="none" pointer-events="visible" stroke="#dbdee4" class="zr17-cls-34"></path>
<path d="M701.5 65L701.5 492" fill="none" pointer-events="visible" stroke="#dbdee4" class="zr17-cls-34"></path>
<path d="M810.5 65L810.5 492" fill="none" pointer-events="visible" stroke="#dbdee4" class="zr17-cls-34"></path>
<path d="M156.5 492L156.5 65" fill="none" pointer-events="visible" stroke="#999" stroke-linecap="round" class="zr17-cls-34"></path>
<text dominant-baseline="central" text-anchor="end" style="font-size:12px;font-family:Microsoft YaHei;" xml:space="preserve" transform="translate(151.92 477.7667)" fill="#111">    fast-copy</text>
<text dominant-baseline="central" text-anchor="end" style="font-size:12px;font-family:Microsoft YaHei;" xml:space="preserve" transform="translate(151.92 449.3)" fill="#111">    clone</text>
<text dominant-baseline="central" text-anchor="end" style="font-size:12px;font-family:Microsoft YaHei;" xml:space="preserve" transform="translate(151.92 420.8333)" fill="#111">    clone(circular)</text>
<text dominant-baseline="central" text-anchor="end" style="font-size:12px;font-family:Microsoft YaHei;" xml:space="preserve" transform="translate(151.92 392.3667)" fill="#111">    klona</text>
<text dominant-baseline="central" text-anchor="end" style="font-size:12px;font-family:Microsoft YaHei;" xml:space="preserve" transform="translate(151.92 363.9)" fill="#111">    nanoclone</text>
<text dominant-baseline="central" text-anchor="end" style="font-size:12px;font-family:Microsoft YaHei;" xml:space="preserve" transform="translate(151.92 335.4333)" fill="#111">    es-toolkit.cloneDeep</text>
<text dominant-baseline="central" text-anchor="end" style="font-size:12px;font-family:Microsoft YaHei;" xml:space="preserve" transform="translate(151.92 306.9667)" fill="#111">    nano-copy</text>
<text dominant-baseline="central" text-anchor="end" style="font-size:12px;font-family:Microsoft YaHei;" xml:space="preserve" transform="translate(151.92 278.5)" fill="#111">    structuredClone</text>
<text dominant-baseline="central" text-anchor="end" style="font-size:12px;font-family:Microsoft YaHei;" xml:space="preserve" transform="translate(151.92 250.0333)" fill="#111">    @ungap/structured-clone</text>
<text dominant-baseline="central" text-anchor="end" style="font-size:12px;font-family:Microsoft YaHei;" xml:space="preserve" transform="translate(151.92 221.5667)" fill="#111">    just-clone</text>
<text dominant-baseline="central" text-anchor="end" style="font-size:12px;font-family:Microsoft YaHei;" xml:space="preserve" transform="translate(151.92 193.1)" fill="#111">    lodash.cloneDeep</text>
<text dominant-baseline="central" text-anchor="end" style="font-size:12px;font-family:Microsoft YaHei;" xml:space="preserve" transform="translate(151.92 164.6333)" fill="#111">    rfdc(circles)</text>
<text dominant-baseline="central" text-anchor="end" style="font-size:12px;font-family:Microsoft YaHei;" xml:space="preserve" transform="translate(151.92 136.1667)" fill="#111">    rfdc</text>
<text dominant-baseline="central" text-anchor="end" style="font-size:12px;font-family:Microsoft YaHei;" xml:space="preserve" transform="translate(151.92 107.7)" fill="#111">    deepcopy</text>
<text dominant-baseline="central" text-anchor="end" style="font-size:12px;font-family:Microsoft YaHei;" xml:space="preserve" transform="translate(151.92 79.2333)" fill="#111">    core-js/structured-clone</text>
<text dominant-baseline="central" text-anchor="middle" style="font-size:12px;font-family:Microsoft YaHei;" y="6" transform="translate(155.92 500)" fill="#111">0</text>
<text dominant-baseline="central" text-anchor="middle" style="font-size:12px;font-family:Microsoft YaHei;" y="6" transform="translate(264.9333 500)" fill="#111">5.0k</text>
<text dominant-baseline="central" text-anchor="middle" style="font-size:12px;font-family:Microsoft YaHei;" y="6" transform="translate(373.9467 500)" fill="#111">10.0k</text>
<text dominant-baseline="central" text-anchor="middle" style="font-size:12px;font-family:Microsoft YaHei;" y="6" transform="translate(482.96 500)" fill="#111">15.0k</text>
<text dominant-baseline="central" text-anchor="middle" style="font-size:12px;font-family:Microsoft YaHei;" y="6" transform="translate(591.9733 500)" fill="#111">20.0k</text>
<text dominant-baseline="central" text-anchor="middle" style="font-size:12px;font-family:Microsoft YaHei;" y="6" transform="translate(700.9867 500)" fill="#111">25.0k</text>
<text dominant-baseline="central" text-anchor="middle" style="font-size:12px;font-family:Microsoft YaHei;" y="6" transform="translate(810 500)" fill="#111">30.0k</text>
<path d="M155.9 467.9l629.3 0l0 19.6l-629.3 0Z" fill="#4F46E5" ecmeta_series_index="0" ecmeta_data_index="0" ecmeta_ssr_type="chart" class="zr17-cls-35"></path>
<path d="M155.9 439.5l616.4 0l0 19.6l-616.4 0Z" fill="#4F46E5" ecmeta_series_index="0" ecmeta_data_index="1" ecmeta_ssr_type="chart" class="zr17-cls-35"></path>
<path d="M155.9 411l457.2 0l0 19.6l-457.2 0Z" fill="#4F46E5" ecmeta_series_index="0" ecmeta_data_index="2" ecmeta_ssr_type="chart" class="zr17-cls-35"></path>
<path d="M155.9 382.5l442.5 0l0 19.6l-442.5 0Z" fill="#4F46E5" ecmeta_series_index="0" ecmeta_data_index="3" ecmeta_ssr_type="chart" class="zr17-cls-35"></path>
<path d="M155.9 354.1l351.3 0l0 19.6l-351.3 0Z" fill="#4F46E5" ecmeta_series_index="0" ecmeta_data_index="4" ecmeta_ssr_type="chart" class="zr17-cls-35"></path>
<path d="M155.9 325.6l305 0l0 19.6l-305 0Z" fill="#4F46E5" ecmeta_series_index="0" ecmeta_data_index="5" ecmeta_ssr_type="chart" class="zr17-cls-35"></path>
<path d="M155.9 297.1l178.1 0l0 19.6l-178.1 0Z" fill="#4F46E5" ecmeta_series_index="0" ecmeta_data_index="6" ecmeta_ssr_type="chart" class="zr17-cls-35"></path>
<path d="M155.9 268.7l158.6 0l0 19.6l-158.6 0Z" fill="#4F46E5" ecmeta_series_index="0" ecmeta_data_index="7" ecmeta_ssr_type="chart" class="zr17-cls-35"></path>
<path d="M155.9 240.2l154.8 0l0 19.6l-154.8 0Z" fill="#4F46E5" ecmeta_series_index="0" ecmeta_data_index="8" ecmeta_ssr_type="chart" class="zr17-cls-35"></path>
<path d="M155.9 211.7l152 0l0 19.6l-152 0Z" fill="#4F46E5" ecmeta_series_index="0" ecmeta_data_index="9" ecmeta_ssr_type="chart" class="zr17-cls-35"></path>
<path d="M155.9 183.3l117.1 0l0 19.6l-117.1 0Z" fill="#4F46E5" ecmeta_series_index="0" ecmeta_data_index="10" ecmeta_ssr_type="chart" class="zr17-cls-35"></path>
<path d="M155.9 154.8l117.1 0l0 19.6l-117.1 0Z" fill="#4F46E5" ecmeta_series_index="0" ecmeta_data_index="11" ecmeta_ssr_type="chart" class="zr17-cls-35"></path>
<path d="M155.9 126.3l112.9 0l0 19.6l-112.9 0Z" fill="#4F46E5" ecmeta_series_index="0" ecmeta_data_index="12" ecmeta_ssr_type="chart" class="zr17-cls-35"></path>
<path d="M155.9 97.9l89.3 0l0 19.6l-89.3 0Z" fill="#4F46E5" ecmeta_series_index="0" ecmeta_data_index="13" ecmeta_ssr_type="chart" class="zr17-cls-35"></path>
<path d="M155.9 69.4l68 0l0 19.6l-68 0Z" fill="#4F46E5" ecmeta_series_index="0" ecmeta_data_index="14" ecmeta_ssr_type="chart" class="zr17-cls-35"></path>
<path d="M-101.8 -5l203.5 0l0 28l-203.5 0Z" transform="translate(450 20)" fill="rgb(0,0,0)" fill-opacity="0" stroke="#3c3c41" stroke-width="0" class="zr17-cls-34"></path>
<text dominant-baseline="central" text-anchor="middle" style="font-size:18px;font-family:Microsoft YaHei;font-weight:bold;" xml:space="preserve" y="9" transform="translate(450 20)" fill="#3c3c41">map-set • large (ops/s)</text>
<style ><![CDATA[
.zr17-cls-34:hover {
pointer-events:none;
}
.zr17-cls-35:hover {
cursor:pointer;
fill:rgba(86,77,251,1);
}

]]>

</style>
</svg>