<svg width="900" height="572" xmlns="http://www.w3.org/2000/svg" xmlns:xlink="http://www.w3.org/1999/xlink" version="1.1" baseProfile="full" viewBox="0 0 900 572">
<rect width="900" height="572" x="0" y="0" fill="#ffffff"></rect>
<path d="M149.5 65L149.5 492" fill="none" pointer-events="visible" stroke="#dbdee4" class="zr16-cls-32"></path>
<path d="M243.5 65L243.5 492" fill="none" pointer-events="visible" stroke="#dbdee4" class="zr16-cls-32"></path>
<path d="M338.5 65L338.5 492" fill="none" pointer-events="visible" stroke="#dbdee4" class="zr16-cls-32"></path>
<path d="M432.5 65L432.5 492" fill="none" pointer-events="visible" stroke="#dbdee4" class="zr16-cls-32"></path>
<path d="M527.5 65L527.5 492" fill="none" pointer-events="visible" stroke="#dbdee4" class="zr16-cls-32"></path>
<path d="M621.5 65L621.5 492" fill="none" pointer-events="visible" stroke="#dbdee4" class="zr16-cls-32"></path>
<path d="M715.5 65L715.5 492" fill="none" pointer-events="visible" stroke="#dbdee4" class="zr16-cls-32"></path>
<path d="M810.5 65L810.5 492" fill="none" pointer-events="visible" stroke="#dbdee4" class="zr16-cls-32"></path>
<path d="M149.5 492L149.5 65" fill="none" pointer-events="visible" stroke="#999" stroke-linecap="round" class="zr16-cls-32"></path>
<text dominant-baseline="central" text-anchor="end" style="font-size:12px;font-family:Microsoft YaHei;" xml:space="preserve" transform="translate(145.2 477.7667)" fill="#111">  fast-copy</text>
<text dominant-baseline="central" text-anchor="end" style="font-size:12px;font-family:Microsoft YaHei;" xml:space="preserve" transform="translate(145.2 449.3)" fill="#111">  klona</text>
<text dominant-baseline="central" text-anchor="end" style="font-size:12px;font-family:Microsoft YaHei;" xml:space="preserve" transform="translate(145.2 420.8333)" fill="#111">  clone</text>
<text dominant-baseline="central" text-anchor="end" style="font-size:12px;font-family:Microsoft YaHei;" xml:space="preserve" transform="translate(145.2 392.3667)" fill="#111">  nanoclone</text>
<text dominant-baseline="central" text-anchor="end" style="font-size:12px;font-family:Microsoft YaHei;" xml:space="preserve" transform="translate(145.2 363.9)" fill="#111">  clone(circular)</text>
<text dominant-baseline="central" text-anchor="end" style="font-size:12px;font-family:Microsoft YaHei;" xml:space="preserve" transform="translate(145.2 335.4333)" fill="#111">  es-toolkit.cloneDeep</text>
<text dominant-baseline="central" text-anchor="end" style="font-size:12px;font-family:Microsoft YaHei;" xml:space="preserve" transform="translate(145.2 306.9667)" fill="#111">  lodash.cloneDeep</text>
<text dominant-baseline="central" text-anchor="end" style="font-size:12px;font-family:Microsoft YaHei;" xml:space="preserve" transform="translate(145.2 278.5)" fill="#111">  @ungap/structured-clone</text>
<text dominant-baseline="central" text-anchor="end" style="font-size:12px;font-family:Microsoft YaHei;" xml:space="preserve" transform="translate(145.2 250.0333)" fill="#111">  just-clone</text>
<text dominant-baseline="central" text-anchor="end" style="font-size:12px;font-family:Microsoft YaHei;" xml:space="preserve" transform="translate(145.2 221.5667)" fill="#111">  structuredClone</text>
<text dominant-baseline="central" text-anchor="end" style="font-size:12px;font-family:Microsoft YaHei;" xml:space="preserve" transform="translate(145.2 193.1)" fill="#111">  rfdc(circles)</text>
<text dominant-baseline="central" text-anchor="end" style="font-size:12px;font-family:Microsoft YaHei;" xml:space="preserve" transform="translate(145.2 164.6333)" fill="#111">  rfdc</text>
<text dominant-baseline="central" text-anchor="end" style="font-size:12px;font-family:Microsoft YaHei;" xml:space="preserve" transform="translate(145.2 136.1667)" fill="#111">  nano-copy</text>
<text dominant-baseline="central" text-anchor="end" style="font-size:12px;font-family:Microsoft YaHei;" xml:space="preserve" transform="translate(145.2 107.7)" fill="#111">  deepcopy</text>
<text dominant-baseline="central" text-anchor="end" style="font-size:12px;font-family:Microsoft YaHei;" xml:space="preserve" transform="translate(145.2 79.2333)" fill="#111">  core-js/structured-clone</text>
<text dominant-baseline="central" text-anchor="middle" style="font-size:12px;font-family:Microsoft YaHei;" y="6" transform="translate(149.2 500)" fill="#111">0</text>
<text dominant-baseline="central" text-anchor="middle" style="font-size:12px;font-family:Microsoft YaHei;" y="6" transform="translate(243.6 500)" fill="#111">30.0k</text>
<text dominant-baseline="central" text-anchor="middle" style="font-size:12px;font-family:Microsoft YaHei;" y="6" transform="translate(338 500)" fill="#111">60.0k</text>
<text dominant-baseline="central" text-anchor="middle" style="font-size:12px;font-family:Microsoft YaHei;" y="6" transform="translate(432.4 500)" fill="#111">90.0k</text>
<text dominant-baseline="central" text-anchor="middle" style="font-size:12px;font-family:Microsoft YaHei;" y="6" transform="translate(526.8 500)" fill="#111">120.0k</text>
<text dominant-baseline="central" text-anchor="middle" style="font-size:12px;font-family:Microsoft YaHei;" y="6" transform="translate(621.2 500)" fill="#111">150.0k</text>
<text dominant-baseline="central" text-anchor="middle" style="font-size:12px;font-family:Microsoft YaHei;" y="6" transform="translate(715.6 500)" fill="#111">180.0k</text>
<text dominant-baseline="central" text-anchor="middle" style="font-size:12px;font-family:Microsoft YaHei;" y="6" transform="translate(810 500)" fill="#111">210.0k</text>
<path d="M149.2 467.9l601.2 0l0 19.6l-601.2 0Z" fill="#4F46E5" ecmeta_series_index="0" ecmeta_data_index="0" ecmeta_ssr_type="chart" class="zr16-cls-33"></path>
<path d="M149.2 439.5l479.1 0l0 19.6l-479.1 0Z" fill="#4F46E5" ecmeta_series_index="0" ecmeta_data_index="1" ecmeta_ssr_type="chart" class="zr16-cls-33"></path>
<path d="M149.2 411l358.6 0l0 19.6l-358.6 0Z" fill="#4F46E5" ecmeta_series_index="0" ecmeta_data_index="2" ecmeta_ssr_type="chart" class="zr16-cls-33"></path>
<path d="M149.2 382.5l330 0l0 19.6l-330 0Z" fill="#4F46E5" ecmeta_series_index="0" ecmeta_data_index="3" ecmeta_ssr_type="chart" class="zr16-cls-33"></path>
<path d="M149.2 354.1l320 0l0 19.6l-320 0Z" fill="#4F46E5" ecmeta_series_index="0" ecmeta_data_index="4" ecmeta_ssr_type="chart" class="zr16-cls-33"></path>
<path d="M149.2 325.6l298.9 0l0 19.6l-298.9 0Z" fill="#4F46E5" ecmeta_series_index="0" ecmeta_data_index="5" ecmeta_ssr_type="chart" class="zr16-cls-33"></path>
<path d="M149.2 297.1l228.2 0l0 19.6l-228.2 0Z" fill="#4F46E5" ecmeta_series_index="0" ecmeta_data_index="6" ecmeta_ssr_type="chart" class="zr16-cls-33"></path>
<path d="M149.2 268.7l209.7 0l0 19.6l-209.7 0Z" fill="#4F46E5" ecmeta_series_index="0" ecmeta_data_index="7" ecmeta_ssr_type="chart" class="zr16-cls-33"></path>
<path d="M149.2 240.2l209.4 0l0 19.6l-209.4 0Z" fill="#4F46E5" ecmeta_series_index="0" ecmeta_data_index="8" ecmeta_ssr_type="chart" class="zr16-cls-33"></path>
<path d="M149.2 211.7l208.9 0l0 19.6l-208.9 0Z" fill="#4F46E5" ecmeta_series_index="0" ecmeta_data_index="9" ecmeta_ssr_type="chart" class="zr16-cls-33"></path>
<path d="M149.2 183.3l185.4 0l0 19.6l-185.4 0Z" fill="#4F46E5" ecmeta_series_index="0" ecmeta_data_index="10" ecmeta_ssr_type="chart" class="zr16-cls-33"></path>
<path d="M149.2 154.8l184.2 0l0 19.6l-184.2 0Z" fill="#4F46E5" ecmeta_series_index="0" ecmeta_data_index="11" ecmeta_ssr_type="chart" class="zr16-cls-33"></path>
<path d="M149.2 126.3l172.8 0l0 19.6l-172.8 0Z" fill="#4F46E5" ecmeta_series_index="0" ecmeta_data_index="12" ecmeta_ssr_type="chart" class="zr16-cls-33"></path>
<path d="M149.2 97.9l126.4 0l0 19.6l-126.4 0Z" fill="#4F46E5" ecmeta_series_index="0" ecmeta_data_index="13" ecmeta_ssr_type="chart" class="zr16-cls-33"></path>
<path d="M149.2 69.4l114 0l0 19.6l-114 0Z" fill="#4F46E5" ecmeta_series_index="0" ecmeta_data_index="14" ecmeta_ssr_type="chart" class="zr16-cls-33"></path>
<path d="M-102.7 -5l205.3 0l0 28l-205.3 0Z" transform="translate(450 20)" fill="rgb(0,0,0)" fill-opacity="0" stroke="#3c3c41" stroke-width="0" class="zr16-cls-32"></path>
<text dominant-baseline="central" text-anchor="middle" style="font-size:18px;font-family:Microsoft YaHei;font-weight:bold;" xml:space="preserve" y="9" transform="translate(450 20)" fill="#3c3c41">map-set • small (ops/s)</text>
<style ><![CDATA[
.zr16-cls-32:hover {
pointer-events:none;
}
.zr16-cls-33:hover {
cursor:pointer;
fill:rgba(86,77,251,1);
}

]]>

</style>
</svg>